999
FreeCAD v1.0 38641 +468 (Git)
  0
SECTION
  2
HEADER
  9
$ACADVER
  1
AC1014
  9
$ACADMAINTVER
 70
     9
  9
$DWGCODEPAGE
  3
ANSI_1252
  9
$TEXTSTYLE
  7
STANDARD
  9
$DIMSTYLE
  2
STANDARD
  9
$DIMTXSTY
  7
STANDARD
  9
$CMLSTYLE
  2
STANDARD
  9
$LUNITS
 70
2
  9
$INSUNITS
 70
4
  9
$PEXTMAX
 10
50
 20
50
 30
50
  9
$PEXTMIN
 10
0
 20
0
 30
0
  9
$HANDSEED
  5
FFFF
  0
ENDSEC
  0
SECTION
  2
CLASSES
  0
CLASS
  1
ACDBDICTIONARYWDFLT
  2
AcDbDictionaryWithDefault
  3
ObjectDBX Classes
 90
        0
280
     0
281
     0
  0
CLASS
  1
XRECORD
  2
AcDbXrecord
  3
ObjectDBX Classes
 90
        0
280
     0
281
     0
  0
CLASS
  1
LWPOLYLINE
  2
AcDbPolyline
  3
ObjectDBX Classes
 90
        0
280
     0
281
     1
  0
ENDSEC
  0
SECTION
  2
TABLES
  0
TABLE
  2
VPORT
  5
20
330
0
100
AcDbSymbolTable
 70
     1
  0
VPORT
  5
21
330
20
100
AcDbSymbolTableRecord
100
AcDbViewportTableRecord
  2
*ACTIVE
 70
     0
  0
ENDTAB
  0
TABLE
  2
LTYPE
  5
22
330
0
100
AcDbSymbolTable
 70
     1
  0
LTYPE
  5
23
330
21
100
AcDbSymbolTableRecord
100
AcDbLinetypeTableRecord
  2
BYBLOCK
 70
     0
  3

 72
    65
 73
     0
 40
0.0
  0
LTYPE
  5
24
330
21
100
AcDbSymbolTableRecord
100
AcDbLinetypeTableRecord
  2
BYLAYER
 70
     0
  3

 72
    65
 73
     0
 40
0.0
  0
LTYPE
  5
25
330
21
100
AcDbSymbolTableRecord
100
AcDbLinetypeTableRecord
  2
CONTINUOUS
 70
     0
  3
Solid line
 72
    65
 73
     0
 40
0.0
  0
ENDTAB
  0
TABLE
  2
LAYER
  5
D20
330
0
100
AcDbSymbolTable
 70
15
  0
LAYER
  5
D21
330
D20
100
AcDbSymbolTableRecord
100
AcDbLayerTableRecord
  2
0
 70
   0
 62
   7
  6
CONTINUOUS
  0
LAYER
  5
D22
330
D20
100
AcDbSymbolTableRecord
100
AcDbLayerTableRecord
  2
none
 70
    0
 62
    7
  6
CONTINUOUS
  0
LAYER
  5
D23
330
D20
100
AcDbSymbolTableRecord
100
AcDbLayerTableRecord
  2
Shape2DView
 70
    0
 62
    7
  6
CONTINUOUS
  0
LAYER
  5
D24
330
D20
100
AcDbSymbolTableRecord
100
AcDbLayerTableRecord
  2
Shape2DView001
 70
    0
 62
    7
  6
CONTINUOUS
  0
LAYER
  5
D25
330
D20
100
AcDbSymbolTableRecord
100
AcDbLayerTableRecord
  2
Shape2DView002
 70
    0
 62
    7
  6
CONTINUOUS
  0
LAYER
  5
D26
330
D20
100
AcDbSymbolTableRecord
100
AcDbLayerTableRecord
  2
Shape2DView003
 70
    0
 62
    7
  6
CONTINUOUS
  0
LAYER
  5
D27
330
D20
100
AcDbSymbolTableRecord
100
AcDbLayerTableRecord
  2
Shape2DView004
 70
    0
 62
    7
  6
CONTINUOUS
  0
LAYER
  5
D28
330
D20
100
AcDbSymbolTableRecord
100
AcDbLayerTableRecord
  2
Shape2DView005
 70
    0
 62
    7
  6
CONTINUOUS
  0
LAYER
  5
D29
330
D20
100
AcDbSymbolTableRecord
100
AcDbLayerTableRecord
  2
Shape2DView006
 70
    0
 62
    7
  6
CONTINUOUS
  0
LAYER
  5
D2A
330
D20
100
AcDbSymbolTableRecord
100
AcDbLayerTableRecord
  2
Shape2DView007
 70
    0
 62
    7
  6
CONTINUOUS
  0
LAYER
  5
D2B
330
D20
100
AcDbSymbolTableRecord
100
AcDbLayerTableRecord
  2
Shape2DView008
 70
    0
 62
    7
  6
CONTINUOUS
  0
LAYER
  5
D2C
330
D20
100
AcDbSymbolTableRecord
100
AcDbLayerTableRecord
  2
Shape2DView009
 70
    0
 62
    7
  6
CONTINUOUS
  0
LAYER
  5
D2D
330
D20
100
AcDbSymbolTableRecord
100
AcDbLayerTableRecord
  2
Shape2DView010
 70
    0
 62
    7
  6
CONTINUOUS
  0
LAYER
  5
D2E
330
D20
100
AcDbSymbolTableRecord
100
AcDbLayerTableRecord
  2
Shape2DView011
 70
    0
 62
    7
  6
CONTINUOUS
  0
LAYER
  5
D2F
330
D20
100
AcDbSymbolTableRecord
100
AcDbLayerTableRecord
  2
Shape2DView012
 70
    0
 62
    7
  6
CONTINUOUS
  0
ENDTAB
  0
TABLE
  2
STYLE
  5
70
330
0
100
AcDbSymbolTable
 70
     2
  0
STYLE
  5
71
330
70
100
AcDbSymbolTableRecord
100
AcDbTextStyleTableRecord
  2
STANDARD
 70
     0
 40
0.0
 41
1.0
 50
0.0
 71
     0
 42
2.5
  3
arial.ttf
  4

  0
STYLE
  5
72
330
70
100
AcDbSymbolTableRecord
100
AcDbTextStyleTableRecord
  2
ANNOTATIVE
 70
     0
 40
0.0
 41
1.0
 50
0.0
 71
     0
 42
2.5
  3
arial.ttf
  4

  0
ENDTAB
  0
TABLE
  2
VIEW
  5
73
330
0
100
AcDbSymbolTable
 70
     0
  0
ENDTAB
  0
TABLE
  2
UCS
  5
74
330
0
100
AcDbSymbolTable
 70
     0
  0
ENDTAB
  0
TABLE
  2
APPID
  5
75
330
0
100
AcDbSymbolTable
 70
     2
  0
APPID
  5
76
330
75
100
AcDbSymbolTableRecord
100
AcDbRegAppTableRecord
  2
ACAD
 70
     0
  0
APPID
  5
77
330
75
100
AcDbSymbolTableRecord
100
AcDbRegAppTableRecord
  2
ACADANNOTATIVE
 70
     0
  0
ENDTAB
  0
TABLE
  2
DIMSTYLE
  5
78
330
0
100
AcDbSymbolTable
 70
     2
  0
DIMSTYLE
105
79
330
78
100
AcDbSymbolTableRecord
100
AcDbDimStyleTableRecord
  2
STANDARD
 70
     0
  3

  4

  5

  6

  7

 40
0.0
 41
2.5
 42
0.625
 43
3.75
 44
1.25
 45
0.0
 46
0.0
 47
0.0
 48
0.0
140
2.5
141
2.5
142
0.0
143
0.03937007874016
144
1.0
145
0.0
146
1.0
147
0.625
 71
     0
 72
     0
 73
     0
 74
     0
 75
     0
 76
     0
 77
     1
 78
     8
170
     0
171
     3
172
     1
173
     0
174
     0
175
     0
176
     0
177
     0
178
     0
270
     2
271
     2
272
     2
273
     2
274
     3
340
71
275
     0
280
     0
281
     0
282
     0
283
     0
284
     8
285
     0
286
     0
287
     3
288
     0
  0
ENDTAB
  0
TABLE
  2
BLOCK_RECORD
  5
A01
330
0
100
AcDbSymbolTable
  70
5
  0
BLOCK_RECORD
  5
A02
330
A01
100
AcDbSymbolTableRecord
100
AcDbBlockTableRecord
  2
*MODEL_SPACE
  0
BLOCK_RECORD
  5
A03
330
A01
100
AcDbSymbolTableRecord
100
AcDbBlockTableRecord
  2
*PAPER_SPACE
  0
ENDTAB
  0
ENDSEC
  0
SECTION
  2
BLOCKS
  0
BLOCK
  5
A04
330
A02
100
AcDbEntity
  8
0
100
AcDbBlockBegin
  2
*MODEL_SPACE
 70
   0
 10
0
 20
0
 30
0
  3
*MODEL_SPACE
  1
 
  0
ENDBLK
  5
A05
330
A02
100
AcDbEntity
  8
0
100
AcDbBlockEnd
  0
BLOCK
  5
A06
330
A03
100
AcDbEntity
 67
1
  8
0
100
AcDbBlockBegin
  2
*PAPER_SPACE
 70
   0
 10
0
 20
0
 30
0
  3
*PAPER_SPACE
  1
 
  0
ENDBLK
  5
A07
330
A03
100
AcDbEntity
 67
    1
  8
0
100
AcDbBlockEnd
  0
ENDSEC
  0
SECTION
  2
ENTITIES
  0
ARC
  5
A08
330
A02
100
AcDbEntity
  8
Shape2DView
100
AcDbCircle
 10
1940.223963867
 20
-1147.240824929
 30
0.000000000
 40
916.281464470
100
AcDbArc
 50
-177.247005972
 51
-118.823924801
  0
LINE
  5
A09
330
A02
100
AcDbEntity
  8
Shape2DView
100
AcDbLine
 10
1537.036321837
 20
-1879.911564846
 30
0.000000000
 11
1498.466757961
 21
-1950.000000000
 31
0.000000000
  0
ARC
  5
A0A
330
A02
100
AcDbEntity
  8
Shape2DView
100
AcDbCircle
 10
22661.487999643
 20
-150.841835237
 30
0.000000000
 40
21661.487999643
100
AcDbArc
 50
-179.288462507
 51
-177.247005972
  0
ARC
  5
A0B
330
A02
100
AcDbEntity
  8
Shape2DView
100
AcDbCircle
 10
1940.223963867
 20
-1147.240824929
 30
0.000000000
 40
836.281464470
100
AcDbArc
 50
-154.524852438
 51
-118.823924801
  0
LINE
  5
A0C
330
A02
100
AcDbEntity
  8
Shape2DView
100
AcDbLine
 10
1142.376345065
 20
-1506.941835237
 30
0.000000000
 11
1185.252526660
 21
-1506.941835237
 31
0.000000000
  0
LINE
  5
A0D
330
A02
100
AcDbEntity
  8
Shape2DView
100
AcDbLine
 10
1142.376345065
 20
-1494.741835237
 30
0.000000000
 11
1142.376345065
 21
-1506.941835237
 31
0.000000000
  0
LINE
  5
A0E
330
A02
100
AcDbEntity
  8
Shape2DView
100
AcDbLine
 10
1142.376345065
 20
-1494.741835237
 30
0.000000000
 11
1179.559954169
 21
-1494.741835237
 31
0.000000000
  0
ARC
  5
A0F
330
A02
100
AcDbEntity
  8
Shape2DView
100
AcDbCircle
 10
1940.223963867
 20
-1147.240824929
 30
0.000000000
 40
836.281464470
100
AcDbArc
 50
-177.247005972
 51
-155.447229142
  0
ARC
  5
A10
330
A02
100
AcDbEntity
  8
Shape2DView
100
AcDbCircle
 10
22661.487999643
 20
-150.841835237
 30
0.000000000
 40
21581.487999643
100
AcDbArc
 50
-177.593726147
 51
-177.247005972
  0
LINE
  5
A11
330
A02
100
AcDbEntity
  8
Shape2DView
100
AcDbLine
 10
1058.774249312
 20
-1056.941835237
 30
0.000000000
 11
1099.029719829
 21
-1056.941835237
 31
0.000000000
  0
LINE
  5
A12
330
A02
100
AcDbEntity
  8
Shape2DView
100
AcDbLine
 10
1058.774249312
 20
-1044.741835237
 30
0.000000000
 11
1058.774249312
 21
-1056.941835237
 31
0.000000000
  0
LINE
  5
A13
330
A02
100
AcDbEntity
  8
Shape2DView
100
AcDbLine
 10
1058.774249312
 20
-1044.741835237
 30
0.000000000
 11
1098.520507465
 21
-1044.741835237
 31
0.000000000
  0
ARC
  5
A14
330
A02
100
AcDbEntity
  8
Shape2DView
100
AcDbCircle
 10
22661.487999643
 20
-150.841835237
 30
0.000000000
 40
21581.487999643
100
AcDbArc
 50
-178.267734240
 51
-177.626143612
  0
ARC
  5
A15
330
A02
100
AcDbEntity
  8
Shape2DView
100
AcDbCircle
 10
22661.487999643
 20
-150.841835237
 30
0.000000000
 40
21581.487999643
100
AcDbArc
 50
-178.789029249
 51
-178.267734240
  0
LINE
  5
A16
330
A02
100
AcDbEntity
  8
Shape2DView
100
AcDbLine
 10
1044.692030854
 20
-606.941835237
 30
0.000000000
 11
1084.820113504
 21
-606.941835237
 31
0.000000000
  0
LINE
  5
A17
330
A02
100
AcDbEntity
  8
Shape2DView
100
AcDbLine
 10
1044.692030854
 20
-594.741835237
 30
0.000000000
 11
1044.692030854
 21
-606.941835237
 31
0.000000000
  0
LINE
  5
A18
330
A02
100
AcDbEntity
  8
Shape2DView
100
AcDbLine
 10
1044.692030854
 20
-594.741835237
 30
0.000000000
 11
1084.565673492
 21
-594.741835237
 31
0.000000000
  0
ARC
  5
A19
330
A02
100
AcDbEntity
  8
Shape2DView
100
AcDbCircle
 10
22661.487999643
 20
-150.841835237
 30
0.000000000
 40
21581.487999643
100
AcDbArc
 50
-179.288462507
 51
-178.821425556
  0
LINE
  5
A1A
330
A02
100
AcDbEntity
  8
Shape2DView
100
AcDbLine
 10
1001.670332851
 20
-419.841835237
 30
0.000000000
 11
1081.664163994
 21
-418.848367013
 31
0.000000000
  0
ARC
  5
A1B
330
A02
100
AcDbEntity
  8
Shape2DView001
100
AcDbCircle
 10
80293.032367709
 20
-373.843322434
 30
0.000000000
 40
79293.032367709
100
AcDbArc
 50
178.982625545
 51
179.996387086
  0
LINE
  5
A1C
330
A02
100
AcDbEntity
  8
Shape2DView001
100
AcDbLine
 10
1080.000157484
 20
-368.848367013
 30
0.000000000
 11
1000.000157643
 21
-368.843322434
 31
0.000000000
  0
ARC
  5
A1D
330
A02
100
AcDbEntity
  8
Shape2DView001
100
AcDbCircle
 10
1413.339369317
 20
1026.933847729
 30
0.000000000
 40
400.902568843
100
AcDbArc
 50
84.753243994
 51
178.982625545
  0
ARC
  5
A1E
330
A02
100
AcDbEntity
  8
Shape2DView001
100
AcDbCircle
 10
80293.032367709
 20
-373.843322434
 30
0.000000000
 40
79213.032367709
100
AcDbArc
 50
179.678919884
 51
179.996387086
  0
LINE
  5
A1F
330
A02
100
AcDbEntity
  8
Shape2DView001
100
AcDbLine
 10
1041.278209076
 20
70.056677566
 30
0.000000000
 11
1081.243790012
 21
70.056677566
 31
0.000000000
  0
LINE
  5
A20
330
A02
100
AcDbEntity
  8
Shape2DView001
100
AcDbLine
 10
1041.278209076
 20
82.256677566
 30
0.000000000
 11
1041.278209076
 21
70.056677566
 31
0.000000000
  0
LINE
  5
A21
330
A02
100
AcDbEntity
  8
Shape2DView001
100
AcDbLine
 10
1041.278209076
 20
82.256677566
 30
0.000000000
 11
1081.313097908
 21
82.256677566
 31
0.000000000
  0
ARC
  5
A22
330
A02
100
AcDbEntity
  8
Shape2DView001
100
AcDbCircle
 10
80293.032367709
 20
-373.843322434
 30
0.000000000
 40
79213.032367709
100
AcDbArc
 50
179.353417198
 51
179.670095328
  0
LINE
  5
A23
330
A02
100
AcDbEntity
  8
Shape2DView001
100
AcDbLine
 10
1045.112960066
 20
520.056677566
 30
0.000000000
 11
1085.043883733
 21
520.056677566
 31
0.000000000
  0
LINE
  5
A24
330
A02
100
AcDbEntity
  8
Shape2DView001
100
AcDbLine
 10
1045.112960066
 20
532.256677566
 30
0.000000000
 11
1045.112960066
 21
520.056677566
 31
0.000000000
  0
LINE
  5
A25
330
A02
100
AcDbEntity
  8
Shape2DView001
100
AcDbLine
 10
1045.112960066
 20
532.256677566
 30
0.000000000
 11
1085.182506236
 21
532.256677566
 31
0.000000000
  0
ARC
  5
A26
330
A02
100
AcDbEntity
  8
Shape2DView001
100
AcDbCircle
 10
80293.032367709
 20
-373.843322434
 30
0.000000000
 40
79213.032367709
100
AcDbArc
 50
179.027893642
 51
179.344592216
  0
LINE
  5
A27
330
A02
100
AcDbEntity
  8
Shape2DView001
100
AcDbLine
 10
1051.504624314
 20
970.056677566
 30
0.000000000
 11
1091.400884022
 21
970.056677566
 31
0.000000000
  0
LINE
  5
A28
330
A02
100
AcDbEntity
  8
Shape2DView001
100
AcDbLine
 10
1051.504624314
 20
982.256677566
 30
0.000000000
 11
1051.504624314
 21
970.056677566
 31
0.000000000
  0
LINE
  5
A29
330
A02
100
AcDbEntity
  8
Shape2DView001
100
AcDbLine
 10
1051.504624314
 20
982.256677566
 30
0.000000000
 11
1091.608834557
 21
982.256677566
 31
0.000000000
  0
ARC
  5
A2A
330
A02
100
AcDbEntity
  8
Shape2DView001
100
AcDbCircle
 10
80293.032367709
 20
-373.843322434
 30
0.000000000
 40
79213.032367709
100
AcDbArc
 50
178.982625545
 51
179.019067947
  0
ARC
  5
A2B
330
A02
100
AcDbEntity
  8
Shape2DView001
100
AcDbCircle
 10
1413.339369317
 20
1026.933847729
 30
0.000000000
 40
320.902568843
100
AcDbArc
 50
131.867934770
 51
178.982625545
  0
ARC
  5
A2C
330
A02
100
AcDbEntity
  8
Shape2DView001
100
AcDbCircle
 10
1413.339369317
 20
1026.933847729
 30
0.000000000
 40
320.902568843
100
AcDbArc
 50
84.753243994
 51
131.867934770
  0
LINE
  5
A2D
330
A02
100
AcDbEntity
  8
Shape2DView001
100
AcDbLine
 10
1450.000000000
 20
1426.156677566
 30
0.000000000
 11
1442.684380988
 21
1346.491869034
 31
0.000000000
  0
LINE
  5
A2E
330
A02
100
AcDbEntity
  8
Shape2DView002
100
AcDbLine
 10
1000.000000000
 20
2783.328409419
 30
0.000000000
 11
1230.000000000
 21
2783.328409419
 31
0.000000000
  0
LINE
  5
A2F
330
A02
100
AcDbEntity
  8
Shape2DView002
100
AcDbLine
 10
1230.000000000
 20
2783.328409419
 30
0.000000000
 11
1230.000000000
 21
3057.328409419
 31
0.000000000
  0
LINE
  5
A30
330
A02
100
AcDbEntity
  8
Shape2DView002
100
AcDbLine
 10
1000.000000000
 20
3057.328409419
 30
0.000000000
 11
1230.000000000
 21
3057.328409419
 31
0.000000000
  0
LINE
  5
A31
330
A02
100
AcDbEntity
  8
Shape2DView002
100
AcDbLine
 10
1000.000000000
 20
2783.328409419
 30
0.000000000
 11
1000.000000000
 21
3057.328409419
 31
0.000000000
  0
LINE
  5
A32
330
A02
100
AcDbEntity
  8
Shape2DView003
100
AcDbLine
 10
1301.213097880
 20
1685.469177846
 30
0.000000000
 11
1321.691898987
 21
1671.129766937
 31
0.000000000
  0
LINE
  5
A33
330
A02
100
AcDbEntity
  8
Shape2DView003
100
AcDbLine
 10
1301.213097880
 20
1685.469177846
 30
0.000000000
 11
1311.809280911
 21
1700.602095521
 31
0.000000000
  0
LINE
  5
A34
330
A02
100
AcDbEntity
  8
Shape2DView003
100
AcDbLine
 10
1321.691898987
 20
1671.129766937
 30
0.000000000
 11
1331.868397459
 21
1685.663312945
 31
0.000000000
  0
ARC
  5
A35
330
A02
100
AcDbEntity
  8
Shape2DView003
100
AcDbCircle
 10
1402.558712216
 20
1727.823005588
 30
0.000000000
 40
82.307717040
100
AcDbArc
 50
-149.188156297
 51
-109.040907980
  0
LINE
  5
A36
330
A02
100
AcDbEntity
  8
Shape2DView003
100
AcDbLine
 10
1362.812829814
 20
1638.409274768
 30
0.000000000
 11
1375.706383193
 21
1650.018682377
 31
0.000000000
  0
LINE
  5
A37
330
A02
100
AcDbEntity
  8
Shape2DView003
100
AcDbLine
 10
1362.812829814
 20
1638.409274768
 30
0.000000000
 11
1379.541094973
 21
1619.830654131
 31
0.000000000
  0
LINE
  5
A38
330
A02
100
AcDbEntity
  8
Shape2DView003
100
AcDbLine
 10
1379.541094973
 20
1619.830654131
 30
0.000000000
 11
1394.532688264
 21
1633.329145361
 31
0.000000000
  0
ARC
  5
A39
330
A02
100
AcDbEntity
  8
Shape2DView003
100
AcDbCircle
 10
1449.341871220
 20
1656.120402968
 30
0.000000000
 40
59.358975393
100
AcDbArc
 50
-157.421033363
 51
-110.050733409
  0
LINE
  5
A3A
330
A02
100
AcDbEntity
  8
Shape2DView003
100
AcDbLine
 10
1414.827257020
 20
1591.849061360
 30
0.000000000
 11
1428.990523391
 21
1600.359210359
 31
0.000000000
  0
LINE
  5
A3B
330
A02
100
AcDbEntity
  8
Shape2DView003
100
AcDbLine
 10
1414.827257020
 20
1591.849061360
 30
0.000000000
 11
1427.703208893
 21
1570.419878842
 31
0.000000000
  0
LINE
  5
A3C
330
A02
100
AcDbEntity
  8
Shape2DView003
100
AcDbLine
 10
1427.703208893
 20
1570.419878842
 30
0.000000000
 11
1446.841431380
 21
1581.919283053
 31
0.000000000
  0
ARC
  5
A3D
330
A02
100
AcDbEntity
  8
Shape2DView003
100
AcDbCircle
 10
1503.554141927
 20
1600.630418170
 30
0.000000000
 40
59.719662717
100
AcDbArc
 50
-161.740808485
 51
-114.515841801
  0
LINE
  5
A3E
330
A02
100
AcDbEntity
  8
Shape2DView003
100
AcDbLine
 10
1463.983641203
 20
1540.911518273
 30
0.000000000
 11
1478.773777026
 21
1546.294687473
 31
0.000000000
  0
LINE
  5
A3F
330
A02
100
AcDbEntity
  8
Shape2DView003
100
AcDbLine
 10
1463.983641203
 20
1540.911518273
 30
0.000000000
 11
1472.534144787
 21
1517.419202753
 31
0.000000000
  0
LINE
  5
A40
330
A02
100
AcDbEntity
  8
Shape2DView003
100
AcDbLine
 10
1472.534144787
 20
1517.419202753
 30
0.000000000
 11
1495.711189983
 21
1525.854957323
 31
0.000000000
  0
ARC
  5
A41
330
A02
100
AcDbEntity
  8
Shape2DView003
100
AcDbCircle
 10
1924.131375702
 20
1662.200390114
 30
0.000000000
 40
449.593074428
100
AcDbArc
 50
-162.346242395
 51
-145.240334340
  0
LWPOLYLINE
  5
A42
330
A02
100
AcDbEntity
100
AcDbPolyline
  8
Shape2DView003
 90
2.000000000
 70
0
 43
0
 10
1554.858147971
 20
1405.162516105
 10
1554.767839592
 20
1405.871478818
  0
LWPOLYLINE
  5
A43
330
A02
100
AcDbEntity
100
AcDbPolyline
  8
Shape2DView003
 90
5.000000000
 70
0
 43
0
 10
1538.475727233
 20
1405.162516105
 10
1543.475727233
 20
1405.162516105
 10
1548.475727233
 20
1405.162516105
 10
1553.475727233
 20
1405.162516105
 10
1554.858147971
 20
1405.162516105
  0
LWPOLYLINE
  5
A44
330
A02
100
AcDbEntity
100
AcDbPolyline
  8
Shape2DView003
 90
6.000000000
 70
0
 43
0
 10
1538.475727233
 20
1405.162516105
 10
1538.475727233
 20
1400.162516105
 10
1538.475727233
 20
1395.162516105
 10
1538.475727233
 20
1390.162516105
 10
1538.475727233
 20
1385.162516105
 10
1538.475727233
 20
1380.851250409
  0
LINE
  5
A45
330
A02
100
AcDbEntity
  8
Shape2DView003
100
AcDbLine
 10
1500.975727233
 20
1380.851250409
 30
0.000000000
 11
1538.475727233
 21
1380.851250409
 31
0.000000000
  0
LWPOLYLINE
  5
A46
330
A02
100
AcDbEntity
100
AcDbPolyline
  8
Shape2DView003
 90
6.000000000
 70
0
 43
0
 10
1500.975727233
 20
1405.162516105
 10
1500.975727233
 20
1400.162516105
 10
1500.975727233
 20
1395.162516105
 10
1500.975727233
 20
1390.162516105
 10
1500.975727233
 20
1385.162516105
 10
1500.975727233
 20
1380.851250409
  0
LWPOLYLINE
  5
A47
330
A02
100
AcDbEntity
100
AcDbPolyline
  8
Shape2DView003
 90
3.000000000
 70
0
 43
0
 10
1500.975727233
 20
1405.162516105
 10
1495.975727233
 20
1405.162516105
 10
1494.174263241
 20
1405.162516105
  0
LWPOLYLINE
  5
A48
330
A02
100
AcDbEntity
100
AcDbPolyline
  8
Shape2DView003
 90
14.000000000
 70
0
 43
0
 10
1469.480199482
 20
1461.780667191
 10
1472.392105304
 20
1457.716413844
 10
1475.153466717
 20
1453.548652045
 10
1477.760644648
 20
1449.282900473
 10
1480.210200443
 20
1444.924804443
 10
1482.498900214
 20
1440.480128690
 10
1484.623718798
 20
1435.954749936
 10
1486.581843883
 20
1431.354649533
 10
1488.370679392
 20
1426.685905733
 10
1489.972542689
 20
1421.949740771
 10
1491.398371972
 20
1417.157814740
 10
1492.648160588
 20
1412.317137203
 10
1493.720264707
 20
1407.434109192
 10
1494.174263241
 20
1405.162516105
  0
ARC
  5
A49
330
A02
100
AcDbEntity
  8
Shape2DView003
100
AcDbCircle
 10
1517.542367665
 20
1497.697626828
 30
0.000000000
 40
60.000000000
100
AcDbArc
 50
-143.278130715
 51
-143.229160313
  0
LWPOLYLINE
  5
A4A
330
A02
100
AcDbEntity
100
AcDbPolyline
  8
Shape2DView003
 90
33.000000000
 70
0
 43
0
 10
1366.138198033
 20
1577.839599430
 10
1369.752578990
 20
1574.384711545
 10
1373.366959947
 20
1570.929823660
 10
1376.947869219
 20
1567.440349825
 10
1380.519225588
 20
1563.941005075
 10
1384.066359317
 20
1560.417243248
 10
1387.594144484
 20
1556.873977549
 10
1391.107201043
 20
1553.316227931
 10
1394.590875068
 20
1549.729583917
 10
1398.069555068
 20
1546.138148938
 10
1401.508584770
 20
1542.508675876
 10
1404.947614471
 20
1538.879202813
 10
1408.346450105
 20
1535.212113897
 10
1411.740309139
 20
1531.540367602
 10
1415.103656765
 20
1527.840767130
 10
1418.451825708
 20
1524.127309883
 10
1421.779399710
 20
1520.395513306
 10
1425.081366136
 20
1516.640913764
 10
1428.372883249
 20
1512.877238644
 10
1431.628141810
 20
1509.082071757
 10
1434.883321136
 20
1505.286837753
 10
1438.091373636
 20
1501.451684672
 10
1441.299426137
 20
1497.616531592
 10
1444.470292123
 20
1493.750661525
 10
1447.630647599
 20
1489.876109517
 10
1450.764137463
 20
1485.979919435
 10
1453.876312255
 20
1482.066561789
 10
1456.972159621
 20
1478.140383525
 10
1460.035677449
 20
1474.188819464
 10
1463.093618413
 20
1470.232986820
 10
1466.108010448
 20
1466.243821411
 10
1469.122402482
 20
1462.254656002
 10
1469.449519004
 20
1461.821758788
  0
LWPOLYLINE
  5
A4B
330
A02
100
AcDbEntity
100
AcDbPolyline
  8
Shape2DView003
 90
5.000000000
 70
0
 43
0
 10
1353.318472433
 20
1589.708986583
 10
1357.010872996
 20
1586.337619305
 10
1360.684442802
 20
1582.945743157
 10
1364.339067974
 20
1579.533463354
 10
1366.138198033
 20
1577.839599430
  0
LINE
  5
A4C
330
A02
100
AcDbEntity
  8
Shape2DView003
100
AcDbLine
 10
1253.645050091
 20
1685.469177846
 30
0.000000000
 11
1233.166248984
 21
1671.129766937
 31
0.000000000
  0
LINE
  5
A4D
330
A02
100
AcDbEntity
  8
Shape2DView003
100
AcDbLine
 10
1233.166248984
 20
1671.129766937
 30
0.000000000
 11
1222.989750512
 21
1685.663312945
 31
0.000000000
  0
ARC
  5
A4E
330
A02
100
AcDbEntity
  8
Shape2DView003
100
AcDbCircle
 10
1152.299435755
 20
1727.823005588
 30
0.000000000
 40
82.307717040
100
AcDbArc
 50
-70.959092020
 51
-30.811843703
  0
LINE
  5
A4F
330
A02
100
AcDbEntity
  8
Shape2DView003
100
AcDbLine
 10
1192.045318157
 20
1638.409274768
 30
0.000000000
 11
1179.151764777
 21
1650.018682377
 31
0.000000000
  0
LINE
  5
A50
330
A02
100
AcDbEntity
  8
Shape2DView003
100
AcDbLine
 10
1192.045318157
 20
1638.409274768
 30
0.000000000
 11
1175.317052998
 21
1619.830654131
 31
0.000000000
  0
LINE
  5
A51
330
A02
100
AcDbEntity
  8
Shape2DView003
100
AcDbLine
 10
1175.317052998
 20
1619.830654131
 30
0.000000000
 11
1160.325459707
 21
1633.329145361
 31
0.000000000
  0
ARC
  5
A52
330
A02
100
AcDbEntity
  8
Shape2DView003
100
AcDbCircle
 10
1105.516276751
 20
1656.120402968
 30
0.000000000
 40
59.358975393
100
AcDbArc
 50
-69.949266591
 51
-22.578966637
  0
LINE
  5
A53
330
A02
100
AcDbEntity
  8
Shape2DView003
100
AcDbLine
 10
1140.030890950
 20
1591.849061360
 30
0.000000000
 11
1125.867624580
 21
1600.359210359
 31
0.000000000
  0
LINE
  5
A54
330
A02
100
AcDbEntity
  8
Shape2DView003
100
AcDbLine
 10
1140.030890950
 20
1591.849061360
 30
0.000000000
 11
1127.154939078
 21
1570.419878842
 31
0.000000000
  0
LINE
  5
A55
330
A02
100
AcDbEntity
  8
Shape2DView003
100
AcDbLine
 10
1127.154939078
 20
1570.419878842
 30
0.000000000
 11
1108.016716591
 21
1581.919283053
 31
0.000000000
  0
ARC
  5
A56
330
A02
100
AcDbEntity
  8
Shape2DView003
100
AcDbCircle
 10
1051.304006043
 20
1600.630418170
 30
0.000000000
 40
59.719662717
100
AcDbArc
 50
-65.484158199
 51
-18.259191515
  0
LINE
  5
A57
330
A02
100
AcDbEntity
  8
Shape2DView003
100
AcDbLine
 10
1090.874506767
 20
1540.911518273
 30
0.000000000
 11
1076.084370945
 21
1546.294687473
 31
0.000000000
  0
LINE
  5
A58
330
A02
100
AcDbEntity
  8
Shape2DView003
100
AcDbLine
 10
1090.874506767
 20
1540.911518273
 30
0.000000000
 11
1082.324003184
 21
1517.419202753
 31
0.000000000
  0
LINE
  5
A59
330
A02
100
AcDbEntity
  8
Shape2DView003
100
AcDbLine
 10
1082.324003184
 20
1517.419202753
 30
0.000000000
 11
1059.146957988
 21
1525.854957323
 31
0.000000000
  0
ARC
  5
A5A
330
A02
100
AcDbEntity
  8
Shape2DView003
100
AcDbCircle
 10
630.726772269
 20
1662.200390114
 30
0.000000000
 40
449.593074428
100
AcDbArc
 50
-34.759665660
 51
-17.653757605
  0
LWPOLYLINE
  5
A5B
330
A02
100
AcDbEntity
100
AcDbPolyline
  8
Shape2DView003
 90
2.000000000
 70
0
 43
0
 10
1000.000000000
 20
1405.162516105
 10
1000.090308379
 20
1405.871478818
  0
LWPOLYLINE
  5
A5C
330
A02
100
AcDbEntity
100
AcDbPolyline
  8
Shape2DView003
 90
5.000000000
 70
0
 43
0
 10
1016.382420738
 20
1405.162516105
 10
1011.382420738
 20
1405.162516105
 10
1006.382420738
 20
1405.162516105
 10
1001.382420738
 20
1405.162516105
 10
1000.000000000
 20
1405.162516105
  0
LWPOLYLINE
  5
A5D
330
A02
100
AcDbEntity
100
AcDbPolyline
  8
Shape2DView003
 90
6.000000000
 70
0
 43
0
 10
1016.382420738
 20
1405.162516105
 10
1016.382420738
 20
1400.162516105
 10
1016.382420738
 20
1395.162516105
 10
1016.382420738
 20
1390.162516105
 10
1016.382420738
 20
1385.162516105
 10
1016.382420738
 20
1380.851250409
  0
LINE
  5
A5E
330
A02
100
AcDbEntity
  8
Shape2DView003
100
AcDbLine
 10
1053.882420738
 20
1380.851250409
 30
0.000000000
 11
1016.382420738
 21
1380.851250409
 31
0.000000000
  0
LWPOLYLINE
  5
A5F
330
A02
100
AcDbEntity
100
AcDbPolyline
  8
Shape2DView003
 90
6.000000000
 70
0
 43
0
 10
1053.882420738
 20
1405.162516105
 10
1053.882420738
 20
1400.162516105
 10
1053.882420738
 20
1395.162516105
 10
1053.882420738
 20
1390.162516105
 10
1053.882420738
 20
1385.162516105
 10
1053.882420738
 20
1380.851250409
  0
LWPOLYLINE
  5
A60
330
A02
100
AcDbEntity
100
AcDbPolyline
  8
Shape2DView003
 90
3.000000000
 70
0
 43
0
 10
1053.882420738
 20
1405.162516105
 10
1058.882420738
 20
1405.162516105
 10
1060.683884730
 20
1405.162516105
  0
LWPOLYLINE
  5
A61
330
A02
100
AcDbEntity
100
AcDbPolyline
  8
Shape2DView003
 90
14.000000000
 70
0
 43
0
 10
1085.377948489
 20
1461.780667191
 10
1082.466042667
 20
1457.716413844
 10
1079.704681254
 20
1453.548652045
 10
1077.097503323
 20
1449.282900473
 10
1074.647947528
 20
1444.924804443
 10
1072.359247757
 20
1440.480128690
 10
1070.234429173
 20
1435.954749936
 10
1068.276304087
 20
1431.354649533
 10
1066.487468579
 20
1426.685905733
 10
1064.885605281
 20
1421.949740771
 10
1063.459775999
 20
1417.157814740
 10
1062.209987383
 20
1412.317137203
 10
1061.137883264
 20
1407.434109192
 10
1060.683884730
 20
1405.162516105
  0
ARC
  5
A62
330
A02
100
AcDbEntity
  8
Shape2DView003
100
AcDbCircle
 10
1037.315780306
 20
1497.697626828
 30
0.000000000
 40
60.000000000
100
AcDbArc
 50
-36.770839687
 51
-36.721869285
  0
LWPOLYLINE
  5
A63
330
A02
100
AcDbEntity
100
AcDbPolyline
  8
Shape2DView003
 90
33.000000000
 70
0
 43
0
 10
1188.719949937
 20
1577.839599430
 10
1185.105568980
 20
1574.384711545
 10
1181.491188023
 20
1570.929823660
 10
1177.910278752
 20
1567.440349825
 10
1174.338922383
 20
1563.941005075
 10
1170.791788654
 20
1560.417243248
 10
1167.264003487
 20
1556.873977549
 10
1163.750946928
 20
1553.316227931
 10
1160.267272902
 20
1549.729583917
 10
1156.788592902
 20
1546.138148938
 10
1153.349563201
 20
1542.508675876
 10
1149.910533499
 20
1538.879202813
 10
1146.511697866
 20
1535.212113897
 10
1143.117838832
 20
1531.540367602
 10
1139.754491205
 20
1527.840767130
 10
1136.406322262
 20
1524.127309883
 10
1133.078748261
 20
1520.395513306
 10
1129.776781835
 20
1516.640913764
 10
1126.485264721
 20
1512.877238644
 10
1123.230006161
 20
1509.082071757
 10
1119.974826835
 20
1505.286837753
 10
1116.766774334
 20
1501.451684672
 10
1113.558721834
 20
1497.616531592
 10
1110.387855848
 20
1493.750661525
 10
1107.227500372
 20
1489.876109517
 10
1104.094010508
 20
1485.979919435
 10
1100.981835716
 20
1482.066561789
 10
1097.885988350
 20
1478.140383525
 10
1094.822470522
 20
1474.188819464
 10
1091.764529558
 20
1470.232986820
 10
1088.750137523
 20
1466.243821411
 10
1085.735745489
 20
1462.254656002
 10
1085.408628967
 20
1461.821758788
  0
LWPOLYLINE
  5
A64
330
A02
100
AcDbEntity
100
AcDbPolyline
  8
Shape2DView003
 90
5.000000000
 70
0
 43
0
 10
1201.539675538
 20
1589.708986583
 10
1197.847274975
 20
1586.337619305
 10
1194.173705169
 20
1582.945743157
 10
1190.519079997
 20
1579.533463354
 10
1188.719949937
 20
1577.839599430
  0
LINE
  5
A65
330
A02
100
AcDbEntity
  8
Shape2DView003
100
AcDbLine
 10
1253.645050091
 20
1685.469177846
 30
0.000000000
 11
1243.048867060
 21
1700.602095521
 31
0.000000000
  0
LINE
  5
A66
330
A02
100
AcDbEntity
  8
Shape2DView003
100
AcDbLine
 10
1271.429073985
 20
1677.332641519
 30
0.000000000
 11
1271.429073985
 21
1715.797361714
 31
0.000000000
  0
LINE
  5
A67
330
A02
100
AcDbEntity
  8
Shape2DView003
100
AcDbLine
 10
1283.429073985
 20
1677.332641519
 30
0.000000000
 11
1283.429073985
 21
1715.797361714
 31
0.000000000
  0
ARC
  5
A68
330
A02
100
AcDbEntity
  8
Shape2DView003
100
AcDbCircle
 10
1318.057493500
 20
1746.372382612
 30
0.000000000
 40
46.194797770
100
AcDbArc
 50
-131.531175008
 51
-97.773534822
  0
ARC
  5
A69
330
A02
100
AcDbEntity
  8
Shape2DView003
100
AcDbCircle
 10
1318.057493500
 20
1746.372382612
 30
0.000000000
 40
46.194797770
100
AcDbArc
 50
-138.557237985
 51
-131.531175008
  0
LINE
  5
A6A
330
A02
100
AcDbEntity
  8
Shape2DView003
100
AcDbLine
 10
1271.429073985
 20
1677.332641519
 30
0.000000000
 11
1283.429073985
 21
1677.332641519
 31
0.000000000
  0
ARC
  5
A6B
330
A02
100
AcDbEntity
  8
Shape2DView003
100
AcDbCircle
 10
1236.800654471
 20
1746.372382612
 30
0.000000000
 40
46.194797770
100
AcDbArc
 50
-48.468824992
 51
-41.442762015
  0
ARC
  5
A6C
330
A02
100
AcDbEntity
  8
Shape2DView003
100
AcDbCircle
 10
1236.800654471
 20
1746.372382612
 30
0.000000000
 40
46.194797770
100
AcDbArc
 50
-82.226465178
 51
-48.468824992
  0
LINE
  5
A6D
330
A02
100
AcDbEntity
  8
Shape2DView003
100
AcDbLine
 10
1353.318472433
 20
1589.708986583
 30
0.000000000
 11
1201.539675538
 21
1589.708986583
 31
0.000000000
  0
ARC
  5
A6E
330
A02
100
AcDbEntity
  8
Shape2DView003
100
AcDbCircle
 10
1318.057493500
 20
1746.372382612
 30
0.000000000
 40
46.194797770
100
AcDbArc
 50
-151.582354698
 51
-148.526048858
  0
ARC
  5
A6F
330
A02
100
AcDbEntity
  8
Shape2DView003
100
AcDbCircle
 10
1236.800654471
 20
1746.372382612
 30
0.000000000
 40
46.194797770
100
AcDbArc
 50
-31.473951142
 51
-28.417645302
  0
LINE
  5
A70
330
A02
100
AcDbEntity
  8
Shape2DView003
100
AcDbLine
 10
1278.658984132
 20
1722.253576660
 30
0.000000000
 11
1276.199163839
 21
1722.253576660
 31
0.000000000
  0
LINE
  5
A71
330
A02
100
AcDbEntity
  8
Shape2DView004
100
AcDbLine
 10
1538.440363104
 20
2191.025254232
 30
0.000000000
 11
1545.405829971
 21
2200.972971854
 31
0.000000000
  0
LINE
  5
A72
330
A02
100
AcDbEntity
  8
Shape2DView004
100
AcDbLine
 10
1538.440363104
 20
2191.025254232
 30
0.000000000
 11
1558.919164211
 21
2176.685843323
 31
0.000000000
  0
LINE
  5
A73
330
A02
100
AcDbEntity
  8
Shape2DView004
100
AcDbLine
 10
1641.342305534
 20
2151.333589946
 30
0.000000000
 11
1649.704856035
 21
2158.863264238
 31
0.000000000
  0
LINE
  5
A74
330
A02
100
AcDbEntity
  8
Shape2DView004
100
AcDbLine
 10
1641.342305534
 20
2151.333589946
 30
0.000000000
 11
1658.070570693
 21
2132.754969309
 31
0.000000000
  0
LINE
  5
A75
330
A02
100
AcDbEntity
  8
Shape2DView004
100
AcDbLine
 10
1658.070570693
 20
2132.754969309
 30
0.000000000
 11
1673.880256972
 21
2146.990074774
 31
0.000000000
  0
ARC
  5
A76
330
A02
100
AcDbEntity
  8
Shape2DView004
100
AcDbCircle
 10
1790.987510147
 20
2271.183564956
 30
0.000000000
 40
170.698950641
100
AcDbArc
 50
-133.317888243
 51
-105.514160302
  0
LINE
  5
A77
330
A02
100
AcDbEntity
  8
Shape2DView004
100
AcDbLine
 10
1736.062499596
 20
2101.135932230
 30
0.000000000
 11
1745.329548300
 21
2106.704136850
 31
0.000000000
  0
LINE
  5
A78
330
A02
100
AcDbEntity
  8
Shape2DView004
100
AcDbLine
 10
1736.062499596
 20
2101.135932230
 30
0.000000000
 11
1748.938451469
 21
2079.706749712
 31
0.000000000
  0
LINE
  5
A79
330
A02
100
AcDbEntity
  8
Shape2DView004
100
AcDbLine
 10
1748.938451469
 20
2079.706749712
 30
0.000000000
 11
1768.794757589
 21
2091.637622099
 31
0.000000000
  0
ARC
  5
A7A
330
A02
100
AcDbEntity
  8
Shape2DView004
100
AcDbCircle
 10
1924.266974225
 20
2210.587882700
 30
0.000000000
 40
195.756927446
100
AcDbArc
 50
-142.580753395
 51
-116.625647268
  0
LINE
  5
A7B
330
A02
100
AcDbEntity
  8
Shape2DView004
100
AcDbLine
 10
1824.719451955
 20
2031.289127535
 30
0.000000000
 11
1836.536688104
 21
2035.590249744
 31
0.000000000
  0
LINE
  5
A7C
330
A02
100
AcDbEntity
  8
Shape2DView004
100
AcDbLine
 10
1824.719451955
 20
2031.289127535
 30
0.000000000
 11
1833.269955538
 21
2007.796812015
 31
0.000000000
  0
LINE
  5
A7D
330
A02
100
AcDbEntity
  8
Shape2DView004
100
AcDbLine
 10
1833.269955538
 20
2007.796812015
 30
0.000000000
 11
1853.784617077
 21
2015.263538181
 31
0.000000000
  0
ARC
  5
A7E
330
A02
100
AcDbEntity
  8
Shape2DView004
100
AcDbCircle
 10
2413.940359280
 20
2182.771970974
 30
0.000000000
 40
584.665315013
100
AcDbArc
 50
-163.351282161
 51
-148.354124644
  0
LWPOLYLINE
  5
A7F
330
A02
100
AcDbEntity
100
AcDbPolyline
  8
Shape2DView004
 90
2.000000000
 70
0
 43
0
 10
1916.301670428
 20
1875.516888915
 10
1916.210614827
 20
1876.016967647
  0
LWPOLYLINE
  5
A80
330
A02
100
AcDbEntity
100
AcDbPolyline
  8
Shape2DView004
 90
4.000000000
 70
0
 43
0
 10
1903.060324561
 20
1875.516888915
 10
1908.060324561
 20
1875.516888915
 10
1913.060324561
 20
1875.516888915
 10
1916.301670428
 20
1875.516888915
  0
LWPOLYLINE
  5
A81
330
A02
100
AcDbEntity
100
AcDbPolyline
  8
Shape2DView004
 90
6.000000000
 70
0
 43
0
 10
1903.060324561
 20
1875.516888915
 10
1903.060324561
 20
1870.516888915
 10
1903.060324561
 20
1865.516888915
 10
1903.060324561
 20
1860.516888915
 10
1903.060324561
 20
1855.516888915
 10
1903.060324561
 20
1850.980713949
  0
LWPOLYLINE
  5
A82
330
A02
100
AcDbEntity
100
AcDbPolyline
  8
Shape2DView004
 90
9.000000000
 70
0
 43
0
 10
1865.560324561
 20
1850.980713949
 10
1870.560324561
 20
1850.980713949
 10
1875.560324561
 20
1850.980713949
 10
1880.560324561
 20
1850.980713949
 10
1885.560324561
 20
1850.980713949
 10
1890.560324561
 20
1850.980713949
 10
1895.560324561
 20
1850.980713949
 10
1900.560324561
 20
1850.980713949
 10
1903.060324561
 20
1850.980713949
  0
LWPOLYLINE
  5
A83
330
A02
100
AcDbEntity
100
AcDbPolyline
  8
Shape2DView004
 90
6.000000000
 70
0
 43
0
 10
1865.560324561
 20
1875.516888915
 10
1865.560324561
 20
1870.516888915
 10
1865.560324561
 20
1865.516888915
 10
1865.560324561
 20
1860.516888915
 10
1865.560324561
 20
1855.516888915
 10
1865.560324561
 20
1850.980713949
  0
LWPOLYLINE
  5
A84
330
A02
100
AcDbEntity
100
AcDbPolyline
  8
Shape2DView004
 90
4.000000000
 70
0
 43
0
 10
1865.560324561
 20
1875.516888915
 10
1860.560324561
 20
1875.516888915
 10
1855.560324561
 20
1875.516888915
 10
1855.091160621
 20
1875.516888915
  0
LWPOLYLINE
  5
A85
330
A02
100
AcDbEntity
100
AcDbPolyline
  8
Shape2DView004
 90
34.000000000
 70
0
 43
0
 10
1772.212183951
 20
2014.566840069
 10
1775.905775464
 20
2011.196768595
 10
1779.599366977
 20
2007.826697122
 10
1783.191763181
 20
2004.350627259
 10
1786.729369262
 20
2000.817166744
 10
1790.218425103
 20
1997.237246957
 10
1793.592828487
 20
1993.547612585
 10
1796.967231872
 20
1989.857978213
 10
1800.180698765
 20
1986.027699723
 10
1803.385015593
 20
1982.189424894
 10
1806.484257544
 20
1978.267384144
 10
1809.511951942
 20
1974.288305528
 10
1812.495112634
 20
1970.276902912
 10
1815.340009156
 20
1966.165143705
 10
1818.184905679
 20
1962.053384498
 10
1820.861510739
 20
1957.830721449
 10
1823.517806791
 20
1953.594674791
 10
1826.069138122
 20
1949.296065681
 10
1828.531416409
 20
1944.944378004
 10
1830.955939396
 20
1940.572439408
 10
1833.219178362
 20
1936.113992439
 10
1835.482417329
 20
1931.655545469
 10
1837.574920414
 20
1927.115224123
 10
1839.634504491
 20
1922.559116856
 10
1841.592859131
 20
1917.959975323
 10
1843.444588693
 20
1913.315505748
 10
1845.267603803
 20
1908.660332945
 10
1846.907703083
 20
1903.936978803
 10
1848.547802363
 20
1899.213624661
 10
1850.019290519
 20
1894.435958483
 10
1851.444415256
 20
1889.643357991
 10
1852.775203363
 20
1884.825009709
 10
1853.982448239
 20
1879.972942128
 10
1855.091160621
 20
1875.516888915
  0
LINE
  5
A86
330
A02
100
AcDbEntity
  8
Shape2DView004
100
AcDbLine
 10
1274.959364894
 20
2151.333589946
 30
0.000000000
 11
1266.596814393
 21
2158.863264238
 31
0.000000000
  0
LINE
  5
A87
330
A02
100
AcDbEntity
  8
Shape2DView004
100
AcDbLine
 10
1274.959364894
 20
2151.333589946
 30
0.000000000
 11
1258.231099735
 21
2132.754969309
 31
0.000000000
  0
LINE
  5
A88
330
A02
100
AcDbEntity
  8
Shape2DView004
100
AcDbLine
 10
1258.231099735
 20
2132.754969309
 30
0.000000000
 11
1242.421413456
 21
2146.990074774
 31
0.000000000
  0
ARC
  5
A89
330
A02
100
AcDbEntity
  8
Shape2DView004
100
AcDbCircle
 10
1125.314160281
 20
2271.183564956
 30
0.000000000
 40
170.698950641
100
AcDbArc
 50
-74.485839698
 51
-46.682111757
  0
LINE
  5
A8A
330
A02
100
AcDbEntity
  8
Shape2DView004
100
AcDbLine
 10
1180.239170832
 20
2101.135932230
 30
0.000000000
 11
1170.972122128
 21
2106.704136850
 31
0.000000000
  0
LINE
  5
A8B
330
A02
100
AcDbEntity
  8
Shape2DView004
100
AcDbLine
 10
1180.239170832
 20
2101.135932230
 30
0.000000000
 11
1167.363218959
 21
2079.706749712
 31
0.000000000
  0
LINE
  5
A8C
330
A02
100
AcDbEntity
  8
Shape2DView004
100
AcDbLine
 10
1167.363218959
 20
2079.706749712
 30
0.000000000
 11
1147.506912839
 21
2091.637622099
 31
0.000000000
  0
ARC
  5
A8D
330
A02
100
AcDbEntity
  8
Shape2DView004
100
AcDbCircle
 10
992.034696203
 20
2210.587882700
 30
0.000000000
 40
195.756927446
100
AcDbArc
 50
-63.374352732
 51
-37.419246605
  0
LINE
  5
A8E
330
A02
100
AcDbEntity
  8
Shape2DView004
100
AcDbLine
 10
1091.582218473
 20
2031.289127535
 30
0.000000000
 11
1079.764982324
 21
2035.590249744
 31
0.000000000
  0
LINE
  5
A8F
330
A02
100
AcDbEntity
  8
Shape2DView004
100
AcDbLine
 10
1091.582218473
 20
2031.289127535
 30
0.000000000
 11
1083.031714890
 21
2007.796812015
 31
0.000000000
  0
LINE
  5
A90
330
A02
100
AcDbEntity
  8
Shape2DView004
100
AcDbLine
 10
1083.031714890
 20
2007.796812015
 30
0.000000000
 11
1062.517053351
 21
2015.263538181
 31
0.000000000
  0
ARC
  5
A91
330
A02
100
AcDbEntity
  8
Shape2DView004
100
AcDbCircle
 10
502.361311148
 20
2182.771970974
 30
0.000000000
 40
584.665315013
100
AcDbArc
 50
-31.645875356
 51
-16.648717839
  0
LWPOLYLINE
  5
A92
330
A02
100
AcDbEntity
100
AcDbPolyline
  8
Shape2DView004
 90
2.000000000
 70
0
 43
0
 10
1000.000000000
 20
1875.516888915
 10
1000.091055601
 20
1876.016967647
  0
LWPOLYLINE
  5
A93
330
A02
100
AcDbEntity
100
AcDbPolyline
  8
Shape2DView004
 90
4.000000000
 70
0
 43
0
 10
1013.241345867
 20
1875.516888915
 10
1008.241345867
 20
1875.516888915
 10
1003.241345867
 20
1875.516888915
 10
1000.000000000
 20
1875.516888915
  0
LWPOLYLINE
  5
A94
330
A02
100
AcDbEntity
100
AcDbPolyline
  8
Shape2DView004
 90
6.000000000
 70
0
 43
0
 10
1013.241345867
 20
1875.516888915
 10
1013.241345867
 20
1870.516888915
 10
1013.241345867
 20
1865.516888915
 10
1013.241345867
 20
1860.516888915
 10
1013.241345867
 20
1855.516888915
 10
1013.241345867
 20
1850.980713949
  0
LWPOLYLINE
  5
A95
330
A02
100
AcDbEntity
100
AcDbPolyline
  8
Shape2DView004
 90
9.000000000
 70
0
 43
0
 10
1050.741345867
 20
1850.980713949
 10
1045.741345867
 20
1850.980713949
 10
1040.741345867
 20
1850.980713949
 10
1035.741345867
 20
1850.980713949
 10
1030.741345867
 20
1850.980713949
 10
1025.741345867
 20
1850.980713949
 10
1020.741345867
 20
1850.980713949
 10
1015.741345867
 20
1850.980713949
 10
1013.241345867
 20
1850.980713949
  0
LWPOLYLINE
  5
A96
330
A02
100
AcDbEntity
100
AcDbPolyline
  8
Shape2DView004
 90
6.000000000
 70
0
 43
0
 10
1050.741345867
 20
1875.516888915
 10
1050.741345867
 20
1870.516888915
 10
1050.741345867
 20
1865.516888915
 10
1050.741345867
 20
1860.516888915
 10
1050.741345867
 20
1855.516888915
 10
1050.741345867
 20
1850.980713949
  0
LWPOLYLINE
  5
A97
330
A02
100
AcDbEntity
100
AcDbPolyline
  8
Shape2DView004
 90
4.000000000
 70
0
 43
0
 10
1050.741345867
 20
1875.516888915
 10
1055.741345867
 20
1875.516888915
 10
1060.741345867
 20
1875.516888915
 10
1061.210509807
 20
1875.516888915
  0
LWPOLYLINE
  5
A98
330
A02
100
AcDbEntity
100
AcDbPolyline
  8
Shape2DView004
 90
34.000000000
 70
0
 43
0
 10
1144.089486477
 20
2014.566840069
 10
1140.395894964
 20
2011.196768595
 10
1136.702303452
 20
2007.826697122
 10
1133.109907247
 20
2004.350627259
 10
1129.572301166
 20
2000.817166744
 10
1126.083245326
 20
1997.237246957
 10
1122.708841941
 20
1993.547612585
 10
1119.334438557
 20
1989.857978213
 10
1116.120971664
 20
1986.027699723
 10
1112.916654835
 20
1982.189424894
 10
1109.817412884
 20
1978.267384144
 10
1106.789718486
 20
1974.288305528
 10
1103.806557795
 20
1970.276902912
 10
1100.961661272
 20
1966.165143705
 10
1098.116764749
 20
1962.053384498
 10
1095.440159690
 20
1957.830721449
 10
1092.783863638
 20
1953.594674791
 10
1090.232532306
 20
1949.296065681
 10
1087.770254019
 20
1944.944378004
 10
1085.345731033
 20
1940.572439408
 10
1083.082492066
 20
1936.113992439
 10
1080.819253099
 20
1931.655545469
 10
1078.726750014
 20
1927.115224123
 10
1076.667165938
 20
1922.559116856
 10
1074.708811297
 20
1917.959975323
 10
1072.857081735
 20
1913.315505748
 10
1071.034066625
 20
1908.660332945
 10
1069.393967345
 20
1903.936978803
 10
1067.753868065
 20
1899.213624661
 10
1066.282379910
 20
1894.435958483
 10
1064.857255172
 20
1889.643357991
 10
1063.526467066
 20
1884.825009709
 10
1062.319222190
 20
1879.972942128
 10
1061.210509807
 20
1875.516888915
  0
LINE
  5
A99
330
A02
100
AcDbEntity
  8
Shape2DView004
100
AcDbLine
 10
1377.861307325
 20
2191.025254232
 30
0.000000000
 11
1370.895840457
 21
2200.972971854
 31
0.000000000
  0
LINE
  5
A9A
330
A02
100
AcDbEntity
  8
Shape2DView004
100
AcDbLine
 10
1377.861307325
 20
2191.025254232
 30
0.000000000
 11
1357.382506218
 21
2176.685843323
 31
0.000000000
  0
LINE
  5
A9B
330
A02
100
AcDbEntity
  8
Shape2DView004
100
AcDbLine
 10
1452.150835214
 20
2185.792590757
 30
0.000000000
 11
1452.150835214
 21
2204.566840069
 31
0.000000000
  0
LINE
  5
A9C
330
A02
100
AcDbEntity
  8
Shape2DView004
100
AcDbLine
 10
1452.150835214
 20
2204.566840069
 30
0.000000000
 11
1423.150835214
 21
2204.566840069
 31
0.000000000
  0
LINE
  5
A9D
330
A02
100
AcDbEntity
  8
Shape2DView004
100
AcDbLine
 10
1423.150835214
 20
2204.566840069
 30
0.000000000
 11
1423.150835214
 21
2210.809003106
 31
0.000000000
  0
LINE
  5
A9E
330
A02
100
AcDbEntity
  8
Shape2DView004
100
AcDbLine
 10
1464.150835214
 20
2185.792590757
 30
0.000000000
 11
1464.150835214
 21
2204.566840069
 31
0.000000000
  0
LINE
  5
A9F
330
A02
100
AcDbEntity
  8
Shape2DView004
100
AcDbLine
 10
1464.150835214
 20
2204.566840069
 30
0.000000000
 11
1493.150835214
 21
2204.566840069
 31
0.000000000
  0
LINE
  5
AA0
330
A02
100
AcDbEntity
  8
Shape2DView004
100
AcDbLine
 10
1493.150835214
 20
2204.566840069
 30
0.000000000
 11
1493.150835214
 21
2210.809003106
 31
0.000000000
  0
LINE
  5
AA1
330
A02
100
AcDbEntity
  8
Shape2DView004
100
AcDbLine
 10
1498.150835214
 20
2104.630416579
 30
0.000000000
 11
1498.150835214
 21
2094.566840069
 31
0.000000000
  0
ARC
  5
AA2
330
A02
100
AcDbEntity
  8
Shape2DView004
100
AcDbCircle
 10
1533.150835214
 20
2104.630416579
 30
0.000000000
 40
35.000000000
100
AcDbArc
 50
70.108063188
 51
180.000000000
  0
ARC
  5
AA3
330
A02
100
AcDbEntity
  8
Shape2DView004
100
AcDbCircle
 10
1533.150835214
 20
2094.566840069
 30
0.000000000
 40
35.000000000
100
AcDbArc
 50
180.000000000
 51
-90.000000000
  0
LWPOLYLINE
  5
AA4
330
A02
100
AcDbEntity
100
AcDbPolyline
  8
Shape2DView004
 90
7.000000000
 70
0
 43
0
 10
1572.581276973
 20
2127.070448434
 10
1567.932547582
 20
2128.911438659
 10
1563.273894946
 20
2130.727168972
 10
1558.605223838
 20
2132.516982650
 10
1553.926479349
 20
2134.280295923
 10
1549.238232812
 20
2136.018187953
 10
1545.059487944
 20
2137.542177245
  0
LINE
  5
AA5
330
A02
100
AcDbEntity
  8
Shape2DView004
100
AcDbLine
 10
1533.150835214
 20
2059.566840069
 30
0.000000000
 11
1559.599927149
 21
2059.566840069
 31
0.000000000
  0
ARC
  5
AA6
330
A02
100
AcDbEntity
  8
Shape2DView004
100
AcDbCircle
 10
1559.599927149
 20
2094.566840069
 30
0.000000000
 40
35.000000000
100
AcDbArc
 50
-90.000000000
 51
68.229131403
  0
LINE
  5
AA7
330
A02
100
AcDbEntity
  8
Shape2DView004
100
AcDbLine
 10
1418.150835214
 20
2104.630416579
 30
0.000000000
 11
1418.150835214
 21
2094.566840069
 31
0.000000000
  0
ARC
  5
AA8
330
A02
100
AcDbEntity
  8
Shape2DView004
100
AcDbCircle
 10
1383.150835214
 20
2104.630416579
 30
0.000000000
 40
35.000000000
100
AcDbArc
 50
0.000000000
 51
109.891936812
  0
ARC
  5
AA9
330
A02
100
AcDbEntity
  8
Shape2DView004
100
AcDbCircle
 10
1383.150835214
 20
2094.566840069
 30
0.000000000
 40
35.000000000
100
AcDbArc
 50
-90.000000000
 51
0.000000000
  0
LWPOLYLINE
  5
AAA
330
A02
100
AcDbEntity
100
AcDbPolyline
  8
Shape2DView004
 90
7.000000000
 70
0
 43
0
 10
1343.720393455
 20
2127.070448434
 10
1348.369122846
 20
2128.911438659
 10
1353.027775482
 20
2130.727168972
 10
1357.696446590
 20
2132.516982650
 10
1362.375191079
 20
2134.280295923
 10
1367.063437616
 20
2136.018187953
 10
1371.242182484
 20
2137.542177245
  0
LINE
  5
AAB
330
A02
100
AcDbEntity
  8
Shape2DView004
100
AcDbLine
 10
1383.150835214
 20
2059.566840069
 30
0.000000000
 11
1356.701743279
 21
2059.566840069
 31
0.000000000
  0
ARC
  5
AAC
330
A02
100
AcDbEntity
  8
Shape2DView004
100
AcDbCircle
 10
1356.701743279
 20
2094.566840069
 30
0.000000000
 40
35.000000000
100
AcDbArc
 50
111.770868597
 51
-90.000000000
  0
ARC
  5
AAD
330
A02
100
AcDbEntity
  8
Shape2DView004
100
AcDbCircle
 10
1557.493869375
 20
2408.915217790
 30
0.000000000
 40
208.293298840
100
AcDbArc
 50
-106.552949634
 51
-93.326957712
  0
ARC
  5
AAE
330
A02
100
AcDbEntity
  8
Shape2DView004
100
AcDbCircle
 10
1557.493869375
 20
2408.915217790
 30
0.000000000
 40
208.293298840
100
AcDbArc
 50
-107.993308828
 51
-106.552949634
  0
LINE
  5
AAF
330
A02
100
AcDbEntity
  8
Shape2DView004
100
AcDbLine
 10
1452.150835214
 20
2185.792590757
 30
0.000000000
 11
1464.150835214
 21
2185.792590757
 31
0.000000000
  0
ARC
  5
AB0
330
A02
100
AcDbEntity
  8
Shape2DView004
100
AcDbCircle
 10
1358.807801053
 20
2408.915217790
 30
0.000000000
 40
208.293298840
100
AcDbArc
 50
-73.447050366
 51
-72.006691172
  0
ARC
  5
AB1
330
A02
100
AcDbEntity
  8
Shape2DView004
100
AcDbCircle
 10
1358.807801053
 20
2408.915217790
 30
0.000000000
 40
208.293298840
100
AcDbArc
 50
-86.673042288
 51
-73.447050366
  0
LINE
  5
AB2
330
A02
100
AcDbEntity
  8
Shape2DView004
100
AcDbLine
 10
1357.382506218
 20
2176.685843323
 30
0.000000000
 11
1346.412496377
 21
2192.352641010
 31
0.000000000
  0
ARC
  5
AB3
330
A02
100
AcDbEntity
  8
Shape2DView004
100
AcDbCircle
 10
1235.003580185
 20
2346.017426602
 30
0.000000000
 40
189.802036180
100
AcDbArc
 50
-62.254529034
 51
-54.057412374
  0
ARC
  5
AB4
330
A02
100
AcDbEntity
  8
Shape2DView004
100
AcDbCircle
 10
1235.003580185
 20
2346.017426602
 30
0.000000000
 40
189.802036180
100
AcDbArc
 50
-80.418311925
 51
-62.254529034
  0
LINE
  5
AB5
330
A02
100
AcDbEntity
  8
Shape2DView004
100
AcDbLine
 10
1772.212183951
 20
2014.566840069
 30
0.000000000
 11
1144.089486477
 21
2014.566840069
 31
0.000000000
  0
ARC
  5
AB6
330
A02
100
AcDbEntity
  8
Shape2DView004
100
AcDbCircle
 10
1681.298090243
 20
2346.017426602
 30
0.000000000
 40
189.802036180
100
AcDbArc
 50
-117.745470966
 51
-99.581688075
  0
ARC
  5
AB7
330
A02
100
AcDbEntity
  8
Shape2DView004
100
AcDbCircle
 10
1681.298090243
 20
2346.017426602
 30
0.000000000
 40
189.802036180
100
AcDbArc
 50
-125.942587626
 51
-117.745470966
  0
LINE
  5
AB8
330
A02
100
AcDbEntity
  8
Shape2DView004
100
AcDbLine
 10
1558.919164211
 20
2176.685843323
 30
0.000000000
 11
1569.889174051
 21
2192.352641010
 31
0.000000000
  0
ARC
  5
AB9
330
A02
100
AcDbEntity
  8
Shape2DView004
100
AcDbCircle
 10
1557.493869375
 20
2408.915217790
 30
0.000000000
 40
208.293298840
100
AcDbArc
 50
-118.485622210
 51
-118.354470832
  0
ARC
  5
ABA
330
A02
100
AcDbEntity
  8
Shape2DView004
100
AcDbCircle
 10
1358.807801053
 20
2408.915217790
 30
0.000000000
 40
208.293298840
100
AcDbArc
 50
-61.645529168
 51
-61.514377790
  0
LINE
  5
ABB
330
A02
100
AcDbEntity
  8
Shape2DView004
100
AcDbLine
 10
1458.570161839
 20
2225.611648734
 30
0.000000000
 11
1457.731508589
 21
2225.611648734
 31
0.000000000
  0
LINE
  5
ABC
330
A02
100
AcDbEntity
  8
Shape2DView005
100
AcDbLine
 10
1666.044829267
 20
2635.621258953
 30
0.000000000
 11
1671.080236104
 21
2642.812565191
 31
0.000000000
  0
LINE
  5
ABD
330
A02
100
AcDbEntity
  8
Shape2DView005
100
AcDbLine
 10
1666.044829267
 20
2635.621258953
 30
0.000000000
 11
1686.523630374
 21
2621.281848044
 31
0.000000000
  0
LINE
  5
ABE
330
A02
100
AcDbEntity
  8
Shape2DView005
100
AcDbLine
 10
1686.523630374
 20
2621.281848044
 30
0.000000000
 11
1699.039020144
 21
2639.155676998
 31
0.000000000
  0
ARC
  5
ABF
330
A02
100
AcDbEntity
  8
Shape2DView005
100
AcDbCircle
 10
1813.307961249
 20
2922.415103367
 30
0.000000000
 40
305.439508787
100
AcDbArc
 50
-111.969511577
 51
-91.206791320
  0
LINE
  5
AC0
330
A02
100
AcDbEntity
  8
Shape2DView005
100
AcDbLine
 10
1801.098968000
 20
2611.842469738
 30
0.000000000
 11
1806.875122773
 21
2617.043342857
 31
0.000000000
  0
LINE
  5
AC1
330
A02
100
AcDbEntity
  8
Shape2DView005
100
AcDbLine
 10
1801.098968000
 20
2611.842469738
 30
0.000000000
 11
1817.827233159
 21
2593.263849101
 31
0.000000000
  0
LINE
  5
AC2
330
A02
100
AcDbEntity
  8
Shape2DView005
100
AcDbLine
 10
1817.827233159
 20
2593.263849101
 30
0.000000000
 11
1835.318722051
 21
2609.013256441
 31
0.000000000
  0
LINE
  5
AC3
330
A02
100
AcDbEntity
  8
Shape2DView005
100
AcDbLine
 10
1926.876279510
 20
2563.275078111
 30
0.000000000
 11
1934.879607240
 21
2568.083962565
 31
0.000000000
  0
LINE
  5
AC4
330
A02
100
AcDbEntity
  8
Shape2DView005
100
AcDbLine
 10
1926.876279510
 20
2563.275078111
 30
0.000000000
 11
1939.752231383
 21
2541.845895593
 31
0.000000000
  0
LINE
  5
AC5
330
A02
100
AcDbEntity
  8
Shape2DView005
100
AcDbLine
 10
1939.752231383
 20
2541.845895593
 30
0.000000000
 11
1958.705711219
 21
2553.234295220
 31
0.000000000
  0
ARC
  5
AC6
330
A02
100
AcDbEntity
  8
Shape2DView005
100
AcDbCircle
 10
2191.690723959
 20
2732.194899344
 30
0.000000000
 40
293.783787826
100
AcDbArc
 50
-142.471388799
 51
-121.299646666
  0
LINE
  5
AC7
330
A02
100
AcDbEntity
  8
Shape2DView005
100
AcDbLine
 10
2028.070996969
 20
2477.165960115
 30
0.000000000
 11
2039.065979462
 21
2481.167806469
 31
0.000000000
  0
LINE
  5
AC8
330
A02
100
AcDbEntity
  8
Shape2DView005
100
AcDbLine
 10
2028.070996969
 20
2477.165960115
 30
0.000000000
 11
2036.621500552
 21
2453.673644596
 31
0.000000000
  0
LINE
  5
AC9
330
A02
100
AcDbEntity
  8
Shape2DView005
100
AcDbLine
 10
2036.621500552
 20
2453.673644596
 30
0.000000000
 11
2055.381206929
 21
2460.501619321
 31
0.000000000
  0
ARC
  5
ACA
330
A02
100
AcDbEntity
  8
Shape2DView005
100
AcDbCircle
 10
2669.269941046
 20
2653.500377760
 30
0.000000000
 40
643.512158887
100
AcDbArc
 50
-162.547519898
 51
-148.253451642
  0
LWPOLYLINE
  5
ACB
330
A02
100
AcDbEntity
100
AcDbPolyline
  8
Shape2DView005
 90
2.000000000
 70
0
 43
0
 10
2122.103718200
 20
2314.617251033
 10
2122.037546292
 20
2314.908285757
  0
LWPOLYLINE
  5
ACC
330
A02
100
AcDbEntity
100
AcDbPolyline
  8
Shape2DView005
 90
4.000000000
 70
0
 43
0
 10
2111.180474436
 20
2314.617251033
 10
2116.180474436
 20
2314.617251033
 10
2121.180474436
 20
2314.617251033
 10
2122.103718200
 20
2314.617251033
  0
LWPOLYLINE
  5
ACD
330
A02
100
AcDbEntity
100
AcDbPolyline
  8
Shape2DView005
 90
6.000000000
 70
0
 43
0
 10
2111.180474436
 20
2314.617251033
 10
2111.180474436
 20
2309.617251033
 10
2111.180474436
 20
2304.617251033
 10
2111.180474436
 20
2299.617251033
 10
2111.180474436
 20
2294.617251033
 10
2111.180474436
 20
2289.862921556
  0
LWPOLYLINE
  5
ACE
330
A02
100
AcDbEntity
100
AcDbPolyline
  8
Shape2DView005
 90
9.000000000
 70
0
 43
0
 10
2073.680474436
 20
2289.862921556
 10
2078.680474436
 20
2289.862921556
 10
2083.680474436
 20
2289.862921556
 10
2088.680474436
 20
2289.862921556
 10
2093.680474436
 20
2289.862921556
 10
2098.680474436
 20
2289.862921556
 10
2103.680474436
 20
2289.862921556
 10
2108.680474436
 20
2289.862921556
 10
2111.180474436
 20
2289.862921556
  0
LWPOLYLINE
  5
ACF
330
A02
100
AcDbEntity
100
AcDbPolyline
  8
Shape2DView005
 90
6.000000000
 70
0
 43
0
 10
2073.680474436
 20
2314.617251033
 10
2073.680474436
 20
2309.617251033
 10
2073.680474436
 20
2304.617251033
 10
2073.680474436
 20
2299.617251033
 10
2073.680474436
 20
2294.617251033
 10
2073.680474436
 20
2289.862921556
  0
LWPOLYLINE
  5
AD0
330
A02
100
AcDbEntity
100
AcDbPolyline
  8
Shape2DView005
 90
4.000000000
 70
0
 43
0
 10
2073.680474436
 20
2314.617251033
 10
2068.680474436
 20
2314.617251033
 10
2063.680474436
 20
2314.617251033
 10
2060.288960104
 20
2314.617251033
  0
LWPOLYLINE
  5
AD1
330
A02
100
AcDbEntity
100
AcDbPolyline
  8
Shape2DView005
 90
26.000000000
 70
0
 43
0
 10
2007.831028046
 20
2423.882672943
 10
2010.727115911
 20
2419.806807994
 10
2013.595329363
 20
2415.711681063
 10
2016.383731936
 20
2411.561402627
 10
2019.115396555
 20
2407.374072888
 10
2021.794202026
 20
2403.152224804
 10
2024.386477638
 20
2398.877048355
 10
2026.949851967
 20
2394.584202167
 10
2029.404029182
 20
2390.227940674
 10
2031.824420656
 20
2385.853223776
 10
2034.163722028
 20
2381.434211546
 10
2036.438621808
 20
2376.982178812
 10
2038.661444651
 20
2372.503444771
 10
2040.788484689
 20
2367.978725773
 10
2042.884882992
 20
2363.439563837
 10
2044.870261438
 20
2358.850634504
 10
2046.815854847
 20
2354.245107177
 10
2048.680429968
 20
2349.605779681
 10
2050.473202572
 20
2344.938680346
 10
2052.215696753
 20
2340.252134280
 10
2053.853780463
 20
2335.528315794
 10
2055.459841787
 20
2330.793450819
 10
2056.954675785
 20
2326.022133253
 10
2058.403787088
 20
2321.237145558
 10
2059.773211252
 20
2316.428333079
 10
2060.288960104
 20
2314.617251033
  0
LINE
  5
AD2
330
A02
100
AcDbEntity
  8
Shape2DView005
100
AcDbLine
 10
1195.227438690
 20
2563.275078111
 30
0.000000000
 11
1187.224110960
 21
2568.083962565
 31
0.000000000
  0
LINE
  5
AD3
330
A02
100
AcDbEntity
  8
Shape2DView005
100
AcDbLine
 10
1195.227438690
 20
2563.275078111
 30
0.000000000
 11
1182.351486817
 21
2541.845895593
 31
0.000000000
  0
LINE
  5
AD4
330
A02
100
AcDbEntity
  8
Shape2DView005
100
AcDbLine
 10
1182.351486817
 20
2541.845895593
 30
0.000000000
 11
1163.398006981
 21
2553.234295220
 31
0.000000000
  0
ARC
  5
AD5
330
A02
100
AcDbEntity
  8
Shape2DView005
100
AcDbCircle
 10
930.412994242
 20
2732.194899344
 30
0.000000000
 40
293.783787826
100
AcDbArc
 50
-58.700353334
 51
-37.528611201
  0
LINE
  5
AD6
330
A02
100
AcDbEntity
  8
Shape2DView005
100
AcDbLine
 10
1094.032721231
 20
2477.165960115
 30
0.000000000
 11
1083.037738738
 21
2481.167806469
 31
0.000000000
  0
LINE
  5
AD7
330
A02
100
AcDbEntity
  8
Shape2DView005
100
AcDbLine
 10
1094.032721231
 20
2477.165960115
 30
0.000000000
 11
1085.482217648
 21
2453.673644596
 31
0.000000000
  0
LINE
  5
AD8
330
A02
100
AcDbEntity
  8
Shape2DView005
100
AcDbLine
 10
1085.482217648
 20
2453.673644596
 30
0.000000000
 11
1066.722511271
 21
2460.501619321
 31
0.000000000
  0
ARC
  5
AD9
330
A02
100
AcDbEntity
  8
Shape2DView005
100
AcDbCircle
 10
452.833777154
 20
2653.500377760
 30
0.000000000
 40
643.512158887
100
AcDbArc
 50
-31.746548358
 51
-17.452480102
  0
LWPOLYLINE
  5
ADA
330
A02
100
AcDbEntity
100
AcDbPolyline
  8
Shape2DView005
 90
2.000000000
 70
0
 43
0
 10
1000.000000000
 20
2314.617251033
 10
1000.066171908
 20
2314.908285757
  0
LWPOLYLINE
  5
ADB
330
A02
100
AcDbEntity
100
AcDbPolyline
  8
Shape2DView005
 90
4.000000000
 70
0
 43
0
 10
1010.923243764
 20
2314.617251033
 10
1005.923243764
 20
2314.617251033
 10
1000.923243764
 20
2314.617251033
 10
1000.000000000
 20
2314.617251033
  0
LWPOLYLINE
  5
ADC
330
A02
100
AcDbEntity
100
AcDbPolyline
  8
Shape2DView005
 90
6.000000000
 70
0
 43
0
 10
1010.923243764
 20
2314.617251033
 10
1010.923243764
 20
2309.617251033
 10
1010.923243764
 20
2304.617251033
 10
1010.923243764
 20
2299.617251033
 10
1010.923243764
 20
2294.617251033
 10
1010.923243764
 20
2289.862921556
  0
LWPOLYLINE
  5
ADD
330
A02
100
AcDbEntity
100
AcDbPolyline
  8
Shape2DView005
 90
9.000000000
 70
0
 43
0
 10
1048.423243764
 20
2289.862921556
 10
1043.423243764
 20
2289.862921556
 10
1038.423243764
 20
2289.862921556
 10
1033.423243764
 20
2289.862921556
 10
1028.423243764
 20
2289.862921556
 10
1023.423243764
 20
2289.862921556
 10
1018.423243764
 20
2289.862921556
 10
1013.423243764
 20
2289.862921556
 10
1010.923243764
 20
2289.862921556
  0
LWPOLYLINE
  5
ADE
330
A02
100
AcDbEntity
100
AcDbPolyline
  8
Shape2DView005
 90
6.000000000
 70
0
 43
0
 10
1048.423243764
 20
2314.617251033
 10
1048.423243764
 20
2309.617251033
 10
1048.423243764
 20
2304.617251033
 10
1048.423243764
 20
2299.617251033
 10
1048.423243764
 20
2294.617251033
 10
1048.423243764
 20
2289.862921556
  0
LWPOLYLINE
  5
ADF
330
A02
100
AcDbEntity
100
AcDbPolyline
  8
Shape2DView005
 90
4.000000000
 70
0
 43
0
 10
1048.423243764
 20
2314.617251033
 10
1053.423243764
 20
2314.617251033
 10
1058.423243764
 20
2314.617251033
 10
1061.814758096
 20
2314.617251033
  0
LWPOLYLINE
  5
AE0
330
A02
100
AcDbEntity
100
AcDbPolyline
  8
Shape2DView005
 90
26.000000000
 70
0
 43
0
 10
1114.272690154
 20
2423.882672943
 10
1111.376602289
 20
2419.806807994
 10
1108.508388837
 20
2415.711681063
 10
1105.719986264
 20
2411.561402627
 10
1102.988321646
 20
2407.374072888
 10
1100.309516174
 20
2403.152224804
 10
1097.717240562
 20
2398.877048355
 10
1095.153866234
 20
2394.584202167
 10
1092.699689018
 20
2390.227940674
 10
1090.279297544
 20
2385.853223776
 10
1087.939996172
 20
2381.434211546
 10
1085.665096392
 20
2376.982178812
 10
1083.442273549
 20
2372.503444771
 10
1081.315233512
 20
2367.978725773
 10
1079.218835208
 20
2363.439563837
 10
1077.233456762
 20
2358.850634504
 10
1075.287863353
 20
2354.245107177
 10
1073.423288232
 20
2349.605779681
 10
1071.630515628
 20
2344.938680346
 10
1069.888021448
 20
2340.252134280
 10
1068.249937737
 20
2335.528315794
 10
1066.643876413
 20
2330.793450819
 10
1065.149042415
 20
2326.022133253
 10
1063.699931112
 20
2321.237145558
 10
1062.330506949
 20
2316.428333079
 10
1061.814758096
 20
2314.617251033
  0
LINE
  5
AE1
330
A02
100
AcDbEntity
  8
Shape2DView005
100
AcDbLine
 10
1456.058888933
 20
2635.621258953
 30
0.000000000
 11
1451.023482096
 21
2642.812565191
 31
0.000000000
  0
LINE
  5
AE2
330
A02
100
AcDbEntity
  8
Shape2DView005
100
AcDbLine
 10
1456.058888933
 20
2635.621258953
 30
0.000000000
 11
1435.580087826
 21
2621.281848044
 31
0.000000000
  0
LINE
  5
AE3
330
A02
100
AcDbEntity
  8
Shape2DView005
100
AcDbLine
 10
1435.580087826
 20
2621.281848044
 30
0.000000000
 11
1423.064698056
 21
2639.155676998
 31
0.000000000
  0
ARC
  5
AE4
330
A02
100
AcDbEntity
  8
Shape2DView005
100
AcDbCircle
 10
1308.795756951
 20
2922.415103367
 30
0.000000000
 40
305.439508787
100
AcDbArc
 50
-88.793208680
 51
-68.030488423
  0
LINE
  5
AE5
330
A02
100
AcDbEntity
  8
Shape2DView005
100
AcDbLine
 10
1321.004750200
 20
2611.842469738
 30
0.000000000
 11
1315.228595427
 21
2617.043342857
 31
0.000000000
  0
LINE
  5
AE6
330
A02
100
AcDbEntity
  8
Shape2DView005
100
AcDbLine
 10
1321.004750200
 20
2611.842469738
 30
0.000000000
 11
1304.276485041
 21
2593.263849101
 31
0.000000000
  0
LINE
  5
AE7
330
A02
100
AcDbEntity
  8
Shape2DView005
100
AcDbLine
 10
1304.276485041
 20
2593.263849101
 30
0.000000000
 11
1286.784996149
 21
2609.013256441
 31
0.000000000
  0
LINE
  5
AE8
330
A02
100
AcDbEntity
  8
Shape2DView005
100
AcDbLine
 10
1555.051859100
 20
2609.190642088
 30
0.000000000
 11
1555.051859100
 21
2613.882672943
 31
0.000000000
  0
LINE
  5
AE9
330
A02
100
AcDbEntity
  8
Shape2DView005
100
AcDbLine
 10
1555.051859100
 20
2613.882672943
 30
0.000000000
 11
1526.051859100
 21
2613.882672943
 31
0.000000000
  0
LINE
  5
AEA
330
A02
100
AcDbEntity
  8
Shape2DView005
100
AcDbLine
 10
1526.051859100
 20
2613.882672943
 30
0.000000000
 11
1526.051859100
 21
2642.786988888
 31
0.000000000
  0
LINE
  5
AEB
330
A02
100
AcDbEntity
  8
Shape2DView005
100
AcDbLine
 10
1567.051859100
 20
2609.190642088
 30
0.000000000
 11
1567.051859100
 21
2613.882672943
 31
0.000000000
  0
LINE
  5
AEC
330
A02
100
AcDbEntity
  8
Shape2DView005
100
AcDbLine
 10
1567.051859100
 20
2613.882672943
 30
0.000000000
 11
1596.051859100
 21
2613.882672943
 31
0.000000000
  0
LINE
  5
AED
330
A02
100
AcDbEntity
  8
Shape2DView005
100
AcDbLine
 10
1596.051859100
 20
2613.882672943
 30
0.000000000
 11
1596.051859100
 21
2642.786988888
 31
0.000000000
  0
LINE
  5
AEE
330
A02
100
AcDbEntity
  8
Shape2DView005
100
AcDbLine
 10
1601.051859100
 20
2550.893292471
 30
0.000000000
 11
1601.051859100
 21
2503.882672943
 31
0.000000000
  0
ARC
  5
AEF
330
A02
100
AcDbEntity
  8
Shape2DView005
100
AcDbCircle
 10
1636.051859100
 20
2550.893292471
 30
0.000000000
 40
35.000000000
100
AcDbArc
 50
84.998940324
 51
180.000000000
  0
ARC
  5
AF0
330
A02
100
AcDbEntity
  8
Shape2DView005
100
AcDbCircle
 10
1636.051859100
 20
2503.882672943
 30
0.000000000
 40
35.000000000
100
AcDbArc
 50
180.000000000
 51
-90.000000000
  0
LWPOLYLINE
  5
AF1
330
A02
100
AcDbEntity
100
AcDbPolyline
  8
Shape2DView005
 90
15.000000000
 70
0
 43
0
 10
1704.330191826
 20
2577.637916899
 10
1699.392124773
 20
2578.422426147
 10
1694.449785610
 20
2579.179532886
 10
1689.503325903
 20
2579.909213956
 10
1684.552897343
 20
2580.611447036
 10
1679.598651741
 20
2581.286210639
 10
1674.640741024
 20
2581.933484115
 10
1669.679317229
 20
2582.553247654
 10
1664.714532501
 20
2583.145482282
 10
1659.746539087
 20
2583.710169865
 10
1654.775489331
 20
2584.247293107
 10
1649.801535669
 20
2584.756835555
 10
1644.824830626
 20
2585.238781592
 10
1639.845526811
 20
2585.693116446
 10
1639.102954952
 20
2585.760050481
  0
LINE
  5
AF2
330
A02
100
AcDbEntity
  8
Shape2DView005
100
AcDbLine
 10
1636.051859100
 20
2468.882672943
 30
0.000000000
 11
1850.085569744
 21
2468.882672943
 31
0.000000000
  0
LWPOLYLINE
  5
AF3
330
A02
100
AcDbEntity
100
AcDbPolyline
  8
Shape2DView005
 90
30.000000000
 70
0
 43
0
 10
1843.946101272
 20
2543.381989123
 10
1839.192124281
 20
2544.931086528
 10
1834.438147291
 20
2546.480183934
 10
1829.667724228
 20
2547.977812420
 10
1824.896328190
 20
2549.472395922
 10
1820.110014349
 20
2550.918381678
 10
1815.321824386
 20
2552.358255588
 10
1810.520176887
 20
2553.752430769
 10
1805.715820318
 20
2555.137406568
 10
1800.899398045
 20
2556.479609316
 10
1796.079504304
 20
2557.809505675
 10
1791.248867840
 20
2559.099580135
 10
1786.414068391
 20
2560.374222943
 10
1781.569779955
 20
2561.612019282
 10
1776.720708211
 20
2562.831241665
 10
1771.863331593
 20
2564.016616088
 10
1767.000622832
 20
2565.180258434
 10
1762.130723329
 20
2566.313073203
 10
1757.255014612
 20
2567.420983178
 10
1752.373158962
 20
2568.501106625
 10
1747.485089050
 20
2569.553139199
 10
1742.591845367
 20
2570.580445741
 10
1737.692054635
 20
2571.576463203
 10
1732.787992347
 20
2572.550833359
 10
1727.877122702
 20
2573.490705335
 10
1722.962812481
 20
2574.412025735
 10
1718.041507278
 20
2575.295629207
 10
1713.117520980
 20
2576.163792610
 10
1708.186424936
 20
2576.991011930
 10
1704.330191826
 20
2577.637916899
  0
ARC
  5
AF4
330
A02
100
AcDbEntity
  8
Shape2DView005
100
AcDbCircle
 10
1850.085569744
 20
2503.882672943
 30
0.000000000
 40
35.000000000
100
AcDbArc
 50
-90.000000000
 51
68.140198457
  0
ARC
  5
AF5
330
A02
100
AcDbEntity
  8
Shape2DView005
100
AcDbCircle
 10
1862.861446113
 20
2600.322394193
 30
0.000000000
 40
60.000000000
100
AcDbArc
 50
-108.376253714
 51
-108.346746182
  0
LWPOLYLINE
  5
AF6
330
A02
100
AcDbEntity
100
AcDbPolyline
  8
Shape2DView005
 90
6.000000000
 70
0
 43
0
 10
1863.117355124
 20
2536.366092864
 10
1858.462755530
 20
2538.192075266
 10
1853.781649100
 20
2539.948984660
 10
1849.074412492
 20
2541.634631903
 10
1844.342475673
 20
2543.249640824
 10
1843.975428292
 20
2543.372255204
  0
LWPOLYLINE
  5
AF7
330
A02
100
AcDbEntity
100
AcDbPolyline
  8
Shape2DView005
 90
6.000000000
 70
0
 43
0
 10
1258.986363076
 20
2536.366092864
 10
1263.640962671
 20
2538.192075266
 10
1268.322069101
 20
2539.948984660
 10
1273.029305708
 20
2541.634631903
 10
1277.761242527
 20
2543.249640824
 10
1278.128289908
 20
2543.372255204
  0
ARC
  5
AF8
330
A02
100
AcDbEntity
  8
Shape2DView005
100
AcDbCircle
 10
1259.242272087
 20
2600.322394193
 30
0.000000000
 40
60.000000000
100
AcDbArc
 50
-71.653253818
 51
-71.623746286
  0
LWPOLYLINE
  5
AF9
330
A02
100
AcDbEntity
100
AcDbPolyline
  8
Shape2DView005
 90
30.000000000
 70
0
 43
0
 10
1278.157616928
 20
2543.381989123
 10
1282.911593919
 20
2544.931086528
 10
1287.665570910
 20
2546.480183934
 10
1292.435993972
 20
2547.977812420
 10
1297.207390010
 20
2549.472395922
 10
1301.993703851
 20
2550.918381678
 10
1306.781893814
 20
2552.358255588
 10
1311.583541314
 20
2553.752430769
 10
1316.387897882
 20
2555.137406568
 10
1321.204320155
 20
2556.479609316
 10
1326.024213896
 20
2557.809505675
 10
1330.854850361
 20
2559.099580135
 10
1335.689649809
 20
2560.374222943
 10
1340.533938245
 20
2561.612019282
 10
1345.383009990
 20
2562.831241665
 10
1350.240386607
 20
2564.016616088
 10
1355.103095368
 20
2565.180258434
 10
1359.972994871
 20
2566.313073203
 10
1364.848703588
 20
2567.420983178
 10
1369.730559238
 20
2568.501106625
 10
1374.618629150
 20
2569.553139199
 10
1379.511872833
 20
2570.580445741
 10
1384.411663565
 20
2571.576463203
 10
1389.315725853
 20
2572.550833359
 10
1394.226595498
 20
2573.490705335
 10
1399.140905719
 20
2574.412025735
 10
1404.062210922
 20
2575.295629207
 10
1408.986197220
 20
2576.163792610
 10
1413.917293264
 20
2576.991011930
 10
1417.773526375
 20
2577.637916899
  0
LWPOLYLINE
  5
AFA
330
A02
100
AcDbEntity
100
AcDbPolyline
  8
Shape2DView005
 90
15.000000000
 70
0
 43
0
 10
1417.773526375
 20
2577.637916899
 10
1422.711593428
 20
2578.422426147
 10
1427.653932590
 20
2579.179532886
 10
1432.600392297
 20
2579.909213956
 10
1437.550820857
 20
2580.611447036
 10
1442.505066459
 20
2581.286210639
 10
1447.462977176
 20
2581.933484115
 10
1452.424400971
 20
2582.553247654
 10
1457.389185699
 20
2583.145482282
 10
1462.357179113
 20
2583.710169865
 10
1467.328228869
 20
2584.247293107
 10
1472.302182531
 20
2584.756835555
 10
1477.278887574
 20
2585.238781592
 10
1482.258191389
 20
2585.693116446
 10
1483.000763249
 20
2585.760050481
  0
LINE
  5
AFB
330
A02
100
AcDbEntity
  8
Shape2DView005
100
AcDbLine
 10
1521.051859100
 20
2550.893292471
 30
0.000000000
 11
1521.051859100
 21
2503.882672943
 31
0.000000000
  0
ARC
  5
AFC
330
A02
100
AcDbEntity
  8
Shape2DView005
100
AcDbCircle
 10
1486.051859100
 20
2550.893292471
 30
0.000000000
 40
35.000000000
100
AcDbArc
 50
0.000000000
 51
95.001059676
  0
ARC
  5
AFD
330
A02
100
AcDbEntity
  8
Shape2DView005
100
AcDbCircle
 10
1486.051859100
 20
2503.882672943
 30
0.000000000
 40
35.000000000
100
AcDbArc
 50
-90.000000000
 51
0.000000000
  0
LINE
  5
AFE
330
A02
100
AcDbEntity
  8
Shape2DView005
100
AcDbLine
 10
1486.051859100
 20
2468.882672943
 30
0.000000000
 11
1272.018148456
 21
2468.882672943
 31
0.000000000
  0
ARC
  5
AFF
330
A02
100
AcDbEntity
  8
Shape2DView005
100
AcDbCircle
 10
1272.018148456
 20
2503.882672943
 30
0.000000000
 40
35.000000000
100
AcDbArc
 50
111.859801543
 51
-90.000000000
  0
ARC
  5
B00
330
A02
100
AcDbEntity
  8
Shape2DView005
100
AcDbCircle
 10
1633.462464461
 20
2946.662108923
 30
0.000000000
 40
306.169302787
100
AcDbArc
 50
-96.076627316
 51
-88.044855753
  0
ARC
  5
B01
330
A02
100
AcDbEntity
  8
Shape2DView005
100
AcDbCircle
 10
1633.462464461
 20
2946.662108923
 30
0.000000000
 40
306.169302787
100
AcDbArc
 50
-97.018468799
 51
-96.076627316
  0
LINE
  5
B02
330
A02
100
AcDbEntity
  8
Shape2DView005
100
AcDbLine
 10
1555.051859100
 20
2609.190642088
 30
0.000000000
 11
1567.051859100
 21
2609.190642088
 31
0.000000000
  0
ARC
  5
B03
330
A02
100
AcDbEntity
  8
Shape2DView005
100
AcDbCircle
 10
1488.641253739
 20
2946.662108923
 30
0.000000000
 40
306.169302787
100
AcDbArc
 50
-83.923372684
 51
-82.981531201
  0
ARC
  5
B04
330
A02
100
AcDbEntity
  8
Shape2DView005
100
AcDbCircle
 10
1488.641253739
 20
2946.662108923
 30
0.000000000
 40
306.169302787
100
AcDbArc
 50
-91.955144247
 51
-83.923372684
  0
ARC
  5
B05
330
A02
100
AcDbEntity
  8
Shape2DView005
100
AcDbCircle
 10
1488.641253739
 20
2946.662108923
 30
0.000000000
 40
306.169302787
100
AcDbArc
 50
-97.057531730
 51
-91.955144247
  0
ARC
  5
B06
330
A02
100
AcDbEntity
  8
Shape2DView005
100
AcDbCircle
 10
1127.808641801
 20
2854.168672876
 30
0.000000000
 40
292.189423918
100
AcDbArc
 50
-67.470302049
 51
-57.037731883
  0
ARC
  5
B07
330
A02
100
AcDbEntity
  8
Shape2DView005
100
AcDbCircle
 10
1127.808641801
 20
2854.168672876
 30
0.000000000
 40
292.189423918
100
AcDbArc
 50
-78.267323739
 51
-67.470302049
  0
LINE
  5
B08
330
A02
100
AcDbEntity
  8
Shape2DView005
100
AcDbLine
 10
2007.831028046
 20
2423.882672943
 30
0.000000000
 11
1114.272690154
 21
2423.882672943
 31
0.000000000
  0
ARC
  5
B09
330
A02
100
AcDbEntity
  8
Shape2DView005
100
AcDbCircle
 10
1994.295076399
 20
2854.168672876
 30
0.000000000
 40
292.189423918
100
AcDbArc
 50
-112.529697951
 51
-101.732676261
  0
ARC
  5
B0A
330
A02
100
AcDbEntity
  8
Shape2DView005
100
AcDbCircle
 10
1994.295076399
 20
2854.168672876
 30
0.000000000
 40
292.189423918
100
AcDbArc
 50
-122.962268117
 51
-112.529697951
  0
ARC
  5
B0B
330
A02
100
AcDbEntity
  8
Shape2DView005
100
AcDbCircle
 10
1633.462464461
 20
2946.662108923
 30
0.000000000
 40
306.169302787
100
AcDbArc
 50
-88.044855753
 51
-82.942468270
  0
ARC
  5
B0C
330
A02
100
AcDbEntity
  8
Shape2DView005
100
AcDbCircle
 10
1633.462464461
 20
2946.662108923
 30
0.000000000
 40
306.169302787
100
AcDbArc
 50
-103.680360614
 51
-103.603965758
  0
ARC
  5
B0D
330
A02
100
AcDbEntity
  8
Shape2DView005
100
AcDbCircle
 10
1488.641253739
 20
2946.662108923
 30
0.000000000
 40
306.169302787
100
AcDbArc
 50
-76.396034242
 51
-76.319639386
  0
LINE
  5
B0E
330
A02
100
AcDbEntity
  8
Shape2DView005
100
AcDbLine
 10
1561.448570329
 20
2649.082470806
 30
0.000000000
 11
1560.655147871
 21
2649.082470806
 31
0.000000000
  0
LINE
  5
B0F
330
A02
100
AcDbEntity
  8
Shape2DView006
100
AcDbLine
 10
1709.354596413
 20
3051.933697671
 30
0.000000000
 11
1713.493292877
 21
3057.844368776
 31
0.000000000
  0
LINE
  5
B10
330
A02
100
AcDbEntity
  8
Shape2DView006
100
AcDbLine
 10
1709.354596413
 20
3051.933697671
 30
0.000000000
 11
1729.833397520
 21
3037.594286761
 31
0.000000000
  0
LINE
  5
B11
330
A02
100
AcDbEntity
  8
Shape2DView006
100
AcDbLine
 10
1858.147354923
 20
3035.238833211
 30
0.000000000
 11
1862.594213786
 21
3039.242802915
 31
0.000000000
  0
LINE
  5
B12
330
A02
100
AcDbEntity
  8
Shape2DView006
100
AcDbLine
 10
1858.147354923
 20
3035.238833211
 30
0.000000000
 11
1874.875620082
 21
3016.660212574
 31
0.000000000
  0
ARC
  5
B13
330
A02
100
AcDbEntity
  8
Shape2DView006
100
AcDbCircle
 10
1853.200802437
 20
3407.685231941
 30
0.000000000
 40
368.562151724
100
AcDbArc
 50
-107.436417017
 51
-88.539564883
  0
LINE
  5
B14
330
A02
100
AcDbEntity
  8
Shape2DView006
100
AcDbLine
 10
1874.875620082
 20
3016.660212574
 30
0.000000000
 11
1892.305803015
 21
3032.354419780
 31
0.000000000
  0
LINE
  5
B15
330
A02
100
AcDbEntity
  8
Shape2DView006
100
AcDbLine
 10
1729.833397520
 20
3037.594286761
 30
0.000000000
 11
1742.762169446
 21
3056.058486618
 31
0.000000000
  0
ARC
  5
B16
330
A02
100
AcDbEntity
  8
Shape2DView006
100
AcDbCircle
 10
2071.382502414
 20
3309.172100734
 30
0.000000000
 40
329.691511502
100
AcDbArc
 50
-122.899315718
 51
-102.916846969
  0
LINE
  5
B17
330
A02
100
AcDbEntity
  8
Shape2DView006
100
AcDbLine
 10
1990.328196223
 20
2983.403246187
 30
0.000000000
 11
1997.684343210
 21
2987.823265220
 31
0.000000000
  0
LINE
  5
B18
330
A02
100
AcDbEntity
  8
Shape2DView006
100
AcDbLine
 10
2003.204148095
 20
2961.974063669
 30
0.000000000
 11
2021.145841463
 21
2972.754520652
 31
0.000000000
  0
ARC
  5
B19
330
A02
100
AcDbEntity
  8
Shape2DView006
100
AcDbCircle
 10
2283.692744083
 20
3174.194166119
 30
0.000000000
 40
330.921148978
100
AcDbArc
 50
-142.502703070
 51
-122.557488509
  0
LINE
  5
B1A
330
A02
100
AcDbEntity
  8
Shape2DView006
100
AcDbLine
 10
2095.465880016
 20
2891.584850244
 30
0.000000000
 11
2105.608995011
 21
2895.276642185
 31
0.000000000
  0
LINE
  5
B1B
330
A02
100
AcDbEntity
  8
Shape2DView006
100
AcDbLine
 10
2095.465880016
 20
2891.584850244
 30
0.000000000
 11
2104.016383599
 21
2868.092534724
 31
0.000000000
  0
LINE
  5
B1C
330
A02
100
AcDbEntity
  8
Shape2DView006
100
AcDbLine
 10
2104.016383599
 20
2868.092534724
 30
0.000000000
 11
2121.685631636
 21
2874.523615072
 31
0.000000000
  0
ARC
  5
B1D
330
A02
100
AcDbEntity
  8
Shape2DView006
100
AcDbCircle
 10
2722.003766392
 20
3067.035029395
 30
0.000000000
 40
630.430414527
100
AcDbArc
 50
-162.219872539
 51
-147.778066647
  0
LWPOLYLINE
  5
B1E
330
A02
100
AcDbEntity
100
AcDbPolyline
  8
Shape2DView006
 90
2.000000000
 70
0
 43
0
 10
2188.689355636
 20
2730.797998406
 10
2188.666498456
 20
2730.889426728
  0
LWPOLYLINE
  5
B1F
330
A02
100
AcDbEntity
100
AcDbPolyline
  8
Shape2DView006
 90
3.000000000
 70
0
 43
0
 10
2179.306067218
 20
2730.797998406
 10
2184.306067218
 20
2730.797998406
 10
2188.689355636
 20
2730.797998406
  0
LWPOLYLINE
  5
B20
330
A02
100
AcDbEntity
100
AcDbPolyline
  8
Shape2DView006
 90
6.000000000
 70
0
 43
0
 10
2179.306067218
 20
2730.797998406
 10
2179.306067218
 20
2725.797998406
 10
2179.306067218
 20
2720.797998406
 10
2179.306067218
 20
2715.797998406
 10
2179.306067218
 20
2710.797998406
 10
2179.306067218
 20
2705.837614991
  0
LINE
  5
B21
330
A02
100
AcDbEntity
  8
Shape2DView006
100
AcDbLine
 10
2179.306067218
 20
2705.837614991
 30
0.000000000
 11
2141.806067218
 21
2705.837614991
 31
0.000000000
  0
LWPOLYLINE
  5
B22
330
A02
100
AcDbEntity
100
AcDbPolyline
  8
Shape2DView006
 90
6.000000000
 70
0
 43
0
 10
2141.806067218
 20
2730.797998406
 10
2141.806067218
 20
2725.797998406
 10
2141.806067218
 20
2720.797998406
 10
2141.806067218
 20
2715.797998406
 10
2141.806067218
 20
2710.797998406
 10
2141.806067218
 20
2705.837614991
  0
LWPOLYLINE
  5
B23
330
A02
100
AcDbEntity
100
AcDbPolyline
  8
Shape2DView006
 90
5.000000000
 70
0
 43
0
 10
2141.806067218
 20
2730.797998406
 10
2136.806067218
 20
2730.797998406
 10
2131.806067218
 20
2730.797998406
 10
2126.806067218
 20
2730.797998406
 10
2126.516265895
 20
2730.797998406
  0
LWPOLYLINE
  5
B24
330
A02
100
AcDbEntity
100
AcDbPolyline
  8
Shape2DView006
 90
23.000000000
 70
0
 43
0
 10
2082.382425748
 20
2825.889426728
 10
2085.086570295
 20
2821.683763609
 10
2087.746404233
 20
2817.450264859
 10
2090.361385427
 20
2813.188589912
 10
2092.886592788
 20
2808.873122294
 10
2095.366363740
 20
2804.531697978
 10
2097.799578979
 20
2800.163693445
 10
2100.141397975
 20
2795.746029972
 10
2102.436733782
 20
2791.304333871
 10
2104.683867604
 20
2786.837747973
 10
2106.838169374
 20
2782.325676899
 10
2108.945023351
 20
2777.791539773
 10
2111.002089461
 20
2773.234295099
 10
2112.965076932
 20
2768.635771737
 10
2114.879734920
 20
2764.017187405
 10
2116.743084329
 20
2759.377367476
 10
2118.511297284
 20
2754.700499280
 10
2120.230383473
 20
2750.005610226
 10
2121.896711318
 20
2745.291445240
 10
2123.467032652
 20
2740.544477659
 10
2124.987516130
 20
2735.781560962
 10
2126.453866794
 20
2731.001412876
 10
2126.516265895
 20
2730.797998406
  0
LINE
  5
B25
330
A02
100
AcDbEntity
  8
Shape2DView006
100
AcDbLine
 10
1185.485207540
 20
2961.974063669
 30
0.000000000
 11
1167.543514173
 21
2972.754520652
 31
0.000000000
  0
ARC
  5
B26
330
A02
100
AcDbEntity
  8
Shape2DView006
100
AcDbCircle
 10
904.996611553
 20
3174.194166119
 30
0.000000000
 40
330.921148978
100
AcDbArc
 50
-57.442511491
 51
-37.497296930
  0
LINE
  5
B27
330
A02
100
AcDbEntity
  8
Shape2DView006
100
AcDbLine
 10
1093.223475620
 20
2891.584850244
 30
0.000000000
 11
1083.080360625
 21
2895.276642185
 31
0.000000000
  0
LINE
  5
B28
330
A02
100
AcDbEntity
  8
Shape2DView006
100
AcDbLine
 10
1093.223475620
 20
2891.584850244
 30
0.000000000
 11
1084.672972037
 21
2868.092534724
 31
0.000000000
  0
LINE
  5
B29
330
A02
100
AcDbEntity
  8
Shape2DView006
100
AcDbLine
 10
1084.672972037
 20
2868.092534724
 30
0.000000000
 11
1067.003723999
 21
2874.523615072
 31
0.000000000
  0
ARC
  5
B2A
330
A02
100
AcDbEntity
  8
Shape2DView006
100
AcDbCircle
 10
466.685589244
 20
3067.035029395
 30
0.000000000
 40
630.430414527
100
AcDbArc
 50
-32.221933353
 51
-17.780127461
  0
LWPOLYLINE
  5
B2B
330
A02
100
AcDbEntity
100
AcDbPolyline
  8
Shape2DView006
 90
2.000000000
 70
0
 43
0
 10
1000.000000000
 20
2730.797998406
 10
1000.022857179
 20
2730.889426728
  0
LWPOLYLINE
  5
B2C
330
A02
100
AcDbEntity
100
AcDbPolyline
  8
Shape2DView006
 90
3.000000000
 70
0
 43
0
 10
1009.383288417
 20
2730.797998406
 10
1004.383288417
 20
2730.797998406
 10
1000.000000000
 20
2730.797998406
  0
LWPOLYLINE
  5
B2D
330
A02
100
AcDbEntity
100
AcDbPolyline
  8
Shape2DView006
 90
6.000000000
 70
0
 43
0
 10
1009.383288417
 20
2730.797998406
 10
1009.383288417
 20
2725.797998406
 10
1009.383288417
 20
2720.797998406
 10
1009.383288417
 20
2715.797998406
 10
1009.383288417
 20
2710.797998406
 10
1009.383288417
 20
2705.837614991
  0
LINE
  5
B2E
330
A02
100
AcDbEntity
  8
Shape2DView006
100
AcDbLine
 10
1009.383288417
 20
2705.837614991
 30
0.000000000
 11
1046.883288417
 21
2705.837614991
 31
0.000000000
  0
LWPOLYLINE
  5
B2F
330
A02
100
AcDbEntity
100
AcDbPolyline
  8
Shape2DView006
 90
6.000000000
 70
0
 43
0
 10
1046.883288417
 20
2730.797998406
 10
1046.883288417
 20
2725.797998406
 10
1046.883288417
 20
2720.797998406
 10
1046.883288417
 20
2715.797998406
 10
1046.883288417
 20
2710.797998406
 10
1046.883288417
 20
2705.837614991
  0
LWPOLYLINE
  5
B30
330
A02
100
AcDbEntity
100
AcDbPolyline
  8
Shape2DView006
 90
5.000000000
 70
0
 43
0
 10
1046.883288417
 20
2730.797998406
 10
1051.883288417
 20
2730.797998406
 10
1056.883288417
 20
2730.797998406
 10
1061.883288417
 20
2730.797998406
 10
1062.173089740
 20
2730.797998406
  0
LWPOLYLINE
  5
B31
330
A02
100
AcDbEntity
100
AcDbPolyline
  8
Shape2DView006
 90
23.000000000
 70
0
 43
0
 10
1106.306929887
 20
2825.889426728
 10
1103.602785341
 20
2821.683763609
 10
1100.942951402
 20
2817.450264859
 10
1098.327970209
 20
2813.188589912
 10
1095.802762848
 20
2808.873122294
 10
1093.322991896
 20
2804.531697978
 10
1090.889776657
 20
2800.163693445
 10
1088.547957661
 20
2795.746029972
 10
1086.252621853
 20
2791.304333871
 10
1084.005488032
 20
2786.837747973
 10
1081.851186262
 20
2782.325676899
 10
1079.744332284
 20
2777.791539773
 10
1077.687266174
 20
2773.234295099
 10
1075.724278704
 20
2768.635771737
 10
1073.809620716
 20
2764.017187405
 10
1071.946271306
 20
2759.377367476
 10
1070.178058351
 20
2754.700499280
 10
1068.458972163
 20
2750.005610226
 10
1066.792644317
 20
2745.291445240
 10
1065.222322983
 20
2740.544477659
 10
1063.701839506
 20
2735.781560962
 10
1062.235488841
 20
2731.001412876
 10
1062.173089740
 20
2730.797998406
  0
LINE
  5
B32
330
A02
100
AcDbEntity
  8
Shape2DView006
100
AcDbLine
 10
1330.542000712
 20
3035.238833211
 30
0.000000000
 11
1326.095141850
 21
3039.242802915
 31
0.000000000
  0
LINE
  5
B33
330
A02
100
AcDbEntity
  8
Shape2DView006
100
AcDbLine
 10
1330.542000712
 20
3035.238833211
 30
0.000000000
 11
1313.813735553
 21
3016.660212574
 31
0.000000000
  0
LINE
  5
B34
330
A02
100
AcDbEntity
  8
Shape2DView006
100
AcDbLine
 10
1313.813735553
 20
3016.660212574
 30
0.000000000
 11
1296.383552620
 21
3032.354419780
 31
0.000000000
  0
ARC
  5
B35
330
A02
100
AcDbEntity
  8
Shape2DView006
100
AcDbCircle
 10
1117.306853222
 20
3309.172100734
 30
0.000000000
 40
329.691511502
100
AcDbArc
 50
-77.083153031
 51
-57.100684282
  0
LINE
  5
B36
330
A02
100
AcDbEntity
  8
Shape2DView006
100
AcDbLine
 10
1198.361159413
 20
2983.403246187
 30
0.000000000
 11
1191.005012425
 21
2987.823265220
 31
0.000000000
  0
ARC
  5
B37
330
A02
100
AcDbEntity
  8
Shape2DView006
100
AcDbCircle
 10
1335.488553199
 20
3407.685231941
 30
0.000000000
 40
368.562151724
100
AcDbArc
 50
-91.460435117
 51
-72.563582983
  0
LINE
  5
B38
330
A02
100
AcDbEntity
  8
Shape2DView006
100
AcDbLine
 10
1479.334759223
 20
3051.933697671
 30
0.000000000
 11
1475.196062759
 21
3057.844368776
 31
0.000000000
  0
LINE
  5
B39
330
A02
100
AcDbEntity
  8
Shape2DView006
100
AcDbLine
 10
1479.334759223
 20
3051.933697671
 30
0.000000000
 11
1458.855958116
 21
3037.594286761
 31
0.000000000
  0
LINE
  5
B3A
330
A02
100
AcDbEntity
  8
Shape2DView006
100
AcDbLine
 10
1458.855958116
 20
3037.594286761
 30
0.000000000
 11
1445.927186189
 21
3056.058486618
 31
0.000000000
  0
LINE
  5
B3B
330
A02
100
AcDbEntity
  8
Shape2DView006
100
AcDbLine
 10
1559.344677818
 20
3015.889426728
 30
0.000000000
 11
1559.344677818
 21
3052.299690326
 31
0.000000000
  0
LINE
  5
B3C
330
A02
100
AcDbEntity
  8
Shape2DView006
100
AcDbLine
 10
1629.344677818
 20
3015.889426728
 30
0.000000000
 11
1629.344677818
 21
3052.299690326
 31
0.000000000
  0
LWPOLYLINE
  5
B3D
330
A02
100
AcDbEntity
100
AcDbPolyline
  8
Shape2DView006
 90
25.000000000
 70
0
 43
0
 10
1967.575943962
 20
2935.918800637
 10
1963.256376379
 20
2938.437001563
 10
1958.917475065
 20
2940.921131900
 10
1954.540376721
 20
2943.337950073
 10
1950.126209656
 20
2945.685743639
 10
1945.693528128
 20
2947.999014963
 10
1941.208535334
 20
2950.209182295
 10
1936.706225703
 20
2952.383151150
 10
1932.170927860
 20
2954.488162666
 10
1927.603084869
 20
2956.520859156
 10
1923.019205630
 20
2958.517814983
 10
1918.390719061
 20
2960.409140467
 10
1913.747137714
 20
2962.262259780
 10
1909.075818112
 20
2964.045171214
 10
1904.376757285
 20
2965.752775661
 10
1899.664218072
 20
2967.423598519
 10
1894.914871319
 20
2968.986834080
 10
1890.152849252
 20
2970.509992921
 10
1885.368350753
 20
2971.962085929
 10
1880.561175588
 20
2973.336202121
 10
1875.743147019
 20
2974.672679164
 10
1870.896164257
 20
2975.900179922
 10
1866.039114994
 20
2977.085890443
 10
1861.164833764
 20
2978.200063896
 10
1859.726038154
 20
2978.528946822
  0
LWPOLYLINE
  5
B3E
330
A02
100
AcDbEntity
100
AcDbPolyline
  8
Shape2DView006
 90
28.000000000
 70
0
 43
0
 10
1859.726029061
 20
2978.528948789
 10
1854.833647662
 20
2979.560745400
 10
1849.939930899
 20
2980.586042660
 10
1845.037060803
 20
2981.566789736
 10
1840.131655611
 20
2982.534510980
 10
1835.218829480
 20
2983.464101970
 10
1830.302404563
 20
2984.374115639
 10
1825.380156140
 20
2985.252449549
 10
1820.453381670
 20
2986.104631769
 10
1815.522245720
 20
2986.931613176
 10
1810.585793245
 20
2987.725847778
 10
1805.646305501
 20
2988.501386836
 10
1800.700847859
 20
2989.237565365
 10
1795.753544960
 20
2989.961577818
 10
1790.799756191
 20
2990.639599554
 10
1785.845050835
 20
2991.311049834
 10
1780.883730883
 20
2991.931778707
 10
1775.921506723
 20
2992.544961435
 10
1770.953986395
 20
2993.113944555
 10
1765.984919873
 20
2993.668776656
 10
1761.011738854
 20
2994.185952207
 10
1756.036507321
 20
2994.682358380
 10
1751.058205911
 20
2995.147670175
 10
1746.077487536
 20
2995.585582899
 10
1741.094606591
 20
2995.998980386
 10
1736.109080275
 20
2996.378339931
 10
1731.122161148
 20
2996.739778196
 10
1730.037028007
 20
2996.818425680
  0
LWPOLYLINE
  5
B3F
330
A02
100
AcDbEntity
100
AcDbPolyline
  8
Shape2DView006
 90
14.000000000
 70
0
 43
0
 10
1730.037027044
 20
2996.818425745
 10
1725.047297654
 20
2997.138634642
 10
1720.055896370
 20
2997.431550712
 10
1715.062970445
 20
2997.697165347
 10
1710.068667174
 20
2997.935470729
 10
1705.073133894
 20
2998.146459822
 10
1700.076517975
 20
2998.330126378
 10
1695.078927868
 20
2998.485098228
 10
1690.080520030
 20
2998.610914688
 10
1685.081502654
 20
2998.709393962
 10
1680.082023216
 20
2998.780533172
 10
1675.082229203
 20
2998.824330227
 10
1670.082268114
 20
2998.840783822
 10
1669.327574302
 20
2998.842235516
  0
ARC
  5
B40
330
A02
100
AcDbEntity
  8
Shape2DView006
100
AcDbCircle
 10
1949.597159168
 20
2905.889426728
 30
0.000000000
 40
35.000000000
100
AcDbArc
 50
-90.000000000
 51
59.090763916
  0
ARC
  5
B41
330
A02
100
AcDbEntity
  8
Shape2DView006
100
AcDbCircle
 10
1669.344677818
 20
2963.842239695
 30
0.000000000
 40
35.000000000
100
AcDbArc
 50
90.027998838
 51
180.000000000
  0
LINE
  5
B42
330
A02
100
AcDbEntity
  8
Shape2DView006
100
AcDbLine
 10
1669.344677818
 20
2870.889426728
 30
0.000000000
 11
1949.597159168
 21
2870.889426728
 31
0.000000000
  0
LINE
  5
B43
330
A02
100
AcDbEntity
  8
Shape2DView006
100
AcDbLine
 10
1634.344677818
 20
2963.842239695
 30
0.000000000
 11
1634.344677818
 21
2905.889426728
 31
0.000000000
  0
ARC
  5
B44
330
A02
100
AcDbEntity
  8
Shape2DView006
100
AcDbCircle
 10
1669.344677818
 20
2905.889426728
 30
0.000000000
 40
35.000000000
100
AcDbArc
 50
180.000000000
 51
-90.000000000
  0
LWPOLYLINE
  5
B45
330
A02
100
AcDbEntity
100
AcDbPolyline
  8
Shape2DView006
 90
25.000000000
 70
0
 43
0
 10
1221.113411674
 20
2935.918800637
 10
1225.432979256
 20
2938.437001563
 10
1229.771880570
 20
2940.921131900
 10
1234.148978915
 20
2943.337950073
 10
1238.563145980
 20
2945.685743639
 10
1242.995827507
 20
2947.999014963
 10
1247.480820302
 20
2950.209182295
 10
1251.983129933
 20
2952.383151150
 10
1256.518427775
 20
2954.488162666
 10
1261.086270766
 20
2956.520859156
 10
1265.670150006
 20
2958.517814983
 10
1270.298636574
 20
2960.409140467
 10
1274.942217922
 20
2962.262259780
 10
1279.613537524
 20
2964.045171214
 10
1284.312598350
 20
2965.752775661
 10
1289.025137563
 20
2967.423598519
 10
1293.774484316
 20
2968.986834080
 10
1298.536506383
 20
2970.509992921
 10
1303.321004883
 20
2971.962085929
 10
1308.128180047
 20
2973.336202121
 10
1312.946208617
 20
2974.672679164
 10
1317.793191378
 20
2975.900179922
 10
1322.650240641
 20
2977.085890443
 10
1327.524521872
 20
2978.200063896
 10
1328.963317482
 20
2978.528946822
  0
LWPOLYLINE
  5
B46
330
A02
100
AcDbEntity
100
AcDbPolyline
  8
Shape2DView006
 90
28.000000000
 70
0
 43
0
 10
1328.963326575
 20
2978.528948789
 10
1333.855707974
 20
2979.560745400
 10
1338.749424737
 20
2980.586042660
 10
1343.652294832
 20
2981.566789736
 10
1348.557700025
 20
2982.534510980
 10
1353.470526156
 20
2983.464101970
 10
1358.386951072
 20
2984.374115639
 10
1363.309199496
 20
2985.252449549
 10
1368.235973966
 20
2986.104631769
 10
1373.167109915
 20
2986.931613176
 10
1378.103562391
 20
2987.725847778
 10
1383.043050134
 20
2988.501386836
 10
1387.988507777
 20
2989.237565365
 10
1392.935810675
 20
2989.961577818
 10
1397.889599445
 20
2990.639599554
 10
1402.844304800
 20
2991.311049834
 10
1407.805624752
 20
2991.931778707
 10
1412.767848912
 20
2992.544961435
 10
1417.735369240
 20
2993.113944555
 10
1422.704435762
 20
2993.668776656
 10
1427.677616782
 20
2994.185952207
 10
1432.652848314
 20
2994.682358380
 10
1437.631149725
 20
2995.147670175
 10
1442.611868099
 20
2995.585582899
 10
1447.594749045
 20
2995.998980386
 10
1452.580275361
 20
2996.378339931
 10
1457.567194488
 20
2996.739778196
 10
1458.652327628
 20
2996.818425680
  0
LWPOLYLINE
  5
B47
330
A02
100
AcDbEntity
100
AcDbPolyline
  8
Shape2DView006
 90
14.000000000
 70
0
 43
0
 10
1458.652328592
 20
2996.818425745
 10
1463.642057982
 20
2997.138634642
 10
1468.633459265
 20
2997.431550712
 10
1473.626385191
 20
2997.697165347
 10
1478.620688461
 20
2997.935470729
 10
1483.616221742
 20
2998.146459822
 10
1488.612837661
 20
2998.330126378
 10
1493.610427768
 20
2998.485098228
 10
1498.608835605
 20
2998.610914688
 10
1503.607852981
 20
2998.709393962
 10
1508.607332420
 20
2998.780533172
 10
1513.607126433
 20
2998.824330227
 10
1518.607087522
 20
2998.840783822
 10
1519.361781334
 20
2998.842235516
  0
ARC
  5
B48
330
A02
100
AcDbEntity
  8
Shape2DView006
100
AcDbCircle
 10
1519.344677818
 20
2963.842239695
 30
0.000000000
 40
35.000000000
100
AcDbArc
 50
0.000000000
 51
89.972001162
  0
LINE
  5
B49
330
A02
100
AcDbEntity
  8
Shape2DView006
100
AcDbLine
 10
1554.344677818
 20
2963.842239695
 30
0.000000000
 11
1554.344677818
 21
2905.889426728
 31
0.000000000
  0
ARC
  5
B4A
330
A02
100
AcDbEntity
  8
Shape2DView006
100
AcDbCircle
 10
1519.344677818
 20
2905.889426728
 30
0.000000000
 40
35.000000000
100
AcDbArc
 50
-90.000000000
 51
0.000000000
  0
ARC
  5
B4B
330
A02
100
AcDbEntity
  8
Shape2DView006
100
AcDbCircle
 10
1239.092196467
 20
2905.889426728
 30
0.000000000
 40
35.000000000
100
AcDbArc
 50
120.909236084
 51
-90.000000000
  0
LINE
  5
B4C
330
A02
100
AcDbEntity
  8
Shape2DView006
100
AcDbLine
 10
1519.344677818
 20
2870.889426728
 30
0.000000000
 11
1239.092196467
 21
2870.889426728
 31
0.000000000
  0
ARC
  5
B4D
330
A02
100
AcDbEntity
  8
Shape2DView006
100
AcDbCircle
 10
1648.077326650
 20
3409.315881587
 30
0.000000000
 40
357.507304757
100
AcDbArc
 50
-86.596533044
 51
-79.456732711
  0
ARC
  5
B4E
330
A02
100
AcDbEntity
  8
Shape2DView006
100
AcDbCircle
 10
1648.077326650
 20
3409.315881587
 30
0.000000000
 40
357.507304757
100
AcDbArc
 50
-92.201399609
 51
-86.596533044
  0
ARC
  5
B4F
330
A02
100
AcDbEntity
  8
Shape2DView006
100
AcDbCircle
 10
1648.077326650
 20
3409.315881587
 30
0.000000000
 40
357.507304757
100
AcDbArc
 50
-93.003556693
 51
-92.201399609
  0
LINE
  5
B50
330
A02
100
AcDbEntity
  8
Shape2DView006
100
AcDbLine
 10
1559.344677818
 20
3015.889426728
 30
0.000000000
 11
1629.344677818
 21
3015.889426728
 31
0.000000000
  0
ARC
  5
B51
330
A02
100
AcDbEntity
  8
Shape2DView006
100
AcDbCircle
 10
1540.612028985
 20
3409.315881587
 30
0.000000000
 40
357.507304757
100
AcDbArc
 50
-87.798600391
 51
-86.996443307
  0
ARC
  5
B52
330
A02
100
AcDbEntity
  8
Shape2DView006
100
AcDbCircle
 10
1540.612028985
 20
3409.315881587
 30
0.000000000
 40
357.507304757
100
AcDbArc
 50
-93.403466956
 51
-87.798600391
  0
ARC
  5
B53
330
A02
100
AcDbEntity
  8
Shape2DView006
100
AcDbCircle
 10
1540.612028985
 20
3409.315881587
 30
0.000000000
 40
357.507304757
100
AcDbArc
 50
-100.543267289
 51
-93.403466956
  0
LINE
  5
B54
330
A02
100
AcDbEntity
  8
Shape2DView006
100
AcDbLine
 10
1198.361159413
 20
2983.403246187
 30
0.000000000
 11
1185.485207540
 21
2961.974063669
 31
0.000000000
  0
LINE
  5
B55
330
A02
100
AcDbEntity
  8
Shape2DView006
100
AcDbLine
 10
2082.382425748
 20
2825.889426728
 30
0.000000000
 11
1106.306929887
 21
2825.889426728
 31
0.000000000
  0
LINE
  5
B56
330
A02
100
AcDbEntity
  8
Shape2DView006
100
AcDbLine
 10
1990.328196223
 20
2983.403246187
 30
0.000000000
 11
2003.204148095
 21
2961.974063669
 31
0.000000000
  0
LINE
  5
B57
330
A02
100
AcDbEntity
  8
Shape2DView007
100
AcDbLine
 10
1667.430544067
 20
3434.806305687
 30
0.000000000
 11
1687.909345174
 21
3420.466894778
 31
0.000000000
  0
LINE
  5
B58
330
A02
100
AcDbEntity
  8
Shape2DView007
100
AcDbLine
 10
1667.430544067
 20
3434.806305687
 30
0.000000000
 11
1672.069487480
 21
3441.431403475
 31
0.000000000
  0
LINE
  5
B59
330
A02
100
AcDbEntity
  8
Shape2DView007
100
AcDbLine
 10
1687.909345174
 20
3420.466894778
 30
0.000000000
 11
1699.925249554
 21
3437.627384668
 31
0.000000000
  0
ARC
  5
B5A
330
A02
100
AcDbEntity
  8
Shape2DView007
100
AcDbCircle
 10
1816.540200278
 20
3722.458607960
 30
0.000000000
 40
307.778934455
100
AcDbArc
 50
-112.265062373
 51
-91.581617043
  0
LINE
  5
B5B
330
A02
100
AcDbEntity
  8
Shape2DView007
100
AcDbLine
 10
1803.307000544
 20
3410.530619649
 30
0.000000000
 11
1808.045218756
 21
3414.796930491
 31
0.000000000
  0
LINE
  5
B5C
330
A02
100
AcDbEntity
  8
Shape2DView007
100
AcDbLine
 10
1803.307000544
 20
3410.530619649
 30
0.000000000
 11
1820.035265703
 21
3391.951999012
 31
0.000000000
  0
LINE
  5
B5D
330
A02
100
AcDbEntity
  8
Shape2DView007
100
AcDbLine
 10
1820.035265703
 20
3391.951999012
 30
0.000000000
 11
1836.333057851
 21
3406.626596976
 31
0.000000000
  0
ARC
  5
B5E
330
A02
100
AcDbEntity
  8
Shape2DView007
100
AcDbCircle
 10
1997.074532156
 20
3652.650545212
 30
0.000000000
 40
293.880255661
100
AcDbArc
 50
-123.158875130
 51
-101.990618072
  0
LINE
  5
B5F
330
A02
100
AcDbEntity
  8
Shape2DView007
100
AcDbLine
 10
1929.477728242
 20
3361.251005914
 30
0.000000000
 11
1936.020462132
 21
3365.182277049
 31
0.000000000
  0
LINE
  5
B60
330
A02
100
AcDbEntity
  8
Shape2DView007
100
AcDbLine
 10
1929.477728242
 20
3361.251005914
 30
0.000000000
 11
1942.353680115
 21
3339.821823396
 31
0.000000000
  0
LINE
  5
B61
330
A02
100
AcDbEntity
  8
Shape2DView007
100
AcDbLine
 10
1942.353680115
 20
3339.821823396
 30
0.000000000
 11
1959.773797807
 21
3350.288886096
 31
0.000000000
  0
ARC
  5
B62
330
A02
100
AcDbEntity
  8
Shape2DView007
100
AcDbCircle
 10
2194.685441008
 20
3530.146327587
 30
0.000000000
 40
295.858377220
100
AcDbArc
 50
-142.560934119
 51
-121.463762917
  0
LINE
  5
B63
330
A02
100
AcDbEntity
  8
Shape2DView007
100
AcDbLine
 10
2030.930012353
 20
3274.392240653
 30
0.000000000
 11
2040.259438377
 21
3277.787874028
 31
0.000000000
  0
LINE
  5
B64
330
A02
100
AcDbEntity
  8
Shape2DView007
100
AcDbLine
 10
2030.930012353
 20
3274.392240653
 30
0.000000000
 11
2039.480515937
 21
3250.899925133
 31
0.000000000
  0
LINE
  5
B65
330
A02
100
AcDbEntity
  8
Shape2DView007
100
AcDbLine
 10
2039.480515937
 20
3250.899925133
 30
0.000000000
 11
2056.528549422
 21
3257.104901875
 31
0.000000000
  0
ARC
  5
B66
330
A02
100
AcDbEntity
  8
Shape2DView007
100
AcDbCircle
 10
2583.052272789
 20
3425.458374779
 30
0.000000000
 40
552.783975081
100
AcDbArc
 50
-162.268568330
 51
-146.859920062
  0
LWPOLYLINE
  5
B67
330
A02
100
AcDbEntity
100
AcDbPolyline
  8
Shape2DView007
 90
3.000000000
 70
0
 43
0
 10
2112.050286305
 20
3123.258100707
 10
2117.050286305
 20
3123.258100707
 10
2120.186074566
 20
3123.258100707
  0
LWPOLYLINE
  5
B68
330
A02
100
AcDbEntity
100
AcDbPolyline
  8
Shape2DView007
 90
7.000000000
 70
0
 43
0
 10
2112.050286305
 20
3123.258100707
 10
2112.050286305
 20
3118.258100707
 10
2112.050286305
 20
3113.258100707
 10
2112.050286305
 20
3108.258100707
 10
2112.050286305
 20
3103.258100707
 10
2112.050286305
 20
3098.258100707
 10
2112.050286305
 20
3098.087195012
  0
LWPOLYLINE
  5
B69
330
A02
100
AcDbEntity
100
AcDbPolyline
  8
Shape2DView007
 90
9.000000000
 70
0
 43
0
 10
2074.550286305
 20
3098.087195012
 10
2079.550286305
 20
3098.087195012
 10
2084.550286305
 20
3098.087195012
 10
2089.550286305
 20
3098.087195012
 10
2094.550286305
 20
3098.087195012
 10
2099.550286305
 20
3098.087195012
 10
2104.550286305
 20
3098.087195012
 10
2109.550286305
 20
3098.087195012
 10
2112.050286305
 20
3098.087195012
  0
LWPOLYLINE
  5
B6A
330
A02
100
AcDbEntity
100
AcDbPolyline
  8
Shape2DView007
 90
7.000000000
 70
0
 43
0
 10
2074.550286305
 20
3123.258100707
 10
2074.550286305
 20
3118.258100707
 10
2074.550286305
 20
3113.258100707
 10
2074.550286305
 20
3108.258100707
 10
2074.550286305
 20
3103.258100707
 10
2074.550286305
 20
3098.258100707
 10
2074.550286305
 20
3098.087195012
  0
LWPOLYLINE
  5
B6B
330
A02
100
AcDbEntity
100
AcDbPolyline
  8
Shape2DView007
 90
5.000000000
 70
0
 43
0
 10
2074.550286305
 20
3123.258100707
 10
2069.550286305
 20
3123.258100707
 10
2064.550286305
 20
3123.258100707
 10
2059.550286305
 20
3123.258100707
 10
2057.841689918
 20
3123.258100707
  0
LWPOLYLINE
  5
B6C
330
A02
100
AcDbEntity
100
AcDbPolyline
  8
Shape2DView007
 90
64.000000000
 70
0
 43
0
 10
1846.128561872
 20
3340.414907662
 10
1850.805635253
 20
3338.647145068
 10
1855.482708635
 20
3336.879382475
 10
1860.159782016
 20
3335.111619881
 10
1864.836855397
 20
3333.343857288
 10
1869.448741035
 20
3331.419719496
 10
1873.996570022
 20
3329.341919816
 10
1878.544399008
 20
3327.264120136
 10
1883.092227995
 20
3325.186320456
 10
1887.638748939
 20
3323.105894892
 10
1892.036811775
 20
3320.727440922
 10
1896.434874612
 20
3318.348986952
 10
1900.832937448
 20
3315.970532982
 10
1905.231000284
 20
3313.592079012
 10
1909.542037761
 20
3311.064872968
 10
1913.770489272
 20
3308.396503088
 10
1917.998940784
 20
3305.728133209
 10
1922.227392295
 20
3303.059763329
 10
1926.452557879
 20
3300.386554511
 10
1930.492319173
 20
3297.440314758
 10
1934.532080468
 20
3294.494075004
 10
1938.571841762
 20
3291.547835251
 10
1942.611603056
 20
3288.601595497
 10
1946.543406565
 20
3285.517317367
 10
1950.376251464
 20
3282.306507504
 10
1954.209096364
 20
3279.095697641
 10
1958.041941264
 20
3275.884887779
 10
1961.868938889
 20
3272.667555980
 10
1965.477575210
 20
3269.206668247
 10
1969.086211532
 20
3265.745780515
 10
1972.694847854
 20
3262.284892782
 10
1976.303484176
 20
3258.824005050
 10
1979.784563660
 20
3255.238759107
 10
1983.152710929
 20
3251.543412848
 10
1986.520858198
 20
3247.848066589
 10
1989.889005467
 20
3244.152720330
 10
1993.248275032
 20
3240.449812379
 10
1996.360737927
 20
3236.536683871
 10
1999.473200823
 20
3232.623555362
 10
2002.585663719
 20
3228.710426854
 10
2005.698126614
 20
3224.797298346
 10
2008.665200754
 20
3220.776298168
 10
2011.507937799
 20
3216.663045673
 10
2014.350674844
 20
3212.549793177
 10
2017.193411889
 20
3208.436540682
 10
2020.023908660
 20
3204.315422733
 10
2022.584095518
 20
3200.020606875
 10
2025.144282377
 20
3195.725791018
 10
2027.704469235
 20
3191.430975160
 10
2030.264656093
 20
3187.136159302
 10
2032.663790755
 20
3182.752529645
 10
2034.929877873
 20
3178.295529625
 10
2037.195964991
 20
3173.838529606
 10
2039.462052109
 20
3169.381529586
 10
2041.712345818
 20
3164.917156373
 10
2043.674110337
 20
3160.318082556
 10
2045.635874855
 20
3155.719008739
 10
2047.597639373
 20
3151.119934922
 10
2049.559403892
 20
3146.520861105
 10
2051.346989410
 20
3141.854310462
 10
2052.995581401
 20
3137.133913821
 10
2054.644173392
 20
3132.413517180
 10
2056.292765383
 20
3127.693120539
 10
2057.841689918
 20
3123.258100707
  0
ARC
  5
B6D
330
A02
100
AcDbEntity
  8
Shape2DView007
100
AcDbCircle
 10
1865.444497350
 20
3397.220670016
 30
0.000000000
 40
60.000000000
100
AcDbArc
 50
-108.820600215
 51
-108.779819978
  0
LWPOLYLINE
  5
B6E
330
A02
100
AcDbEntity
100
AcDbPolyline
  8
Shape2DView007
 90
24.000000000
 70
0
 43
0
 10
1738.801200756
 20
3369.719374379
 10
1743.692415247
 20
3368.682060151
 10
1748.579784474
 20
3367.627001805
 10
1753.461625373
 20
3366.546432771
 10
1758.335461898
 20
3365.430444886
 10
1763.205208170
 20
3364.296767849
 10
1768.067155056
 20
3363.129946318
 10
1772.922360467
 20
3361.935572182
 10
1777.773231355
 20
3360.723566978
 10
1782.613760347
 20
3359.470858281
 10
1787.449086179
 20
3358.198405019
 10
1792.278336842
 20
3356.902898155
 10
1797.097427880
 20
3355.570178268
 10
1801.911630651
 20
3354.219972646
 10
1806.717190298
 20
3352.839177047
 10
1811.514161457
 20
3351.428981956
 10
1816.306002978
 20
3350.001370304
 10
1821.086365349
 20
3348.535718364
 10
1825.859983139
 20
3347.048410808
 10
1830.627184466
 20
3345.540501161
 10
1835.381897524
 20
3343.993709643
 10
1840.130934316
 20
3342.429671759
 10
1844.870693892
 20
3340.837604186
 10
1846.088135300
 20
3340.428670155
  0
LINE
  5
B6F
330
A02
100
AcDbEntity
  8
Shape2DView007
100
AcDbLine
 10
1452.755530498
 20
3434.806305687
 30
0.000000000
 11
1432.276729391
 21
3420.466894778
 31
0.000000000
  0
LINE
  5
B70
330
A02
100
AcDbEntity
  8
Shape2DView007
100
AcDbLine
 10
1432.276729391
 20
3420.466894778
 30
0.000000000
 11
1420.260825011
 21
3437.627384668
 31
0.000000000
  0
ARC
  5
B71
330
A02
100
AcDbEntity
  8
Shape2DView007
100
AcDbCircle
 10
1303.645874288
 20
3722.458607960
 30
0.000000000
 40
307.778934455
100
AcDbArc
 50
-88.418382957
 51
-67.734937627
  0
LINE
  5
B72
330
A02
100
AcDbEntity
  8
Shape2DView007
100
AcDbLine
 10
1316.879074022
 20
3410.530619649
 30
0.000000000
 11
1312.140855809
 21
3414.796930491
 31
0.000000000
  0
LINE
  5
B73
330
A02
100
AcDbEntity
  8
Shape2DView007
100
AcDbLine
 10
1316.879074022
 20
3410.530619649
 30
0.000000000
 11
1300.150808863
 21
3391.951999012
 31
0.000000000
  0
LINE
  5
B74
330
A02
100
AcDbEntity
  8
Shape2DView007
100
AcDbLine
 10
1300.150808863
 20
3391.951999012
 30
0.000000000
 11
1283.853016714
 21
3406.626596976
 31
0.000000000
  0
ARC
  5
B75
330
A02
100
AcDbEntity
  8
Shape2DView007
100
AcDbCircle
 10
1123.111542409
 20
3652.650545212
 30
0.000000000
 40
293.880255661
100
AcDbArc
 50
-78.009381928
 51
-56.841124870
  0
LINE
  5
B76
330
A02
100
AcDbEntity
  8
Shape2DView007
100
AcDbLine
 10
1190.708346323
 20
3361.251005914
 30
0.000000000
 11
1184.165612434
 21
3365.182277049
 31
0.000000000
  0
LINE
  5
B77
330
A02
100
AcDbEntity
  8
Shape2DView007
100
AcDbLine
 10
1190.708346323
 20
3361.251005914
 30
0.000000000
 11
1177.832394451
 21
3339.821823396
 31
0.000000000
  0
LINE
  5
B78
330
A02
100
AcDbEntity
  8
Shape2DView007
100
AcDbLine
 10
1177.832394451
 20
3339.821823396
 30
0.000000000
 11
1160.412276759
 21
3350.288886096
 31
0.000000000
  0
ARC
  5
B79
330
A02
100
AcDbEntity
  8
Shape2DView007
100
AcDbCircle
 10
925.500633557
 20
3530.146327587
 30
0.000000000
 40
295.858377220
100
AcDbArc
 50
-58.536237083
 51
-37.439065881
  0
LINE
  5
B7A
330
A02
100
AcDbEntity
  8
Shape2DView007
100
AcDbLine
 10
1089.256062212
 20
3274.392240653
 30
0.000000000
 11
1079.926636189
 21
3277.787874028
 31
0.000000000
  0
LINE
  5
B7B
330
A02
100
AcDbEntity
  8
Shape2DView007
100
AcDbLine
 10
1089.256062212
 20
3274.392240653
 30
0.000000000
 11
1080.705558629
 21
3250.899925133
 31
0.000000000
  0
LINE
  5
B7C
330
A02
100
AcDbEntity
  8
Shape2DView007
100
AcDbLine
 10
1080.705558629
 20
3250.899925133
 30
0.000000000
 11
1063.657525143
 21
3257.104901875
 31
0.000000000
  0
ARC
  5
B7D
330
A02
100
AcDbEntity
  8
Shape2DView007
100
AcDbCircle
 10
537.133801777
 20
3425.458374779
 30
0.000000000
 40
552.783975081
100
AcDbArc
 50
-33.140079938
 51
-17.731431670
  0
LWPOLYLINE
  5
B7E
330
A02
100
AcDbEntity
100
AcDbPolyline
  8
Shape2DView007
 90
3.000000000
 70
0
 43
0
 10
1008.135788261
 20
3123.258100707
 10
1003.135788261
 20
3123.258100707
 10
1000.000000000
 20
3123.258100707
  0
LWPOLYLINE
  5
B7F
330
A02
100
AcDbEntity
100
AcDbPolyline
  8
Shape2DView007
 90
7.000000000
 70
0
 43
0
 10
1008.135788261
 20
3123.258100707
 10
1008.135788261
 20
3118.258100707
 10
1008.135788261
 20
3113.258100707
 10
1008.135788261
 20
3108.258100707
 10
1008.135788261
 20
3103.258100707
 10
1008.135788261
 20
3098.258100707
 10
1008.135788261
 20
3098.087195012
  0
LWPOLYLINE
  5
B80
330
A02
100
AcDbEntity
100
AcDbPolyline
  8
Shape2DView007
 90
9.000000000
 70
0
 43
0
 10
1045.635788261
 20
3098.087195012
 10
1040.635788261
 20
3098.087195012
 10
1035.635788261
 20
3098.087195012
 10
1030.635788261
 20
3098.087195012
 10
1025.635788261
 20
3098.087195012
 10
1020.635788261
 20
3098.087195012
 10
1015.635788261
 20
3098.087195012
 10
1010.635788261
 20
3098.087195012
 10
1008.135788261
 20
3098.087195012
  0
LWPOLYLINE
  5
B81
330
A02
100
AcDbEntity
100
AcDbPolyline
  8
Shape2DView007
 90
7.000000000
 70
0
 43
0
 10
1045.635788261
 20
3123.258100707
 10
1045.635788261
 20
3118.258100707
 10
1045.635788261
 20
3113.258100707
 10
1045.635788261
 20
3108.258100707
 10
1045.635788261
 20
3103.258100707
 10
1045.635788261
 20
3098.258100707
 10
1045.635788261
 20
3098.087195012
  0
LWPOLYLINE
  5
B82
330
A02
100
AcDbEntity
100
AcDbPolyline
  8
Shape2DView007
 90
5.000000000
 70
0
 43
0
 10
1045.635788261
 20
3123.258100707
 10
1050.635788261
 20
3123.258100707
 10
1055.635788261
 20
3123.258100707
 10
1060.635788261
 20
3123.258100707
 10
1062.344384648
 20
3123.258100707
  0
LWPOLYLINE
  5
B83
330
A02
100
AcDbEntity
100
AcDbPolyline
  8
Shape2DView007
 90
64.000000000
 70
0
 43
0
 10
1274.057512694
 20
3340.414907662
 10
1269.380439312
 20
3338.647145068
 10
1264.703365931
 20
3336.879382475
 10
1260.026292550
 20
3335.111619881
 10
1255.349219169
 20
3333.343857288
 10
1250.737333531
 20
3331.419719496
 10
1246.189504544
 20
3329.341919816
 10
1241.641675558
 20
3327.264120136
 10
1237.093846571
 20
3325.186320456
 10
1232.547325627
 20
3323.105894892
 10
1228.149262791
 20
3320.727440922
 10
1223.751199954
 20
3318.348986952
 10
1219.353137118
 20
3315.970532982
 10
1214.955074281
 20
3313.592079012
 10
1210.644036805
 20
3311.064872968
 10
1206.415585293
 20
3308.396503088
 10
1202.187133782
 20
3305.728133209
 10
1197.958682270
 20
3303.059763329
 10
1193.733516686
 20
3300.386554511
 10
1189.693755392
 20
3297.440314758
 10
1185.653994098
 20
3294.494075004
 10
1181.614232804
 20
3291.547835251
 10
1177.574471509
 20
3288.601595497
 10
1173.642668001
 20
3285.517317367
 10
1169.809823101
 20
3282.306507504
 10
1165.976978202
 20
3279.095697641
 10
1162.144133302
 20
3275.884887779
 10
1158.317135677
 20
3272.667555980
 10
1154.708499355
 20
3269.206668247
 10
1151.099863033
 20
3265.745780515
 10
1147.491226711
 20
3262.284892782
 10
1143.882590389
 20
3258.824005050
 10
1140.401510906
 20
3255.238759107
 10
1137.033363636
 20
3251.543412848
 10
1133.665216367
 20
3247.848066589
 10
1130.297069098
 20
3244.152720330
 10
1126.937799534
 20
3240.449812379
 10
1123.825336638
 20
3236.536683871
 10
1120.712873743
 20
3232.623555362
 10
1117.600410847
 20
3228.710426854
 10
1114.487947951
 20
3224.797298346
 10
1111.520873812
 20
3220.776298168
 10
1108.678136767
 20
3216.663045673
 10
1105.835399722
 20
3212.549793177
 10
1102.992662676
 20
3208.436540682
 10
1100.162165905
 20
3204.315422733
 10
1097.601979047
 20
3200.020606875
 10
1095.041792189
 20
3195.725791018
 10
1092.481605331
 20
3191.430975160
 10
1089.921418473
 20
3187.136159302
 10
1087.522283811
 20
3182.752529645
 10
1085.256196693
 20
3178.295529625
 10
1082.990109575
 20
3173.838529606
 10
1080.724022457
 20
3169.381529586
 10
1078.473728747
 20
3164.917156373
 10
1076.511964229
 20
3160.318082556
 10
1074.550199711
 20
3155.719008739
 10
1072.588435192
 20
3151.119934922
 10
1070.626670674
 20
3146.520861105
 10
1068.839085156
 20
3141.854310462
 10
1067.190493165
 20
3137.133913821
 10
1065.541901174
 20
3132.413517180
 10
1063.893309183
 20
3127.693120539
 10
1062.344384648
 20
3123.258100707
  0
ARC
  5
B84
330
A02
100
AcDbEntity
  8
Shape2DView007
100
AcDbCircle
 10
1254.741577216
 20
3397.220670016
 30
0.000000000
 40
60.000000000
100
AcDbArc
 50
-71.220180022
 51
-71.179399785
  0
LWPOLYLINE
  5
B85
330
A02
100
AcDbEntity
100
AcDbPolyline
  8
Shape2DView007
 90
24.000000000
 70
0
 43
0
 10
1381.384873809
 20
3369.719374379
 10
1376.493659319
 20
3368.682060151
 10
1371.606290091
 20
3367.627001805
 10
1366.724449193
 20
3366.546432771
 10
1361.850612668
 20
3365.430444886
 10
1356.980866395
 20
3364.296767849
 10
1352.118919510
 20
3363.129946318
 10
1347.263714098
 20
3361.935572182
 10
1342.412843210
 20
3360.723566978
 10
1337.572314218
 20
3359.470858281
 10
1332.736988386
 20
3358.198405019
 10
1327.907737723
 20
3356.902898155
 10
1323.088646686
 20
3355.570178268
 10
1318.274443914
 20
3354.219972646
 10
1313.468884268
 20
3352.839177047
 10
1308.671913109
 20
3351.428981956
 10
1303.880071587
 20
3350.001370304
 10
1299.099709217
 20
3348.535718364
 10
1294.326091427
 20
3347.048410808
 10
1289.558890099
 20
3345.540501161
 10
1284.804177041
 20
3343.993709643
 10
1280.055140250
 20
3342.429671759
 10
1275.315380673
 20
3340.837604186
 10
1274.097939265
 20
3340.428670155
  0
LINE
  5
B86
330
A02
100
AcDbEntity
  8
Shape2DView007
100
AcDbLine
 10
1452.755530498
 20
3434.806305687
 30
0.000000000
 11
1448.116587086
 21
3441.431403475
 31
0.000000000
  0
LINE
  5
B87
330
A02
100
AcDbEntity
  8
Shape2DView007
100
AcDbLine
 10
1554.093037283
 20
3408.441165303
 30
0.000000000
 11
1554.093037283
 21
3409.719374379
 31
0.000000000
  0
LINE
  5
B88
330
A02
100
AcDbEntity
  8
Shape2DView007
100
AcDbLine
 10
1554.093037283
 20
3409.719374379
 30
0.000000000
 11
1525.093037283
 21
3409.719374379
 31
0.000000000
  0
LINE
  5
B89
330
A02
100
AcDbEntity
  8
Shape2DView007
100
AcDbLine
 10
1525.093037283
 20
3409.719374379
 30
0.000000000
 11
1525.093037283
 21
3441.917142663
 31
0.000000000
  0
LINE
  5
B8A
330
A02
100
AcDbEntity
  8
Shape2DView007
100
AcDbLine
 10
1566.093037283
 20
3408.441165303
 30
0.000000000
 11
1566.093037283
 21
3409.719374379
 31
0.000000000
  0
LINE
  5
B8B
330
A02
100
AcDbEntity
  8
Shape2DView007
100
AcDbLine
 10
1566.093037283
 20
3409.719374379
 30
0.000000000
 11
1595.093037283
 21
3409.719374379
 31
0.000000000
  0
LINE
  5
B8C
330
A02
100
AcDbEntity
  8
Shape2DView007
100
AcDbLine
 10
1595.093037283
 20
3409.719374379
 30
0.000000000
 11
1595.093037283
 21
3441.917142663
 31
0.000000000
  0
ARC
  5
B8D
330
A02
100
AcDbEntity
  8
Shape2DView007
100
AcDbCircle
 10
1635.568001509
 20
3756.518389906
 30
0.000000000
 40
317.194211006
100
AcDbArc
 50
-96.421387792
 51
-83.391983197
  0
ARC
  5
B8E
330
A02
100
AcDbEntity
  8
Shape2DView007
100
AcDbCircle
 10
1635.568001509
 20
3756.518389906
 30
0.000000000
 40
317.194211006
100
AcDbArc
 50
-97.331106422
 51
-96.421387792
  0
LINE
  5
B8F
330
A02
100
AcDbEntity
  8
Shape2DView007
100
AcDbLine
 10
1554.093037283
 20
3408.441165303
 30
0.000000000
 11
1566.093037283
 21
3408.441165303
 31
0.000000000
  0
ARC
  5
B90
330
A02
100
AcDbEntity
  8
Shape2DView007
100
AcDbCircle
 10
1484.618073056
 20
3756.518389906
 30
0.000000000
 40
317.194211006
100
AcDbArc
 50
-83.578612208
 51
-82.668893578
  0
ARC
  5
B91
330
A02
100
AcDbEntity
  8
Shape2DView007
100
AcDbCircle
 10
1484.618073056
 20
3756.518389906
 30
0.000000000
 40
317.194211006
100
AcDbArc
 50
-96.608016803
 51
-83.578612208
  0
LINE
  5
B92
330
A02
100
AcDbEntity
  8
Shape2DView007
100
AcDbLine
 10
1738.801200756
 20
3369.719374379
 30
0.000000000
 11
1381.384873809
 21
3369.719374379
 31
0.000000000
  0
LINE
  5
B93
330
A02
100
AcDbEntity
  8
Shape2DView008
100
AcDbLine
 10
1543.097729039
 20
3803.855042248
 30
0.000000000
 11
1549.552644331
 21
3813.073616656
 31
0.000000000
  0
LINE
  5
B94
330
A02
100
AcDbEntity
  8
Shape2DView008
100
AcDbLine
 10
1563.576530146
 20
3789.515631339
 30
0.000000000
 11
1573.592126306
 21
3803.819385032
 31
0.000000000
  0
LINE
  5
B95
330
A02
100
AcDbEntity
  8
Shape2DView008
100
AcDbLine
 10
1646.732574804
 20
3761.150597228
 30
0.000000000
 11
1653.670896182
 21
3767.397889858
 31
0.000000000
  0
LINE
  5
B96
330
A02
100
AcDbEntity
  8
Shape2DView008
100
AcDbLine
 10
1646.732574804
 20
3761.150597228
 30
0.000000000
 11
1663.460839963
 21
3742.571976591
 31
0.000000000
  0
LINE
  5
B97
330
A02
100
AcDbEntity
  8
Shape2DView008
100
AcDbLine
 10
1663.460839963
 20
3742.571976591
 30
0.000000000
 11
1677.203383369
 21
3754.945818253
 31
0.000000000
  0
ARC
  5
B98
330
A02
100
AcDbEntity
  8
Shape2DView008
100
AcDbCircle
 10
1798.740383650
 20
3876.492513771
 30
0.000000000
 40
171.886129831
100
AcDbArc
 50
-134.997714794
 51
-107.290642476
  0
LINE
  5
B99
330
A02
100
AcDbEntity
  8
Shape2DView008
100
AcDbLine
 10
1740.916455488
 20
3708.326562952
 30
0.000000000
 11
1747.652570519
 21
3712.374029200
 31
0.000000000
  0
LINE
  5
B9A
330
A02
100
AcDbEntity
  8
Shape2DView008
100
AcDbLine
 10
1740.916455488
 20
3708.326562952
 30
0.000000000
 11
1753.792407360
 21
3686.897380435
 31
0.000000000
  0
LINE
  5
B9B
330
A02
100
AcDbEntity
  8
Shape2DView008
100
AcDbLine
 10
1753.792407360
 20
3686.897380435
 30
0.000000000
 11
1770.326447123
 21
3696.832033801
 31
0.000000000
  0
ARC
  5
B9C
330
A02
100
AcDbEntity
  8
Shape2DView008
100
AcDbCircle
 10
1928.456261157
 20
3815.271986217
 30
0.000000000
 40
197.567862808
100
AcDbArc
 50
-143.166621739
 51
-117.331252371
  0
LINE
  5
B9D
330
A02
100
AcDbEntity
  8
Shape2DView008
100
AcDbLine
 10
1829.370271779
 20
3636.710678620
 30
0.000000000
 11
1837.746100788
 21
3639.759231066
 31
0.000000000
  0
LINE
  5
B9E
330
A02
100
AcDbEntity
  8
Shape2DView008
100
AcDbLine
 10
1829.370271779
 20
3636.710678620
 30
0.000000000
 11
1837.920775362
 21
3613.218363100
 31
0.000000000
  0
LINE
  5
B9F
330
A02
100
AcDbEntity
  8
Shape2DView008
100
AcDbLine
 10
1837.920775362
 20
3613.218363100
 30
0.000000000
 11
1854.895914969
 21
3619.396808640
 31
0.000000000
  0
ARC
  5
BA0
330
A02
100
AcDbEntity
  8
Shape2DView008
100
AcDbCircle
 10
2254.111535135
 20
3744.352755821
 30
0.000000000
 40
418.314594677
100
AcDbArc
 50
-162.619689344
 51
-144.940424044
  0
LWPOLYLINE
  5
BA1
330
A02
100
AcDbEntity
100
AcDbPolyline
  8
Shape2DView008
 90
3.000000000
 70
0
 43
0
 10
1904.545089266
 20
3504.061191020
 10
1909.545089266
 20
3504.061191020
 10
1911.697948947
 20
3504.061191020
  0
LWPOLYLINE
  5
BA2
330
A02
100
AcDbEntity
100
AcDbPolyline
  8
Shape2DView008
 90
7.000000000
 70
0
 43
0
 10
1904.545089266
 20
3504.061191020
 10
1904.545089266
 20
3499.061191020
 10
1904.545089266
 20
3494.061191020
 10
1904.545089266
 20
3489.061191020
 10
1904.545089266
 20
3484.061191020
 10
1904.545089266
 20
3479.061191020
 10
1904.545089266
 20
3478.691326736
  0
LWPOLYLINE
  5
BA3
330
A02
100
AcDbEntity
100
AcDbPolyline
  8
Shape2DView008
 90
9.000000000
 70
0
 43
0
 10
1867.045089266
 20
3478.691326736
 10
1872.045089266
 20
3478.691326736
 10
1877.045089266
 20
3478.691326736
 10
1882.045089266
 20
3478.691326736
 10
1887.045089266
 20
3478.691326736
 10
1892.045089266
 20
3478.691326736
 10
1897.045089266
 20
3478.691326736
 10
1902.045089266
 20
3478.691326736
 10
1904.545089266
 20
3478.691326736
  0
LWPOLYLINE
  5
BA4
330
A02
100
AcDbEntity
100
AcDbPolyline
  8
Shape2DView008
 90
7.000000000
 70
0
 43
0
 10
1867.045089266
 20
3504.061191020
 10
1867.045089266
 20
3499.061191020
 10
1867.045089266
 20
3494.061191020
 10
1867.045089266
 20
3489.061191020
 10
1867.045089266
 20
3484.061191020
 10
1867.045089266
 20
3479.061191020
 10
1867.045089266
 20
3478.691326736
  0
LWPOLYLINE
  5
BA5
330
A02
100
AcDbEntity
100
AcDbPolyline
  8
Shape2DView008
 90
5.000000000
 70
0
 43
0
 10
1867.045089266
 20
3504.061191020
 10
1862.045089266
 20
3504.061191020
 10
1857.045089266
 20
3504.061191020
 10
1852.045089266
 20
3504.061191020
 10
1849.279794160
 20
3504.061191020
  0
LWPOLYLINE
  5
BA6
330
A02
100
AcDbEntity
100
AcDbPolyline
  8
Shape2DView008
 90
29.000000000
 70
0
 43
0
 10
1775.099969520
 20
3617.457822380
 10
1778.758455105
 20
3614.049672849
 10
1782.411463708
 20
3610.635858799
 10
1785.940809349
 20
3607.094147440
 10
1789.458789952
 20
3603.541523951
 10
1792.854126910
 20
3599.871144279
 10
1796.231823498
 20
3596.185044107
 10
1799.488468322
 20
3592.391066710
 10
1802.720834382
 20
3588.577020271
 10
1805.834295176
 20
3584.664685689
 10
1808.916502117
 20
3580.728413711
 10
1811.882484587
 20
3576.703125151
 10
1814.809928025
 20
3572.650529455
 10
1817.624341669
 20
3568.517845600
 10
1820.392647984
 20
3564.355000266
 10
1823.051611624
 20
3560.120627543
 10
1825.656644973
 20
3555.853770344
 10
1828.156491814
 20
3551.523554903
 10
1830.594360241
 20
3547.159078034
 10
1832.931642910
 20
3542.738997749
 10
1835.198703875
 20
3538.283438218
 10
1837.370199474
 20
3533.779594653
 10
1839.463064382
 20
3529.239624222
 10
1841.465778646
 20
3524.658234087
 10
1843.381319471
 20
3520.040650227
 10
1845.212490669
 20
3515.388036762
 10
1846.947843522
 20
3510.699752046
 10
1848.604946637
 20
3505.982336518
 10
1849.279794160
 20
3504.061191020
  0
LINE
  5
BA7
330
A02
100
AcDbEntity
  8
Shape2DView008
100
AcDbLine
 10
1264.965374143
 20
3761.150597228
 30
0.000000000
 11
1258.027052764
 21
3767.397889858
 31
0.000000000
  0
LINE
  5
BA8
330
A02
100
AcDbEntity
  8
Shape2DView008
100
AcDbLine
 10
1264.965374143
 20
3761.150597228
 30
0.000000000
 11
1248.237108984
 21
3742.571976591
 31
0.000000000
  0
LINE
  5
BA9
330
A02
100
AcDbEntity
  8
Shape2DView008
100
AcDbLine
 10
1248.237108984
 20
3742.571976591
 30
0.000000000
 11
1234.494565577
 21
3754.945818253
 31
0.000000000
  0
ARC
  5
BAA
330
A02
100
AcDbEntity
  8
Shape2DView008
100
AcDbCircle
 10
1112.957565297
 20
3876.492513771
 30
0.000000000
 40
171.886129831
100
AcDbArc
 50
-72.709357524
 51
-45.002285206
  0
LINE
  5
BAB
330
A02
100
AcDbEntity
  8
Shape2DView008
100
AcDbLine
 10
1170.781493459
 20
3708.326562952
 30
0.000000000
 11
1164.045378428
 21
3712.374029200
 31
0.000000000
  0
LINE
  5
BAC
330
A02
100
AcDbEntity
  8
Shape2DView008
100
AcDbLine
 10
1170.781493459
 20
3708.326562952
 30
0.000000000
 11
1157.905541586
 21
3686.897380435
 31
0.000000000
  0
LINE
  5
BAD
330
A02
100
AcDbEntity
  8
Shape2DView008
100
AcDbLine
 10
1157.905541586
 20
3686.897380435
 30
0.000000000
 11
1141.371501824
 21
3696.832033801
 31
0.000000000
  0
ARC
  5
BAE
330
A02
100
AcDbEntity
  8
Shape2DView008
100
AcDbCircle
 10
983.241687790
 20
3815.271986217
 30
0.000000000
 40
197.567862808
100
AcDbArc
 50
-62.668747629
 51
-36.833378261
  0
LINE
  5
BAF
330
A02
100
AcDbEntity
  8
Shape2DView008
100
AcDbLine
 10
1082.327677168
 20
3636.710678620
 30
0.000000000
 11
1073.951848159
 21
3639.759231066
 31
0.000000000
  0
LINE
  5
BB0
330
A02
100
AcDbEntity
  8
Shape2DView008
100
AcDbLine
 10
1082.327677168
 20
3636.710678620
 30
0.000000000
 11
1073.777173585
 21
3613.218363100
 31
0.000000000
  0
LINE
  5
BB1
330
A02
100
AcDbEntity
  8
Shape2DView008
100
AcDbLine
 10
1073.777173585
 20
3613.218363100
 30
0.000000000
 11
1056.802033978
 21
3619.396808640
 31
0.000000000
  0
ARC
  5
BB2
330
A02
100
AcDbEntity
  8
Shape2DView008
100
AcDbCircle
 10
657.586413812
 20
3744.352755821
 30
0.000000000
 40
418.314594677
100
AcDbArc
 50
-35.059575956
 51
-17.380310656
  0
LWPOLYLINE
  5
BB3
330
A02
100
AcDbEntity
100
AcDbPolyline
  8
Shape2DView008
 90
3.000000000
 70
0
 43
0
 10
1007.152859681
 20
3504.061191020
 10
1002.152859681
 20
3504.061191020
 10
1000.000000000
 20
3504.061191020
  0
LWPOLYLINE
  5
BB4
330
A02
100
AcDbEntity
100
AcDbPolyline
  8
Shape2DView008
 90
7.000000000
 70
0
 43
0
 10
1007.152859681
 20
3504.061191020
 10
1007.152859681
 20
3499.061191020
 10
1007.152859681
 20
3494.061191020
 10
1007.152859681
 20
3489.061191020
 10
1007.152859681
 20
3484.061191020
 10
1007.152859681
 20
3479.061191020
 10
1007.152859681
 20
3478.691326736
  0
LWPOLYLINE
  5
BB5
330
A02
100
AcDbEntity
100
AcDbPolyline
  8
Shape2DView008
 90
9.000000000
 70
0
 43
0
 10
1044.652859681
 20
3478.691326736
 10
1039.652859681
 20
3478.691326736
 10
1034.652859681
 20
3478.691326736
 10
1029.652859681
 20
3478.691326736
 10
1024.652859681
 20
3478.691326736
 10
1019.652859681
 20
3478.691326736
 10
1014.652859681
 20
3478.691326736
 10
1009.652859681
 20
3478.691326736
 10
1007.152859681
 20
3478.691326736
  0
LWPOLYLINE
  5
BB6
330
A02
100
AcDbEntity
100
AcDbPolyline
  8
Shape2DView008
 90
7.000000000
 70
0
 43
0
 10
1044.652859681
 20
3504.061191020
 10
1044.652859681
 20
3499.061191020
 10
1044.652859681
 20
3494.061191020
 10
1044.652859681
 20
3489.061191020
 10
1044.652859681
 20
3484.061191020
 10
1044.652859681
 20
3479.061191020
 10
1044.652859681
 20
3478.691326736
  0
LWPOLYLINE
  5
BB7
330
A02
100
AcDbEntity
100
AcDbPolyline
  8
Shape2DView008
 90
5.000000000
 70
0
 43
0
 10
1044.652859681
 20
3504.061191020
 10
1049.652859681
 20
3504.061191020
 10
1054.652859681
 20
3504.061191020
 10
1059.652859681
 20
3504.061191020
 10
1062.418154787
 20
3504.061191020
  0
LWPOLYLINE
  5
BB8
330
A02
100
AcDbEntity
100
AcDbPolyline
  8
Shape2DView008
 90
29.000000000
 70
0
 43
0
 10
1136.597979427
 20
3617.457822380
 10
1132.939493842
 20
3614.049672849
 10
1129.286485239
 20
3610.635858799
 10
1125.757139598
 20
3607.094147440
 10
1122.239158995
 20
3603.541523951
 10
1118.843822037
 20
3599.871144279
 10
1115.466125449
 20
3596.185044107
 10
1112.209480625
 20
3592.391066710
 10
1108.977114565
 20
3588.577020271
 10
1105.863653771
 20
3584.664685689
 10
1102.781446830
 20
3580.728413711
 10
1099.815464360
 20
3576.703125151
 10
1096.888020922
 20
3572.650529455
 10
1094.073607278
 20
3568.517845600
 10
1091.305300963
 20
3564.355000266
 10
1088.646337323
 20
3560.120627543
 10
1086.041303974
 20
3555.853770344
 10
1083.541457133
 20
3551.523554903
 10
1081.103588706
 20
3547.159078034
 10
1078.766306037
 20
3542.738997749
 10
1076.499245072
 20
3538.283438218
 10
1074.327749473
 20
3533.779594653
 10
1072.234884565
 20
3529.239624222
 10
1070.232170301
 20
3524.658234087
 10
1068.316629475
 20
3520.040650227
 10
1066.485458278
 20
3515.388036762
 10
1064.750105424
 20
3510.699752046
 10
1063.093002310
 20
3505.982336518
 10
1062.418154787
 20
3504.061191020
  0
LINE
  5
BB9
330
A02
100
AcDbEntity
  8
Shape2DView008
100
AcDbLine
 10
1348.121418801
 20
3789.515631339
 30
0.000000000
 11
1338.105822641
 21
3803.819385032
 31
0.000000000
  0
LINE
  5
BBA
330
A02
100
AcDbEntity
  8
Shape2DView008
100
AcDbLine
 10
1368.600219908
 20
3803.855042248
 30
0.000000000
 11
1362.145304616
 21
3813.073616656
 31
0.000000000
  0
LINE
  5
BBB
330
A02
100
AcDbEntity
  8
Shape2DView008
100
AcDbLine
 10
1449.848974473
 20
3802.344862314
 30
0.000000000
 11
1449.848974473
 21
3807.457822380
 31
0.000000000
  0
LINE
  5
BBC
330
A02
100
AcDbEntity
  8
Shape2DView008
100
AcDbLine
 10
1449.848974473
 20
3807.457822380
 30
0.000000000
 11
1420.848974473
 21
3807.457822380
 31
0.000000000
  0
LINE
  5
BBD
330
A02
100
AcDbEntity
  8
Shape2DView008
100
AcDbLine
 10
1420.848974473
 20
3807.457822380
 30
0.000000000
 11
1420.848974473
 21
3826.429774737
 31
0.000000000
  0
LINE
  5
BBE
330
A02
100
AcDbEntity
  8
Shape2DView008
100
AcDbLine
 10
1461.848974473
 20
3802.344862314
 30
0.000000000
 11
1461.848974473
 21
3807.457822380
 31
0.000000000
  0
LINE
  5
BBF
330
A02
100
AcDbEntity
  8
Shape2DView008
100
AcDbLine
 10
1461.848974473
 20
3807.457822380
 30
0.000000000
 11
1490.848974473
 21
3807.457822380
 31
0.000000000
  0
LINE
  5
BC0
330
A02
100
AcDbEntity
  8
Shape2DView008
100
AcDbLine
 10
1490.848974473
 20
3807.457822380
 30
0.000000000
 11
1490.848974473
 21
3826.429774737
 31
0.000000000
  0
LINE
  5
BC1
330
A02
100
AcDbEntity
  8
Shape2DView008
100
AcDbLine
 10
1495.848974473
 20
3718.562304929
 30
0.000000000
 11
1495.848974473
 21
3697.457822380
 31
0.000000000
  0
ARC
  5
BC2
330
A02
100
AcDbEntity
  8
Shape2DView008
100
AcDbCircle
 10
1530.848974473
 20
3718.562304929
 30
0.000000000
 40
35.000000000
100
AcDbArc
 50
68.704654843
 51
180.000000000
  0
ARC
  5
BC3
330
A02
100
AcDbEntity
  8
Shape2DView008
100
AcDbCircle
 10
1530.848974473
 20
3697.457822380
 30
0.000000000
 40
35.000000000
100
AcDbArc
 50
180.000000000
 51
-90.000000000
  0
LWPOLYLINE
  5
BC4
330
A02
100
AcDbEntity
100
AcDbPolyline
  8
Shape2DView008
 90
13.000000000
 70
0
 43
0
 10
1595.089429366
 20
3729.212047205
 10
1590.546576916
 20
3731.300686060
 10
1585.992625930
 20
3733.365004667
 10
1581.427703006
 20
3735.404945703
 10
1576.851935034
 20
3737.420452494
 10
1572.263700845
 20
3739.407416772
 10
1567.664898234
 20
3741.369786666
 10
1563.055669506
 20
3743.307540806
 10
1558.436142778
 20
3745.220625357
 10
1553.804802423
 20
3747.104930506
 10
1549.163430453
 20
3748.964378668
 10
1544.512183348
 20
3750.798985107
 10
1543.560118251
 20
3751.172530686
  0
LINE
  5
BC5
330
A02
100
AcDbEntity
  8
Shape2DView008
100
AcDbLine
 10
1530.848974473
 20
3662.457822380
 30
0.000000000
 11
1580.369741672
 21
3662.457822380
 31
0.000000000
  0
ARC
  5
BC6
330
A02
100
AcDbEntity
  8
Shape2DView008
100
AcDbCircle
 10
1580.369741672
 20
3697.457822380
 30
0.000000000
 40
35.000000000
100
AcDbArc
 50
-90.000000000
 51
65.129894094
  0
LINE
  5
BC7
330
A02
100
AcDbEntity
  8
Shape2DView008
100
AcDbLine
 10
1415.848974473
 20
3718.562304929
 30
0.000000000
 11
1415.848974473
 21
3697.457822380
 31
0.000000000
  0
ARC
  5
BC8
330
A02
100
AcDbEntity
  8
Shape2DView008
100
AcDbCircle
 10
1380.848974473
 20
3718.562304929
 30
0.000000000
 40
35.000000000
100
AcDbArc
 50
0.000000000
 51
111.295345157
  0
ARC
  5
BC9
330
A02
100
AcDbEntity
  8
Shape2DView008
100
AcDbCircle
 10
1380.848974473
 20
3697.457822380
 30
0.000000000
 40
35.000000000
100
AcDbArc
 50
-90.000000000
 51
0.000000000
  0
LWPOLYLINE
  5
BCA
330
A02
100
AcDbEntity
100
AcDbPolyline
  8
Shape2DView008
 90
13.000000000
 70
0
 43
0
 10
1316.608519581
 20
3729.212047205
 10
1321.151372031
 20
3731.300686060
 10
1325.705323017
 20
3733.365004667
 10
1330.270245941
 20
3735.404945703
 10
1334.846013913
 20
3737.420452494
 10
1339.434248102
 20
3739.407416772
 10
1344.033050713
 20
3741.369786666
 10
1348.642279441
 20
3743.307540806
 10
1353.261806168
 20
3745.220625357
 10
1357.893146524
 20
3747.104930506
 10
1362.534518494
 20
3748.964378668
 10
1367.185765598
 20
3750.798985107
 10
1368.137830696
 20
3751.172530686
  0
LINE
  5
BCB
330
A02
100
AcDbEntity
  8
Shape2DView008
100
AcDbLine
 10
1380.848974473
 20
3662.457822380
 30
0.000000000
 11
1331.328207275
 21
3662.457822380
 31
0.000000000
  0
ARC
  5
BCC
330
A02
100
AcDbEntity
  8
Shape2DView008
100
AcDbCircle
 10
1331.328207275
 20
3697.457822380
 30
0.000000000
 40
35.000000000
100
AcDbArc
 50
114.870105906
 51
-90.000000000
  0
ARC
  5
BCD
330
A02
100
AcDbEntity
  8
Shape2DView008
100
AcDbCircle
 10
1573.790475892
 20
4055.291741745
 30
0.000000000
 40
243.427797510
100
AcDbArc
 50
-108.674006948
 51
-95.714344842
  0
ARC
  5
BCE
330
A02
100
AcDbEntity
  8
Shape2DView008
100
AcDbCircle
 10
1573.790475892
 20
4055.291741745
 30
0.000000000
 40
243.427797510
100
AcDbArc
 50
-109.920942260
 51
-108.674006948
  0
LINE
  5
BCF
330
A02
100
AcDbEntity
  8
Shape2DView008
100
AcDbLine
 10
1449.848974473
 20
3802.344862314
 30
0.000000000
 11
1461.848974473
 21
3802.344862314
 31
0.000000000
  0
ARC
  5
BD0
330
A02
100
AcDbEntity
  8
Shape2DView008
100
AcDbCircle
 10
1337.907473054
 20
4055.291741745
 30
0.000000000
 40
243.427797510
100
AcDbArc
 50
-71.325993052
 51
-70.079057740
  0
ARC
  5
BD1
330
A02
100
AcDbEntity
  8
Shape2DView008
100
AcDbCircle
 10
1337.907473054
 20
4055.291741745
 30
0.000000000
 40
243.427797510
100
AcDbArc
 50
-84.285655158
 51
-71.325993052
  0
LINE
  5
BD2
330
A02
100
AcDbEntity
  8
Shape2DView008
100
AcDbLine
 10
1368.600219908
 20
3803.855042248
 30
0.000000000
 11
1348.121418801
 21
3789.515631339
 31
0.000000000
  0
ARC
  5
BD3
330
A02
100
AcDbEntity
  8
Shape2DView008
100
AcDbCircle
 10
1218.999349718
 20
3959.450900457
 30
0.000000000
 40
195.978367391
100
AcDbArc
 50
-67.549166741
 51
-52.572781172
  0
ARC
  5
BD4
330
A02
100
AcDbEntity
  8
Shape2DView008
100
AcDbCircle
 10
1218.999349718
 20
3959.450900457
 30
0.000000000
 40
195.978367391
100
AcDbArc
 50
-78.513156576
 51
-67.549166741
  0
LINE
  5
BD5
330
A02
100
AcDbEntity
  8
Shape2DView008
100
AcDbLine
 10
1775.099969520
 20
3617.457822380
 30
0.000000000
 11
1136.597979427
 21
3617.457822380
 31
0.000000000
  0
ARC
  5
BD6
330
A02
100
AcDbEntity
  8
Shape2DView008
100
AcDbCircle
 10
1692.698599228
 20
3959.450900457
 30
0.000000000
 40
195.978367391
100
AcDbArc
 50
-112.450833259
 51
-101.486843424
  0
ARC
  5
BD7
330
A02
100
AcDbEntity
  8
Shape2DView008
100
AcDbCircle
 10
1692.698599228
 20
3959.450900457
 30
0.000000000
 40
195.978367391
100
AcDbArc
 50
-127.427218828
 51
-112.450833259
  0
LINE
  5
BD8
330
A02
100
AcDbEntity
  8
Shape2DView008
100
AcDbLine
 10
1543.097729039
 20
3803.855042248
 30
0.000000000
 11
1563.576530146
 21
3789.515631339
 31
0.000000000
  0
LINE
  5
BD9
330
A02
100
AcDbEntity
  8
Shape2DView009
100
AcDbLine
 10
1331.887796828
 20
4194.425498308
 30
0.000000000
 11
1352.366597934
 21
4180.086087399
 31
0.000000000
  0
LINE
  5
BDA
330
A02
100
AcDbEntity
  8
Shape2DView009
100
AcDbLine
 10
1352.366597934
 20
4180.086087399
 30
0.000000000
 11
1359.254767177
 21
4189.923412573
 31
0.000000000
  0
LINE
  5
BDB
330
A02
100
AcDbEntity
  8
Shape2DView009
100
AcDbLine
 10
1394.109662902
 20
4129.775650187
 30
0.000000000
 11
1404.851116851
 21
4139.447298765
 31
0.000000000
  0
LINE
  5
BDC
330
A02
100
AcDbEntity
  8
Shape2DView009
100
AcDbLine
 10
1394.109662902
 20
4129.775650187
 30
0.000000000
 11
1410.837928061
 21
4111.197029550
 31
0.000000000
  0
LINE
  5
BDD
330
A02
100
AcDbEntity
  8
Shape2DView009
100
AcDbLine
 10
1410.837928061
 20
4111.197029550
 30
0.000000000
 11
1420.706194503
 21
4120.082456565
 31
0.000000000
  0
ARC
  5
BDE
330
A02
100
AcDbEntity
  8
Shape2DView009
100
AcDbCircle
 10
1493.132144240
 20
4140.785978425
 30
0.000000000
 40
75.326980642
100
AcDbArc
 50
-164.047002791
 51
-122.060528984
  0
LINE
  5
BDF
330
A02
100
AcDbEntity
  8
Shape2DView009
100
AcDbLine
 10
1442.120127192
 20
4070.321389674
 30
0.000000000
 11
1453.147462662
 21
4076.947281291
 31
0.000000000
  0
LINE
  5
BE0
330
A02
100
AcDbEntity
  8
Shape2DView009
100
AcDbLine
 10
1442.120127192
 20
4070.321389674
 30
0.000000000
 11
1454.996079065
 21
4048.892207157
 31
0.000000000
  0
LINE
  5
BE1
330
A02
100
AcDbEntity
  8
Shape2DView009
100
AcDbLine
 10
1454.996079065
 20
4048.892207157
 30
0.000000000
 11
1467.365135592
 21
4056.324286118
 31
0.000000000
  0
ARC
  5
BE2
330
A02
100
AcDbEntity
  8
Shape2DView009
100
AcDbCircle
 10
1533.755478605
 20
4068.158631189
 30
0.000000000
 40
67.436854676
100
AcDbArc
 50
-169.892953873
 51
-125.488702369
  0
LINE
  5
BE3
330
A02
100
AcDbEntity
  8
Shape2DView009
100
AcDbLine
 10
1483.981177956
 20
4009.382574868
 30
0.000000000
 11
1494.605524035
 21
4013.249520600
 31
0.000000000
  0
LINE
  5
BE4
330
A02
100
AcDbEntity
  8
Shape2DView009
100
AcDbLine
 10
1483.981177956
 20
4009.382574868
 30
0.000000000
 11
1492.531681539
 21
3985.890259348
 31
0.000000000
  0
LINE
  5
BE5
330
A02
100
AcDbEntity
  8
Shape2DView009
100
AcDbLine
 10
1492.531681539
 20
3985.890259348
 30
0.000000000
 11
1507.309132377
 21
3991.268811592
 31
0.000000000
  0
ARC
  5
BE6
330
A02
100
AcDbEntity
  8
Shape2DView009
100
AcDbCircle
 10
1739.382588200
 20
4044.436299579
 30
0.000000000
 40
238.085847283
100
AcDbArc
 50
-167.096347352
 51
-143.732012754
  0
LWPOLYLINE
  5
BE7
330
A02
100
AcDbEntity
100
AcDbPolyline
  8
Shape2DView009
 90
3.000000000
 70
0
 43
0
 10
1540.801950324
 20
3903.593571085
 10
1545.801950324
 20
3903.593571085
 10
1547.423747542
 20
3903.593571085
  0
LWPOLYLINE
  5
BE8
330
A02
100
AcDbEntity
100
AcDbPolyline
  8
Shape2DView009
 90
7.000000000
 70
0
 43
0
 10
1540.801950324
 20
3903.593571085
 10
1540.801950324
 20
3898.593571085
 10
1540.801950324
 20
3893.593571085
 10
1540.801950324
 20
3888.593571085
 10
1540.801950324
 20
3883.593571085
 10
1540.801950324
 20
3878.593571085
 10
1540.801950324
 20
3878.032312700
  0
LWPOLYLINE
  5
BE9
330
A02
100
AcDbEntity
100
AcDbPolyline
  8
Shape2DView009
 90
9.000000000
 70
0
 43
0
 10
1503.301950324
 20
3878.032312700
 10
1508.301950324
 20
3878.032312700
 10
1513.301950324
 20
3878.032312700
 10
1518.301950324
 20
3878.032312700
 10
1523.301950324
 20
3878.032312700
 10
1528.301950324
 20
3878.032312700
 10
1533.301950324
 20
3878.032312700
 10
1538.301950324
 20
3878.032312700
 10
1540.801950324
 20
3878.032312700
  0
LWPOLYLINE
  5
BEA
330
A02
100
AcDbEntity
100
AcDbPolyline
  8
Shape2DView009
 90
7.000000000
 70
0
 43
0
 10
1503.301950324
 20
3903.593571085
 10
1503.301950324
 20
3898.593571085
 10
1503.301950324
 20
3893.593571085
 10
1503.301950324
 20
3888.593571085
 10
1503.301950324
 20
3883.593571085
 10
1503.301950324
 20
3878.593571085
 10
1503.301950324
 20
3878.032312700
  0
LWPOLYLINE
  5
BEB
330
A02
100
AcDbEntity
100
AcDbPolyline
  8
Shape2DView009
 90
5.000000000
 70
0
 43
0
 10
1503.301950324
 20
3903.593571085
 10
1498.301950324
 20
3903.593571085
 10
1493.301950324
 20
3903.593571085
 10
1488.301950324
 20
3903.593571085
 10
1484.608763048
 20
3903.593571085
  0
LWPOLYLINE
  5
BEC
330
A02
100
AcDbEntity
100
AcDbPolyline
  8
Shape2DView009
 90
4.000000000
 70
0
 43
0
 10
1480.515041094
 20
3912.863236949
 10
1482.620951534
 20
3908.328665371
 10
1484.558274744
 20
3903.719552457
 10
1484.608763048
 20
3903.593571085
  0
ARC
  5
BED
330
A02
100
AcDbEntity
  8
Shape2DView009
100
AcDbCircle
 10
1534.456839355
 20
3939.136462872
 30
0.000000000
 40
60.000000000
100
AcDbArc
 50
-154.250076004
 51
-154.030852754
  0
LWPOLYLINE
  5
BEE
330
A02
100
AcDbEntity
100
AcDbPolyline
  8
Shape2DView009
 90
33.000000000
 70
0
 43
0
 10
1398.968675058
 20
4049.548584809
 10
1401.875188378
 20
4045.480147723
 10
1404.781701698
 20
4041.411710638
 10
1407.650625239
 20
4037.316776974
 10
1410.505401696
 20
4033.211871205
 10
1413.336528105
 20
4029.090739031
 10
1416.139110109
 20
4024.950022412
 10
1418.932233538
 20
4020.802990828
 10
1421.682171857
 20
4016.627126936
 10
1424.432110177
 20
4012.451263045
 10
1427.133941796
 20
4008.244154130
 10
1429.830795639
 20
4004.033812179
 10
1432.493784774
 20
3999.802079928
 10
1435.137121853
 20
3995.557934657
 10
1437.761075697
 20
3991.301886747
 10
1440.350472300
 20
3987.024618316
 10
1442.935199596
 20
3982.744563388
 10
1445.470240655
 20
3978.434857269
 10
1448.005281714
 20
3974.125151151
 10
1450.495830839
 20
3969.789651807
 10
1452.976109994
 20
3965.448198673
 10
1455.426657085
 20
3961.090008296
 10
1457.851776753
 20
3956.717503911
 10
1460.262143994
 20
3952.336939077
 10
1462.631715429
 20
3947.934084184
 10
1465.001286865
 20
3943.531229291
 10
1467.315369952
 20
3939.098962578
 10
1469.629013311
 20
3934.666462786
 10
1471.902194792
 20
3930.213167838
 10
1474.159539193
 20
3925.751733511
 10
1476.391655020
 20
3921.277734266
 10
1478.592338603
 20
3916.788080407
 10
1480.414910417
 20
3913.069819115
  0
LINE
  5
BEF
330
A02
100
AcDbEntity
  8
Shape2DView009
100
AcDbLine
 10
1153.314084640
 20
4129.775650187
 30
0.000000000
 11
1142.572630691
 21
4139.447298765
 31
0.000000000
  0
LINE
  5
BF0
330
A02
100
AcDbEntity
  8
Shape2DView009
100
AcDbLine
 10
1153.314084640
 20
4129.775650187
 30
0.000000000
 11
1136.585819481
 21
4111.197029550
 31
0.000000000
  0
LINE
  5
BF1
330
A02
100
AcDbEntity
  8
Shape2DView009
100
AcDbLine
 10
1136.585819481
 20
4111.197029550
 30
0.000000000
 11
1126.717553039
 21
4120.082456565
 31
0.000000000
  0
ARC
  5
BF2
330
A02
100
AcDbEntity
  8
Shape2DView009
100
AcDbCircle
 10
1054.291603302
 20
4140.785978425
 30
0.000000000
 40
75.326980642
100
AcDbArc
 50
-57.939471016
 51
-15.952997209
  0
LINE
  5
BF3
330
A02
100
AcDbEntity
  8
Shape2DView009
100
AcDbLine
 10
1105.303620350
 20
4070.321389674
 30
0.000000000
 11
1094.276284880
 21
4076.947281291
 31
0.000000000
  0
LINE
  5
BF4
330
A02
100
AcDbEntity
  8
Shape2DView009
100
AcDbLine
 10
1105.303620350
 20
4070.321389674
 30
0.000000000
 11
1092.427668477
 21
4048.892207157
 31
0.000000000
  0
LINE
  5
BF5
330
A02
100
AcDbEntity
  8
Shape2DView009
100
AcDbLine
 10
1092.427668477
 20
4048.892207157
 30
0.000000000
 11
1080.058611949
 21
4056.324286118
 31
0.000000000
  0
ARC
  5
BF6
330
A02
100
AcDbEntity
  8
Shape2DView009
100
AcDbCircle
 10
1013.668268937
 20
4068.158631189
 30
0.000000000
 40
67.436854676
100
AcDbArc
 50
-54.511297631
 51
-10.107046127
  0
LINE
  5
BF7
330
A02
100
AcDbEntity
  8
Shape2DView009
100
AcDbLine
 10
1063.442569586
 20
4009.382574868
 30
0.000000000
 11
1052.818223506
 21
4013.249520600
 31
0.000000000
  0
LINE
  5
BF8
330
A02
100
AcDbEntity
  8
Shape2DView009
100
AcDbLine
 10
1063.442569586
 20
4009.382574868
 30
0.000000000
 11
1054.892066003
 21
3985.890259348
 31
0.000000000
  0
LINE
  5
BF9
330
A02
100
AcDbEntity
  8
Shape2DView009
100
AcDbLine
 10
1054.892066003
 20
3985.890259348
 30
0.000000000
 11
1040.114615165
 21
3991.268811592
 31
0.000000000
  0
ARC
  5
BFA
330
A02
100
AcDbEntity
  8
Shape2DView009
100
AcDbCircle
 10
808.041159342
 20
4044.436299579
 30
0.000000000
 40
238.085847283
100
AcDbArc
 50
-36.267987246
 51
-12.903652648
  0
LWPOLYLINE
  5
BFB
330
A02
100
AcDbEntity
100
AcDbPolyline
  8
Shape2DView009
 90
3.000000000
 70
0
 43
0
 10
1006.621797218
 20
3903.593571085
 10
1001.621797218
 20
3903.593571085
 10
1000.000000000
 20
3903.593571085
  0
LWPOLYLINE
  5
BFC
330
A02
100
AcDbEntity
100
AcDbPolyline
  8
Shape2DView009
 90
7.000000000
 70
0
 43
0
 10
1006.621797218
 20
3903.593571085
 10
1006.621797218
 20
3898.593571085
 10
1006.621797218
 20
3893.593571085
 10
1006.621797218
 20
3888.593571085
 10
1006.621797218
 20
3883.593571085
 10
1006.621797218
 20
3878.593571085
 10
1006.621797218
 20
3878.032312700
  0
LWPOLYLINE
  5
BFD
330
A02
100
AcDbEntity
100
AcDbPolyline
  8
Shape2DView009
 90
9.000000000
 70
0
 43
0
 10
1044.121797218
 20
3878.032312700
 10
1039.121797218
 20
3878.032312700
 10
1034.121797218
 20
3878.032312700
 10
1029.121797218
 20
3878.032312700
 10
1024.121797218
 20
3878.032312700
 10
1019.121797218
 20
3878.032312700
 10
1014.121797218
 20
3878.032312700
 10
1009.121797218
 20
3878.032312700
 10
1006.621797218
 20
3878.032312700
  0
LWPOLYLINE
  5
BFE
330
A02
100
AcDbEntity
100
AcDbPolyline
  8
Shape2DView009
 90
7.000000000
 70
0
 43
0
 10
1044.121797218
 20
3903.593571085
 10
1044.121797218
 20
3898.593571085
 10
1044.121797218
 20
3893.593571085
 10
1044.121797218
 20
3888.593571085
 10
1044.121797218
 20
3883.593571085
 10
1044.121797218
 20
3878.593571085
 10
1044.121797218
 20
3878.032312700
  0
LWPOLYLINE
  5
BFF
330
A02
100
AcDbEntity
100
AcDbPolyline
  8
Shape2DView009
 90
5.000000000
 70
0
 43
0
 10
1044.121797218
 20
3903.593571085
 10
1049.121797218
 20
3903.593571085
 10
1054.121797218
 20
3903.593571085
 10
1059.121797218
 20
3903.593571085
 10
1062.814984494
 20
3903.593571085
  0
LWPOLYLINE
  5
C00
330
A02
100
AcDbEntity
100
AcDbPolyline
  8
Shape2DView009
 90
4.000000000
 70
0
 43
0
 10
1066.908706447
 20
3912.863236949
 10
1064.802796008
 20
3908.328665371
 10
1062.865472798
 20
3903.719552457
 10
1062.814984494
 20
3903.593571085
  0
ARC
  5
C01
330
A02
100
AcDbEntity
  8
Shape2DView009
100
AcDbCircle
 10
1012.966908187
 20
3939.136462872
 30
0.000000000
 40
60.000000000
100
AcDbArc
 50
-25.969147246
 51
-25.749923996
  0
LWPOLYLINE
  5
C02
330
A02
100
AcDbEntity
100
AcDbPolyline
  8
Shape2DView009
 90
33.000000000
 70
0
 43
0
 10
1148.455072484
 20
4049.548584809
 10
1145.548559163
 20
4045.480147723
 10
1142.642045843
 20
4041.411710638
 10
1139.773122303
 20
4037.316776974
 10
1136.918345845
 20
4033.211871205
 10
1134.087219436
 20
4029.090739031
 10
1131.284637433
 20
4024.950022412
 10
1128.491514004
 20
4020.802990828
 10
1125.741575684
 20
4016.627126936
 10
1122.991637364
 20
4012.451263045
 10
1120.289805745
 20
4008.244154130
 10
1117.592951902
 20
4004.033812179
 10
1114.929962768
 20
3999.802079928
 10
1112.286625689
 20
3995.557934657
 10
1109.662671845
 20
3991.301886747
 10
1107.073275241
 20
3987.024618316
 10
1104.488547945
 20
3982.744563388
 10
1101.953506887
 20
3978.434857269
 10
1099.418465828
 20
3974.125151151
 10
1096.927916703
 20
3969.789651807
 10
1094.447637548
 20
3965.448198673
 10
1091.997090457
 20
3961.090008296
 10
1089.571970789
 20
3956.717503911
 10
1087.161603548
 20
3952.336939077
 10
1084.792032112
 20
3947.934084184
 10
1082.422460677
 20
3943.531229291
 10
1080.108377590
 20
3939.098962578
 10
1077.794734230
 20
3934.666462786
 10
1075.521552750
 20
3930.213167838
 10
1073.264208348
 20
3925.751733511
 10
1071.032092521
 20
3921.277734266
 10
1068.831408939
 20
3916.788080407
 10
1067.008837124
 20
3913.069819115
  0
LINE
  5
C03
330
A02
100
AcDbEntity
  8
Shape2DView009
100
AcDbLine
 10
1215.535950714
 20
4194.425498308
 30
0.000000000
 11
1195.057149607
 21
4180.086087399
 31
0.000000000
  0
LINE
  5
C04
330
A02
100
AcDbEntity
  8
Shape2DView009
100
AcDbLine
 10
1195.057149607
 20
4180.086087399
 30
0.000000000
 11
1188.168980364
 21
4189.923412573
 31
0.000000000
  0
LINE
  5
C05
330
A02
100
AcDbEntity
  8
Shape2DView009
100
AcDbLine
 10
1267.711873771
 20
4228.043960495
 30
0.000000000
 11
1267.711873771
 21
4260.123075129
 31
0.000000000
  0
LINE
  5
C06
330
A02
100
AcDbEntity
  8
Shape2DView009
100
AcDbLine
 10
1279.711873771
 20
4228.043960495
 30
0.000000000
 11
1279.711873771
 21
4260.123075129
 31
0.000000000
  0
LINE
  5
C07
330
A02
100
AcDbEntity
  8
Shape2DView009
100
AcDbLine
 10
1283.711873771
 20
4156.575454929
 30
0.000000000
 11
1283.711873771
 21
4104.548584809
 31
0.000000000
  0
ARC
  5
C08
330
A02
100
AcDbEntity
  8
Shape2DView009
100
AcDbCircle
 10
1293.711873771
 20
4156.575454929
 30
0.000000000
 40
10.000000000
100
AcDbArc
 50
45.526894321
 51
180.000000000
  0
ARC
  5
C09
330
A02
100
AcDbEntity
  8
Shape2DView009
100
AcDbCircle
 10
1293.711873771
 20
4104.548584809
 30
0.000000000
 40
10.000000000
100
AcDbArc
 50
180.000000000
 51
-90.000000000
  0
LWPOLYLINE
  5
C0A
330
A02
100
AcDbEntity
100
AcDbPolyline
  8
Shape2DView009
 90
16.000000000
 70
0
 43
0
 10
1350.164125286
 20
4111.098424550
 10
1346.878340411
 20
4114.867193281
 10
1343.571643128
 20
4118.617623620
 10
1340.244135686
 20
4122.349599664
 10
1336.895920976
 20
4126.063006078
 10
1333.527102528
 20
4129.757728102
 10
1330.137784507
 20
4133.433651552
 10
1326.728071707
 20
4137.090662825
 10
1323.298069555
 20
4140.728648899
 10
1319.847884102
 20
4144.347497343
 10
1316.377622020
 20
4147.947096313
 10
1312.887390601
 20
4151.527334560
 10
1309.377297753
 20
4155.088101433
 10
1305.847451996
 20
4158.629286882
 10
1302.297962459
 20
4162.150781460
 10
1300.717617684
 20
4163.711248664
  0
LINE
  5
C0B
330
A02
100
AcDbEntity
  8
Shape2DView009
100
AcDbLine
 10
1293.711873771
 20
4094.548584809
 30
0.000000000
 11
1342.607697600
 21
4094.548584809
 31
0.000000000
  0
ARC
  5
C0C
330
A02
100
AcDbEntity
  8
Shape2DView009
100
AcDbCircle
 10
1342.607697600
 20
4104.548584809
 30
0.000000000
 40
10.000000000
100
AcDbArc
 50
-90.000000000
 51
40.918434795
  0
LINE
  5
C0D
330
A02
100
AcDbEntity
  8
Shape2DView009
100
AcDbLine
 10
1263.711873771
 20
4156.575454929
 30
0.000000000
 11
1263.711873771
 21
4104.548584809
 31
0.000000000
  0
ARC
  5
C0E
330
A02
100
AcDbEntity
  8
Shape2DView009
100
AcDbCircle
 10
1253.711873771
 20
4156.575454929
 30
0.000000000
 40
10.000000000
100
AcDbArc
 50
0.000000000
 51
134.473105679
  0
ARC
  5
C0F
330
A02
100
AcDbEntity
  8
Shape2DView009
100
AcDbCircle
 10
1253.711873771
 20
4104.548584809
 30
0.000000000
 40
10.000000000
100
AcDbArc
 50
-90.000000000
 51
0.000000000
  0
LWPOLYLINE
  5
C10
330
A02
100
AcDbEntity
100
AcDbPolyline
  8
Shape2DView009
 90
16.000000000
 70
0
 43
0
 10
1197.259622256
 20
4111.098424550
 10
1200.545407131
 20
4114.867193281
 10
1203.852104414
 20
4118.617623620
 10
1207.179611856
 20
4122.349599664
 10
1210.527826565
 20
4126.063006078
 10
1213.896645013
 20
4129.757728102
 10
1217.285963035
 20
4133.433651552
 10
1220.695675835
 20
4137.090662825
 10
1224.125677986
 20
4140.728648899
 10
1227.575863440
 20
4144.347497343
 10
1231.046125522
 20
4147.947096313
 10
1234.536356941
 20
4151.527334560
 10
1238.046449789
 20
4155.088101433
 10
1241.576295546
 20
4158.629286882
 10
1245.125785083
 20
4162.150781460
 10
1246.706129858
 20
4163.711248664
  0
LINE
  5
C11
330
A02
100
AcDbEntity
  8
Shape2DView009
100
AcDbLine
 10
1253.711873771
 20
4094.548584809
 30
0.000000000
 11
1204.816049942
 21
4094.548584809
 31
0.000000000
  0
ARC
  5
C12
330
A02
100
AcDbEntity
  8
Shape2DView009
100
AcDbCircle
 10
1204.816049942
 20
4104.548584809
 30
0.000000000
 40
10.000000000
100
AcDbArc
 50
139.081565205
 51
-90.000000000
  0
ARC
  5
C13
330
A02
100
AcDbEntity
  8
Shape2DView009
100
AcDbCircle
 10
1441.909828689
 20
4389.098999259
 30
0.000000000
 40
207.226845714
100
AcDbArc
 50
-139.765278084
 51
-119.034956875
  0
ARC
  5
C14
330
A02
100
AcDbEntity
  8
Shape2DView009
100
AcDbCircle
 10
1441.909828689
 20
4389.098999259
 30
0.000000000
 40
207.226845714
100
AcDbArc
 50
-141.509121542
 51
-139.765278084
  0
LINE
  5
C15
330
A02
100
AcDbEntity
  8
Shape2DView009
100
AcDbLine
 10
1267.711873771
 20
4228.043960495
 30
0.000000000
 11
1279.711873771
 21
4228.043960495
 31
0.000000000
  0
ARC
  5
C16
330
A02
100
AcDbEntity
  8
Shape2DView009
100
AcDbCircle
 10
1105.513918853
 20
4389.098999259
 30
0.000000000
 40
207.226845714
100
AcDbArc
 50
-40.234721916
 51
-38.490878458
  0
ARC
  5
C17
330
A02
100
AcDbEntity
  8
Shape2DView009
100
AcDbCircle
 10
1105.513918853
 20
4389.098999259
 30
0.000000000
 40
207.226845714
100
AcDbArc
 50
-60.965043125
 51
-40.234721916
  0
LINE
  5
C18
330
A02
100
AcDbEntity
  8
Shape2DView009
100
AcDbLine
 10
1215.535950714
 20
4194.425498308
 30
0.000000000
 11
1206.090048181
 21
4207.915645183
 31
0.000000000
  0
ARC
  5
C19
330
A02
100
AcDbEntity
  8
Shape2DView009
100
AcDbCircle
 10
1081.389995946
 20
4240.547344056
 30
0.000000000
 40
118.171629219
100
AcDbArc
 50
-51.610473469
 51
-25.365636602
  0
ARC
  5
C1A
330
A02
100
AcDbEntity
  8
Shape2DView009
100
AcDbCircle
 10
1081.389995946
 20
4240.547344056
 30
0.000000000
 40
118.171629219
100
AcDbArc
 50
-58.818964999
 51
-51.610473469
  0
LINE
  5
C1B
330
A02
100
AcDbEntity
  8
Shape2DView009
100
AcDbLine
 10
1398.968675058
 20
4049.548584809
 30
0.000000000
 11
1148.455072484
 21
4049.548584809
 31
0.000000000
  0
ARC
  5
C1C
330
A02
100
AcDbEntity
  8
Shape2DView009
100
AcDbCircle
 10
1466.033751596
 20
4240.547344056
 30
0.000000000
 40
118.171629219
100
AcDbArc
 50
-128.389526531
 51
-121.181035001
  0
ARC
  5
C1D
330
A02
100
AcDbEntity
  8
Shape2DView009
100
AcDbCircle
 10
1466.033751596
 20
4240.547344056
 30
0.000000000
 40
118.171629219
100
AcDbArc
 50
-154.634363398
 51
-128.389526531
  0
LINE
  5
C1E
330
A02
100
AcDbEntity
  8
Shape2DView009
100
AcDbLine
 10
1331.887796828
 20
4194.425498308
 30
0.000000000
 11
1341.333699361
 21
4207.915645183
 31
0.000000000
  0
LINE
  5
C1F
330
A02
100
AcDbEntity
  8
Shape2DView010
100
AcDbLine
 10
1000.000000000
 20
5399.082458186
 30
0.000000000
 11
1000.000000000
 21
4757.664725903
 31
0.000000000
  0
LWPOLYLINE
  5
C20
330
A02
100
AcDbEntity
100
AcDbPolyline
  8
Shape2DView010
 90
4.000000000
 70
0
 43
0
 10
1000.000000000
 20
5399.082458186
 10
1005.000000000
 20
5399.082458186
 10
1010.000000000
 20
5399.082458186
 10
1012.000010400
 20
5399.082458186
  0
LINE
  5
C21
330
A02
100
AcDbEntity
  8
Shape2DView010
100
AcDbLine
 10
1560.987290752
 20
5139.854818090
 30
0.000000000
 11
1579.920244093
 21
5126.291567985
 31
0.000000000
  0
ARC
  5
C22
330
A02
100
AcDbEntity
  8
Shape2DView010
100
AcDbCircle
 10
1574.090541484
 20
5158.145657881
 30
0.000000000
 40
22.500000000
100
AcDbArc
 50
-126.286713275
 51
-125.617176399
  0
LINE
  5
C23
330
A02
100
AcDbEntity
  8
Shape2DView010
100
AcDbLine
 10
1524.359549630
 20
5166.745588076
 30
0.000000000
 11
1560.774450399
 21
5140.009183080
 31
0.000000000
  0
LINE
  5
C24
330
A02
100
AcDbEntity
  8
Shape2DView010
100
AcDbLine
 10
1516.158207824
 20
5172.172208700
 30
0.000000000
 11
1524.359549630
 21
5166.745588076
 31
0.000000000
  0
ARC
  5
C25
330
A02
100
AcDbEntity
  8
Shape2DView010
100
AcDbCircle
 10
1528.574038929
 20
5190.936460296
 30
0.000000000
 40
22.500000000
100
AcDbArc
 50
-124.014700483
 51
-123.491599346
  0
LINE
  5
C26
330
A02
100
AcDbEntity
  8
Shape2DView010
100
AcDbLine
 10
1491.143562190
 20
5189.053008567
 30
0.000000000
 11
1515.987413093
 21
5172.286343673
 31
0.000000000
  0
ARC
  5
C27
330
A02
100
AcDbEntity
  8
Shape2DView010
100
AcDbCircle
 10
1503.730188027
 20
5207.703125190
 30
0.000000000
 40
22.500000000
100
AcDbArc
 50
-124.855127336
 51
-124.014700483
  0
LINE
  5
C28
330
A02
100
AcDbEntity
  8
Shape2DView010
100
AcDbLine
 10
1462.000000000
 20
5209.346975745
 30
0.000000000
 11
1490.871362090
 21
5189.239631601
 31
0.000000000
  0
LINE
  5
C29
330
A02
100
AcDbEntity
  8
Shape2DView010
100
AcDbLine
 10
1462.000000000
 20
5209.346975745
 30
0.000000000
 11
1462.000000000
 21
5160.805918040
 31
0.000000000
  0
LWPOLYLINE
  5
C2A
330
A02
100
AcDbEntity
100
AcDbPolyline
  8
Shape2DView010
 90
4.000000000
 70
0
 43
0
 10
1449.999989600
 20
5160.805918040
 10
1454.999989600
 20
5160.805918040
 10
1459.999989600
 20
5160.805918040
 10
1462.000010400
 20
5160.805918040
  0
LINE
  5
C2B
330
A02
100
AcDbEntity
  8
Shape2DView010
100
AcDbLine
 10
1450.000000000
 20
5160.805918040
 30
0.000000000
 11
1450.000000000
 21
5217.528797831
 31
0.000000000
  0
LINE
  5
C2C
330
A02
100
AcDbEntity
  8
Shape2DView010
100
AcDbLine
 10
1416.721665603
 20
5238.944767756
 30
0.000000000
 11
1450.000000000
 21
5217.528797831
 31
0.000000000
  0
ARC
  5
C2D
330
A02
100
AcDbEntity
  8
Shape2DView010
100
AcDbCircle
 10
1428.897864308
 20
5257.865396316
 30
0.000000000
 40
22.500000000
100
AcDbArc
 50
-123.735483013
 51
-122.762938934
  0
LINE
  5
C2E
330
A02
100
AcDbEntity
  8
Shape2DView010
100
AcDbLine
 10
1381.444882251
 20
5262.499136852
 30
0.000000000
 11
1416.402274514
 21
5239.154163441
 31
0.000000000
  0
LINE
  5
C2F
330
A02
100
AcDbEntity
  8
Shape2DView010
100
AcDbLine
 10
1370.570904384
 20
5269.033501068
 30
0.000000000
 11
1381.444882251
 21
5262.499136852
 31
0.000000000
  0
LINE
  5
C30
330
A02
100
AcDbEntity
  8
Shape2DView010
100
AcDbLine
 10
1344.396309558
 20
5284.674621507
 30
0.000000000
 11
1370.570904384
 21
5269.033501068
 31
0.000000000
  0
ARC
  5
C31
330
A02
100
AcDbEntity
  8
Shape2DView010
100
AcDbCircle
 10
1355.937917985
 20
5303.988897961
 30
0.000000000
 40
22.500000000
100
AcDbArc
 50
-121.661867457
 51
-120.861220772
  0
LINE
  5
C32
330
A02
100
AcDbEntity
  8
Shape2DView010
100
AcDbLine
 10
1307.856628470
 20
5307.205826643
 30
0.000000000
 11
1344.127549022
 21
5284.837783503
 31
0.000000000
  0
LINE
  5
C33
330
A02
100
AcDbEntity
  8
Shape2DView010
100
AcDbLine
 10
1281.292080006
 20
5321.076883965
 30
0.000000000
 11
1307.856628470
 21
5307.205826643
 31
0.000000000
  0
ARC
  5
C34
330
A02
100
AcDbEntity
  8
Shape2DView010
100
AcDbCircle
 10
1291.706479128
 20
5341.021564733
 30
0.000000000
 40
22.500000000
100
AcDbArc
 50
-118.113412362
 51
-117.571953730
  0
LINE
  5
C35
330
A02
100
AcDbEntity
  8
Shape2DView010
100
AcDbLine
 10
1238.721364959
 20
5343.819197943
 30
0.000000000
 11
1281.104065909
 21
5321.176191621
 31
0.000000000
  0
LINE
  5
C36
330
A02
100
AcDbEntity
  8
Shape2DView010
100
AcDbLine
 10
1220.706926134
 20
5352.971992236
 30
0.000000000
 11
1238.721364959
 21
5343.819197943
 31
0.000000000
  0
LINE
  5
C37
330
A02
100
AcDbEntity
  8
Shape2DView010
100
AcDbLine
 10
1202.966360787
 20
5361.973880292
 30
0.000000000
 11
1220.706926134
 21
5352.971992236
 31
0.000000000
  0
ARC
  5
C38
330
A02
100
AcDbEntity
  8
Shape2DView010
100
AcDbCircle
 10
1213.147567928
 20
5382.038601101
 30
0.000000000
 40
22.500000000
100
AcDbArc
 50
-117.356882847
 51
-116.904072457
  0
LINE
  5
C39
330
A02
100
AcDbEntity
  8
Shape2DView010
100
AcDbLine
 10
1163.678086368
 20
5382.300701089
 30
0.000000000
 11
1202.808108250
 21
5362.054968459
 31
0.000000000
  0
LINE
  5
C3A
330
A02
100
AcDbEntity
  8
Shape2DView010
100
AcDbLine
 10
1149.548839531
 20
5388.924426607
 30
0.000000000
 11
1163.678086368
 21
5382.300701089
 31
0.000000000
  0
LINE
  5
C3B
330
A02
100
AcDbEntity
  8
Shape2DView010
100
AcDbLine
 10
1087.245457885
 20
5417.563965942
 30
0.000000000
 11
1149.548839531
 21
5388.924426607
 31
0.000000000
  0
LINE
  5
C3C
330
A02
100
AcDbEntity
  8
Shape2DView010
100
AcDbLine
 10
1020.361419408
 20
5445.099584985
 30
0.000000000
 11
1087.245457885
 21
5417.563965942
 31
0.000000000
  0
LINE
  5
C3D
330
A02
100
AcDbEntity
  8
Shape2DView010
100
AcDbLine
 10
1012.000000000
 20
5448.258000804
 30
0.000000000
 11
1020.361419408
 21
5445.099584985
 31
0.000000000
  0
LINE
  5
C3E
330
A02
100
AcDbEntity
  8
Shape2DView010
100
AcDbLine
 10
1012.000000000
 20
5448.258000804
 30
0.000000000
 11
1012.000000000
 21
5399.082458186
 31
0.000000000
  0
LWPOLYLINE
  5
C3F
330
A02
100
AcDbEntity
100
AcDbPolyline
  8
Shape2DView010
 90
4.000000000
 70
0
 43
0
 10
1000.000000000
 20
4757.664725903
 10
1005.000000000
 20
4757.664725903
 10
1010.000000000
 20
4757.664725903
 10
1012.000010400
 20
4757.664725903
  0
LINE
  5
C40
330
A02
100
AcDbEntity
  8
Shape2DView010
100
AcDbLine
 10
1012.000000000
 20
4757.664725903
 30
0.000000000
 11
1012.000000000
 21
4708.387821951
 31
0.000000000
  0
LINE
  5
C41
330
A02
100
AcDbEntity
  8
Shape2DView010
100
AcDbLine
 10
1012.095061576
 20
4708.422928415
 30
0.000000000
 11
1012.000000000
 21
4708.387821951
 31
0.000000000
  0
ARC
  5
C42
330
A02
100
AcDbEntity
  8
Shape2DView010
100
AcDbCircle
 10
1019.889808041
 20
4687.316248724
 30
0.000000000
 40
22.500000000
100
AcDbArc
 50
110.199223198
 51
110.269306744
  0
LINE
  5
C43
330
A02
100
AcDbEntity
  8
Shape2DView010
100
AcDbLine
 10
1015.957452196
 20
4709.843969944
 30
0.000000000
 11
1012.120884851
 21
4708.432447068
 31
0.000000000
  0
LINE
  5
C44
330
A02
100
AcDbEntity
  8
Shape2DView010
100
AcDbLine
 10
1022.559431849
 20
4712.553320054
 30
0.000000000
 11
1015.957452196
 21
4709.843969944
 31
0.000000000
  0
LINE
  5
C45
330
A02
100
AcDbEntity
  8
Shape2DView010
100
AcDbLine
 10
1086.693191567
 20
4738.956852236
 30
0.000000000
 11
1022.559431849
 21
4712.553320054
 31
0.000000000
  0
LINE
  5
C46
330
A02
100
AcDbEntity
  8
Shape2DView010
100
AcDbLine
 10
1096.539123956
 20
4743.379560431
 30
0.000000000
 11
1086.693191567
 21
4738.956852236
 31
0.000000000
  0
LINE
  5
C47
330
A02
100
AcDbEntity
  8
Shape2DView010
100
AcDbLine
 10
1159.159163156
 20
4772.246982429
 30
0.000000000
 11
1096.539123956
 21
4743.379560431
 31
0.000000000
  0
ARC
  5
C48
330
A02
100
AcDbEntity
  8
Shape2DView010
100
AcDbCircle
 10
1168.578788869
 20
4751.813660344
 30
0.000000000
 40
22.500000000
100
AcDbArc
 50
114.693449845
 51
114.749387650
  0
LINE
  5
C49
330
A02
100
AcDbEntity
  8
Shape2DView010
100
AcDbLine
 10
1161.426456419
 20
4773.289518598
 30
0.000000000
 11
1159.179116671
 21
4772.256169059
 31
0.000000000
  0
LINE
  5
C4A
330
A02
100
AcDbEntity
  8
Shape2DView010
100
AcDbLine
 10
1194.789650236
 20
4790.553850783
 30
0.000000000
 11
1161.426456419
 21
4773.289518598
 31
0.000000000
  0
ARC
  5
C4B
330
A02
100
AcDbEntity
  8
Shape2DView010
100
AcDbCircle
 10
1205.130213438
 20
4770.570789140
 30
0.000000000
 40
22.500000000
100
AcDbArc
 50
117.119222556
 51
117.360046846
  0
LINE
  5
C4C
330
A02
100
AcDbEntity
  8
Shape2DView010
100
AcDbLine
 10
1214.611857164
 20
4800.706003038
 30
0.000000000
 11
1194.873733671
 21
4790.597137353
 31
0.000000000
  0
ARC
  5
C4D
330
A02
100
AcDbEntity
  8
Shape2DView010
100
AcDbCircle
 10
1224.868336932
 20
4780.679654824
 30
0.000000000
 40
22.500000000
100
AcDbArc
 50
116.512622773
 51
117.119222556
  0
LINE
  5
C4E
330
A02
100
AcDbEntity
  8
Shape2DView010
100
AcDbLine
 10
1234.348850292
 20
4810.553343716
 30
0.000000000
 11
1214.824450234
 21
4800.813465691
 31
0.000000000
  0
LINE
  5
C4F
330
A02
100
AcDbEntity
  8
Shape2DView010
100
AcDbLine
 10
1261.643654216
 20
4825.269506331
 30
0.000000000
 11
1234.348850292
 21
4810.553343716
 31
0.000000000
  0
ARC
  5
C50
330
A02
100
AcDbEntity
  8
Shape2DView010
100
AcDbCircle
 10
1272.321563955
 20
4805.464652290
 30
0.000000000
 40
22.500000000
100
AcDbArc
 50
117.647857810
 51
118.331601617
  0
LINE
  5
C51
330
A02
100
AcDbEntity
  8
Shape2DView010
100
AcDbLine
 10
1306.171646205
 20
4848.597365619
 30
0.000000000
 11
1261.880751744
 21
4825.395518813
 31
0.000000000
  0
LINE
  5
C52
330
A02
100
AcDbEntity
  8
Shape2DView010
100
AcDbLine
 10
1307.225344106
 20
4849.152030092
 30
0.000000000
 11
1306.171646205
 21
4848.597365619
 31
0.000000000
  0
LINE
  5
C53
330
A02
100
AcDbEntity
  8
Shape2DView010
100
AcDbLine
 10
1313.885692497
 20
4853.318929353
 30
0.000000000
 11
1307.225344106
 21
4849.152030092
 31
0.000000000
  0
ARC
  5
C54
330
A02
100
AcDbEntity
  8
Shape2DView010
100
AcDbCircle
 10
1325.819278991
 20
4834.244351680
 30
0.000000000
 40
22.500000000
100
AcDbArc
 50
121.628478548
 51
122.031243112
  0
LINE
  5
C55
330
A02
100
AcDbEntity
  8
Shape2DView010
100
AcDbLine
 10
1340.150599878
 20
4869.495862345
 30
0.000000000
 11
1314.020072275
 21
4853.402345335
 31
0.000000000
  0
ARC
  5
C56
330
A02
100
AcDbEntity
  8
Shape2DView010
100
AcDbCircle
 10
1351.949806593
 20
4850.337868690
 30
0.000000000
 40
22.500000000
100
AcDbArc
 50
120.814703681
 51
121.628478548
  0
LINE
  5
C57
330
A02
100
AcDbEntity
  8
Shape2DView010
100
AcDbLine
 10
1377.735121814
 20
4891.916451211
 30
0.000000000
 11
1340.423882774
 21
4869.661509137
 31
0.000000000
  0
LINE
  5
C58
330
A02
100
AcDbEntity
  8
Shape2DView010
100
AcDbLine
 10
1381.873667215
 20
4894.541650109
 30
0.000000000
 11
1377.735121814
 21
4891.916451211
 31
0.000000000
  0
LINE
  5
C59
330
A02
100
AcDbEntity
  8
Shape2DView010
100
AcDbLine
 10
1418.080707087
 20
4918.692740533
 30
0.000000000
 11
1381.873667215
 21
4894.541650109
 31
0.000000000
  0
ARC
  5
C5A
330
A02
100
AcDbEntity
  8
Shape2DView010
100
AcDbCircle
 10
1430.566136708
 20
4899.974726557
 30
0.000000000
 40
22.500000000
100
AcDbArc
 50
122.719873633
 51
123.704377122
  0
LINE
  5
C5B
330
A02
100
AcDbEntity
  8
Shape2DView010
100
AcDbLine
 10
1450.000000000
 20
4939.204148452
 30
0.000000000
 11
1418.404162777
 21
4918.904501784
 31
0.000000000
  0
LINE
  5
C5C
330
A02
100
AcDbEntity
  8
Shape2DView010
100
AcDbLine
 10
1450.000000000
 20
4939.204148452
 30
0.000000000
 11
1450.000000000
 21
4995.941266049
 31
0.000000000
  0
LWPOLYLINE
  5
C5D
330
A02
100
AcDbEntity
100
AcDbPolyline
  8
Shape2DView010
 90
4.000000000
 70
0
 43
0
 10
1449.999989600
 20
4995.941266049
 10
1454.999989600
 20
4995.941266049
 10
1459.999989600
 20
4995.941266049
 10
1462.000010400
 20
4995.941266049
  0
LINE
  5
C5E
330
A02
100
AcDbEntity
  8
Shape2DView010
100
AcDbLine
 10
1462.000000000
 20
4995.941266049
 30
0.000000000
 11
1462.000000000
 21
4947.401238570
 31
0.000000000
  0
LINE
  5
C5F
330
A02
100
AcDbEntity
  8
Shape2DView010
100
AcDbLine
 10
1489.727910572
 20
4966.724832254
 30
0.000000000
 11
1462.000000000
 21
4947.401238570
 31
0.000000000
  0
ARC
  5
C60
330
A02
100
AcDbEntity
  8
Shape2DView010
100
AcDbCircle
 10
1502.592385251
 20
4948.265273991
 30
0.000000000
 40
22.500000000
100
AcDbArc
 50
123.916090271
 51
124.872658336
  0
LINE
  5
C61
330
A02
100
AcDbEntity
  8
Shape2DView010
100
AcDbLine
 10
1523.464154619
 20
4989.412180686
 30
0.000000000
 11
1490.037876249
 21
4966.937025482
 31
0.000000000
  0
ARC
  5
C62
330
A02
100
AcDbEntity
  8
Shape2DView010
100
AcDbCircle
 10
1536.018663621
 20
4970.740429195
 30
0.000000000
 40
22.500000000
100
AcDbArc
 50
123.345077057
 51
123.916090271
  0
LINE
  5
C63
330
A02
100
AcDbEntity
  8
Shape2DView010
100
AcDbLine
 10
1525.735748069
 20
4990.908235866
 30
0.000000000
 11
1523.650858813
 21
4989.536370359
 31
0.000000000
  0
LINE
  5
C64
330
A02
100
AcDbEntity
  8
Shape2DView010
100
AcDbLine
 10
1535.923205366
 20
4998.502680444
 30
0.000000000
 11
1525.735748069
 21
4990.908235866
 31
0.000000000
  0
ARC
  5
C65
330
A02
100
AcDbEntity
  8
Shape2DView010
100
AcDbCircle
 10
1549.370850180
 20
4980.463532766
 30
0.000000000
 40
22.500000000
100
AcDbArc
 50
126.147003091
 51
126.703427056
  0
LINE
  5
C66
330
A02
100
AcDbEntity
  8
Shape2DView010
100
AcDbLine
 10
1569.356629305
 20
5022.926103536
 30
0.000000000
 11
1536.099022667
 21
4998.632423610
 31
0.000000000
  0
ARC
  5
C67
330
A02
100
AcDbEntity
  8
Shape2DView010
100
AcDbCircle
 10
1582.628456818
 20
5004.757212693
 30
0.000000000
 40
22.500000000
100
AcDbArc
 50
125.110158479
 51
126.147003091
  0
LINE
  5
C68
330
A02
100
AcDbEntity
  8
Shape2DView010
100
AcDbLine
 10
1598.576818056
 20
5043.474640239
 30
0.000000000
 11
1569.687575066
 21
5023.163287220
 31
0.000000000
  0
LINE
  5
C69
330
A02
100
AcDbEntity
  8
Shape2DView010
100
AcDbLine
 10
1609.378235123
 20
5052.102717813
 30
0.000000000
 11
1598.576818056
 21
5043.474640239
 31
0.000000000
  0
ARC
  5
C6A
330
A02
100
AcDbEntity
  8
Shape2DView010
100
AcDbCircle
 10
1623.420912860
 20
5034.522808770
 30
0.000000000
 40
22.500000000
100
AcDbArc
 50
127.967275520
 51
128.617554345
  0
LINE
  5
C6B
330
A02
100
AcDbEntity
  8
Shape2DView010
100
AcDbLine
 10
1640.463850176
 20
5076.362720874
 30
0.000000000
 11
1609.578658551
 21
5052.260959621
 31
0.000000000
  0
ARC
  5
C6C
330
A02
100
AcDbEntity
  8
Shape2DView010
100
AcDbCircle
 10
1654.306104486
 20
5058.624570022
 30
0.000000000
 40
22.500000000
100
AcDbArc
 50
126.991837290
 51
127.967275520
  0
LINE
  5
C6D
330
A02
100
AcDbEntity
  8
Shape2DView010
100
AcDbLine
 10
1643.167897529
 20
5078.403845048
 30
0.000000000
 11
1640.767826620
 21
5076.595797927
 31
0.000000000
  0
LINE
  5
C6E
330
A02
100
AcDbEntity
  8
Shape2DView010
100
AcDbLine
 10
1630.931858359
 20
5087.715452879
 30
0.000000000
 11
1643.167897529
 21
5078.403845048
 31
0.000000000
  0
ARC
  5
C6F
330
A02
100
AcDbEntity
  8
Shape2DView010
100
AcDbCircle
 10
1644.557562019
 20
5105.620485685
 30
0.000000000
 40
22.500000000
100
AcDbArc
 50
-128.319451516
 51
-127.271081502
  0
LINE
  5
C70
330
A02
100
AcDbEntity
  8
Shape2DView010
100
AcDbLine
 10
1598.696880467
 20
5113.186077743
 30
0.000000000
 11
1630.606540021
 21
5087.967752605
 31
0.000000000
  0
LINE
  5
C71
330
A02
100
AcDbEntity
  8
Shape2DView010
100
AcDbLine
 10
1580.147149444
 20
5126.131127885
 30
0.000000000
 11
1598.696880467
 21
5113.186077743
 31
0.000000000
  0
ARC
  5
C72
330
A02
100
AcDbEntity
  8
Shape2DView010
100
AcDbCircle
 10
1593.023494824
 20
5144.582407776
 30
0.000000000
 40
22.500000000
100
AcDbArc
 50
-125.617176399
 51
-124.909511527
  0
LINE
  5
C73
330
A02
100
AcDbEntity
  8
Shape2DView010
100
AcDbLine
 10
1450.732099673
 20
5217.057661735
 30
0.000000000
 11
1450.000000000
 21
5217.057661735
 31
0.000000000
  0
LINE
  5
C74
330
A02
100
AcDbEntity
  8
Shape2DView010
100
AcDbLine
 10
1450.755471022
 20
4939.689522354
 30
0.000000000
 11
1450.000000000
 21
4939.689522354
 31
0.000000000
  0
LINE
  5
C75
330
A02
100
AcDbEntity
  8
Shape2DView010
100
AcDbLine
 10
1450.732099673
 20
5217.057661735
 30
0.000000000
 11
1450.000000000
 21
5217.528797831
 31
0.000000000
  0
LINE
  5
C76
330
A02
100
AcDbEntity
  8
Shape2DView010
100
AcDbLine
 10
1450.755471022
 20
4939.689522354
 30
0.000000000
 11
1450.000000000
 21
4939.204148452
 31
0.000000000
  0
LINE
  5
C77
330
A02
100
AcDbEntity
  8
Shape2DView010
100
AcDbLine
 10
1000.000000000
 20
4705.718560417
 30
0.000000000
 11
1000.000000000
 21
4703.956193720
 31
0.000000000
  0
LINE
  5
C78
330
A02
100
AcDbEntity
  8
Shape2DView010
100
AcDbLine
 10
1004.772151288
 20
4705.718560417
 30
0.000000000
 11
1000.000000000
 21
4705.718560417
 31
0.000000000
  0
LINE
  5
C79
330
A02
100
AcDbEntity
  8
Shape2DView010
100
AcDbLine
 10
1004.772151288
 20
4705.718560417
 30
0.000000000
 11
1000.000000000
 21
4703.956193720
 31
0.000000000
  0
LINE
  5
C7A
330
A02
100
AcDbEntity
  8
Shape2DView010
100
AcDbLine
 10
1000.000000000
 20
5451.028623672
 30
0.000000000
 11
1000.000000000
 21
5452.781200955
 31
0.000000000
  0
LINE
  5
C7B
330
A02
100
AcDbEntity
  8
Shape2DView010
100
AcDbLine
 10
1004.665202700
 20
5451.028623672
 30
0.000000000
 11
1000.000000000
 21
5451.028623672
 31
0.000000000
  0
LINE
  5
C7C
330
A02
100
AcDbEntity
  8
Shape2DView010
100
AcDbLine
 10
1001.167211223
 20
5452.349943782
 30
0.000000000
 11
1000.000000000
 21
5452.781200955
 31
0.000000000
  0
LINE
  5
C7D
330
A02
100
AcDbEntity
  8
Shape2DView010
100
AcDbLine
 10
1004.665202700
 20
5451.028623672
 30
0.000000000
 11
1001.167211223
 21
5452.349943782
 31
0.000000000
  0
LINE
  5
C7E
330
A02
100
AcDbEntity
  8
Shape2DView011
100
AcDbLine
 10
1462.000000000
 20
6649.896061401
 30
0.000000000
 11
1462.000000000
 21
5747.774879250
 31
0.000000000
  0
LWPOLYLINE
  5
C7F
330
A02
100
AcDbEntity
100
AcDbPolyline
  8
Shape2DView011
 90
4.000000000
 70
0
 43
0
 10
1449.999989600
 20
6649.896061401
 10
1454.999989600
 20
6649.896061401
 10
1459.999989600
 20
6649.896061401
 10
1462.000000000
 20
6649.896061401
  0
LINE
  5
C80
330
A02
100
AcDbEntity
  8
Shape2DView011
100
AcDbLine
 10
1265.379044734
 20
6720.819544092
 30
0.000000000
 11
1336.543015822
 21
6712.661671751
 31
0.000000000
  0
LINE
  5
C81
330
A02
100
AcDbEntity
  8
Shape2DView011
100
AcDbLine
 10
1239.790675630
 20
6723.132674059
 30
0.000000000
 11
1265.379044734
 21
6720.819544092
 31
0.000000000
  0
LINE
  5
C82
330
A02
100
AcDbEntity
  8
Shape2DView011
100
AcDbLine
 10
1193.918013488
 20
6727.057885952
 30
0.000000000
 11
1239.790675630
 21
6723.132674059
 31
0.000000000
  0
LINE
  5
C83
330
A02
100
AcDbEntity
  8
Shape2DView011
100
AcDbLine
 10
1174.217508495
 20
6728.359239278
 30
0.000000000
 11
1193.918013488
 21
6727.057885952
 31
0.000000000
  0
LINE
  5
C84
330
A02
100
AcDbEntity
  8
Shape2DView011
100
AcDbLine
 10
1118.312183279
 20
6731.593144372
 30
0.000000000
 11
1174.217508495
 21
6728.359239278
 31
0.000000000
  0
LINE
  5
C85
330
A02
100
AcDbEntity
  8
Shape2DView011
100
AcDbLine
 10
1081.967681906
 20
6732.779266149
 30
0.000000000
 11
1118.312183279
 21
6731.593144372
 31
0.000000000
  0
LINE
  5
C86
330
A02
100
AcDbEntity
  8
Shape2DView011
100
AcDbLine
 10
1044.106257582
 20
6733.927143117
 30
0.000000000
 11
1081.967681906
 21
6732.779266149
 31
0.000000000
  0
LINE
  5
C87
330
A02
100
AcDbEntity
  8
Shape2DView011
100
AcDbLine
 10
1035.409623464
 20
6733.999771818
 30
0.000000000
 11
1044.106257582
 21
6733.927143117
 31
0.000000000
  0
LINE
  5
C88
330
A02
100
AcDbEntity
  8
Shape2DView011
100
AcDbLine
 10
1012.000000000
 20
6734.066406544
 30
0.000000000
 11
1035.409623464
 21
6733.999771818
 31
0.000000000
  0
LINE
  5
C89
330
A02
100
AcDbEntity
  8
Shape2DView011
100
AcDbLine
 10
1012.000000000
 20
6734.066406544
 30
0.000000000
 11
1012.000000000
 21
6690.735591425
 31
0.000000000
  0
LWPOLYLINE
  5
C8A
330
A02
100
AcDbEntity
100
AcDbPolyline
  8
Shape2DView011
 90
4.000000000
 70
0
 43
0
 10
1000.000000000
 20
6690.735591425
 10
1005.000000000
 20
6690.735591425
 10
1010.000000000
 20
6690.735591425
 10
1012.000000000
 20
6690.735591425
  0
LINE
  5
C8B
330
A02
100
AcDbEntity
  8
Shape2DView011
100
AcDbLine
 10
1000.000000000
 20
6690.735591425
 30
0.000000000
 11
1000.000000000
 21
5706.935349226
 31
0.000000000
  0
LWPOLYLINE
  5
C8C
330
A02
100
AcDbEntity
100
AcDbPolyline
  8
Shape2DView011
 90
4.000000000
 70
0
 43
0
 10
1000.000000000
 20
5706.935349226
 10
1005.000000000
 20
5706.935349226
 10
1010.000000000
 20
5706.935349226
 10
1012.000000000
 20
5706.935349226
  0
LINE
  5
C8D
330
A02
100
AcDbEntity
  8
Shape2DView011
100
AcDbLine
 10
1012.000000000
 20
5706.935349226
 30
0.000000000
 11
1012.000000000
 21
5663.604528264
 31
0.000000000
  0
LINE
  5
C8E
330
A02
100
AcDbEntity
  8
Shape2DView011
100
AcDbLine
 10
1037.340338802
 20
5663.676640682
 30
0.000000000
 11
1012.000000000
 21
5663.604528264
 31
0.000000000
  0
LINE
  5
C8F
330
A02
100
AcDbEntity
  8
Shape2DView011
100
AcDbLine
 10
1059.474003053
 20
5664.209904767
 30
0.000000000
 11
1037.340338802
 21
5663.676640682
 31
0.000000000
  0
LINE
  5
C90
330
A02
100
AcDbEntity
  8
Shape2DView011
100
AcDbLine
 10
1115.589697141
 20
5665.920173438
 30
0.000000000
 11
1059.474003053
 21
5664.209904767
 31
0.000000000
  0
LINE
  5
C91
330
A02
100
AcDbEntity
  8
Shape2DView011
100
AcDbLine
 10
1142.766384544
 20
5667.493097710
 30
0.000000000
 11
1115.589697141
 21
5665.920173438
 31
0.000000000
  0
LINE
  5
C92
330
A02
100
AcDbEntity
  8
Shape2DView011
100
AcDbLine
 10
1189.089217365
 20
5670.199554475
 30
0.000000000
 11
1142.766384544
 21
5667.493097710
 31
0.000000000
  0
LINE
  5
C93
330
A02
100
AcDbEntity
  8
Shape2DView011
100
AcDbLine
 10
1261.256964072
 20
5676.382568603
 30
0.000000000
 11
1189.089217365
 21
5670.199554475
 31
0.000000000
  0
LINE
  5
C94
330
A02
100
AcDbEntity
  8
Shape2DView011
100
AcDbLine
 10
1328.706703253
 20
5684.040895020
 30
0.000000000
 11
1261.256964072
 21
5676.382568603
 31
0.000000000
  0
ARC
  5
C95
330
A02
100
AcDbEntity
  8
Shape2DView011
100
AcDbCircle
 10
1331.245071517
 20
5661.684538283
 30
0.000000000
 40
22.500000000
100
AcDbArc
 50
96.468575059
 51
96.477692426
  0
LINE
  5
C96
330
A02
100
AcDbEntity
  8
Shape2DView011
100
AcDbLine
 10
1333.731237341
 20
5684.610577255
 30
0.000000000
 11
1328.710260809
 21
5684.041298662
 31
0.000000000
  0
LINE
  5
C97
330
A02
100
AcDbEntity
  8
Shape2DView011
100
AcDbLine
 10
1345.305879552
 20
5686.254168672
 30
0.000000000
 11
1333.731237341
 21
5684.610577255
 31
0.000000000
  0
ARC
  5
C98
330
A02
100
AcDbEntity
  8
Shape2DView011
100
AcDbCircle
 10
1348.469131988
 20
5663.977637657
 30
0.000000000
 40
22.500000000
100
AcDbArc
 50
98.075992851
 51
98.081930397
  0
LINE
  5
C99
330
A02
100
AcDbEntity
  8
Shape2DView011
100
AcDbLine
 10
1401.742622492
 20
5694.262182005
 30
0.000000000
 11
1345.308188080
 21
5686.254496359
 31
0.000000000
  0
LINE
  5
C9A
330
A02
100
AcDbEntity
  8
Shape2DView011
100
AcDbLine
 10
1406.701941376
 20
5694.967673078
 30
0.000000000
 11
1401.742622492
 21
5694.262182005
 31
0.000000000
  0
LINE
  5
C9B
330
A02
100
AcDbEntity
  8
Shape2DView011
100
AcDbLine
 10
1450.000000000
 20
5702.364853094
 30
0.000000000
 11
1406.701941376
 21
5694.967673078
 31
0.000000000
  0
LINE
  5
C9C
330
A02
100
AcDbEntity
  8
Shape2DView011
100
AcDbLine
 10
1450.000000000
 20
5702.364853094
 30
0.000000000
 11
1450.000000000
 21
5747.774879250
 31
0.000000000
  0
LWPOLYLINE
  5
C9D
330
A02
100
AcDbEntity
100
AcDbPolyline
  8
Shape2DView011
 90
4.000000000
 70
0
 43
0
 10
1449.999989600
 20
5747.774879250
 10
1454.999989600
 20
5747.774879250
 10
1459.999989600
 20
5747.774879250
 10
1462.000000000
 20
5747.774879250
  0
LINE
  5
C9E
330
A02
100
AcDbEntity
  8
Shape2DView011
100
AcDbLine
 10
1450.000000000
 20
6649.896061401
 30
0.000000000
 11
1450.000000000
 21
6695.306000679
 31
0.000000000
  0
LINE
  5
C9F
330
A02
100
AcDbEntity
  8
Shape2DView011
100
AcDbLine
 10
1407.261159050
 20
6702.607607409
 30
0.000000000
 11
1450.000000000
 21
6695.306000679
 31
0.000000000
  0
LINE
  5
CA0
330
A02
100
AcDbEntity
  8
Shape2DView011
100
AcDbLine
 10
1336.543015822
 20
6712.661671751
 30
0.000000000
 11
1407.261159050
 21
6702.607607409
 31
0.000000000
  0
LINE
  5
CA1
330
A02
100
AcDbEntity
  8
Shape2DView012
100
AcDbLine
 10
1802.346625196
 20
7323.334765572
 30
0.000000000
 11
1802.346625196
 21
6671.903788083
 31
0.000000000
  0
LWPOLYLINE
  5
CA2
330
A02
100
AcDbEntity
100
AcDbPolyline
  8
Shape2DView012
 90
4.000000000
 70
0
 43
0
 10
1790.346614796
 20
7323.334765572
 10
1795.346614796
 20
7323.334765572
 10
1800.346614796
 20
7323.334765572
 10
1802.346625196
 20
7323.334765572
  0
LINE
  5
CA3
330
A02
100
AcDbEntity
  8
Shape2DView012
100
AcDbLine
 10
1643.142712840
 20
7308.404726675
 30
0.000000000
 11
1710.524804073
 21
7339.370407958
 31
0.000000000
  0
LINE
  5
CA4
330
A02
100
AcDbEntity
  8
Shape2DView012
100
AcDbLine
 10
1622.953186439
 20
7298.125791068
 30
0.000000000
 11
1643.142712840
 21
7308.404726675
 31
0.000000000
  0
ARC
  5
CA5
330
A02
100
AcDbEntity
  8
Shape2DView012
100
AcDbCircle
 10
1612.744820142
 20
7318.176707694
 30
0.000000000
 40
22.500000000
100
AcDbArc
 50
-63.811744010
 51
-63.018346586
  0
LINE
  5
CA6
330
A02
100
AcDbEntity
  8
Shape2DView012
100
AcDbLine
 10
1596.831370461
 20
7285.276510139
 30
0.000000000
 11
1622.674563590
 21
7297.986358637
 31
0.000000000
  0
ARC
  5
CA7
330
A02
100
AcDbEntity
  8
Shape2DView012
100
AcDbCircle
 10
1586.901627014
 20
7305.466859197
 30
0.000000000
 40
22.500000000
100
AcDbArc
 50
-65.142213012
 51
-63.811744010
  0
LINE
  5
CA8
330
A02
100
AcDbEntity
  8
Shape2DView012
100
AcDbLine
 10
1568.774732863
 20
7272.271483493
 30
0.000000000
 11
1596.359894166
 21
7285.051394900
 31
0.000000000
  0
LINE
  5
CA9
330
A02
100
AcDbEntity
  8
Shape2DView012
100
AcDbLine
 10
1551.254384152
 20
7263.568522651
 30
0.000000000
 11
1568.774732863
 21
7272.271483493
 31
0.000000000
  0
ARC
  5
CAA
330
A02
100
AcDbEntity
  8
Shape2DView012
100
AcDbCircle
 10
1541.244755548
 20
7283.719387030
 30
0.000000000
 40
22.500000000
100
AcDbArc
 50
-64.450583317
 51
-63.584825881
  0
LINE
  5
CAB
330
A02
100
AcDbEntity
  8
Shape2DView012
100
AcDbLine
 10
1524.647927489
 20
7250.846866891
 30
0.000000000
 11
1550.948767088
 21
7263.419580134
 31
0.000000000
  0
ARC
  5
CAC
330
A02
100
AcDbEntity
  8
Shape2DView012
100
AcDbCircle
 10
1514.943915949
 20
7271.146673787
 30
0.000000000
 40
22.500000000
100
AcDbArc
 50
-65.735458099
 51
-64.450583317
  0
LINE
  5
CAD
330
A02
100
AcDbEntity
  8
Shape2DView012
100
AcDbLine
 10
1497.116161622
 20
7238.430098578
 30
0.000000000
 11
1524.190296535
 21
7250.634373915
 31
0.000000000
  0
ARC
  5
CAE
330
A02
100
AcDbEntity
  8
Shape2DView012
100
AcDbCircle
 10
1487.869781036
 20
7258.942398450
 30
0.000000000
 40
22.500000000
100
AcDbArc
 50
-65.779036889
 51
-65.735458099
  0
LINE
  5
CAF
330
A02
100
AcDbEntity
  8
Shape2DView012
100
AcDbLine
 10
1492.260394084
 20
7236.245687192
 30
0.000000000
 11
1497.100557430
 21
7238.423071776
 31
0.000000000
  0
LINE
  5
CB0
330
A02
100
AcDbEntity
  8
Shape2DView012
100
AcDbLine
 10
1479.991018543
 20
7230.330103585
 30
0.000000000
 11
1492.260394084
 21
7236.245687192
 31
0.000000000
  0
ARC
  5
CB1
330
A02
100
AcDbEntity
  8
Shape2DView012
100
AcDbCircle
 10
1470.219297817
 20
7250.597404195
 30
0.000000000
 40
22.500000000
100
AcDbArc
 50
-65.199492476
 51
-64.259322602
  0
LINE
  5
CB2
330
A02
100
AcDbEntity
  8
Shape2DView012
100
AcDbLine
 10
1452.629115378
 20
7217.683498423
 30
0.000000000
 11
1479.657150596
 21
7230.172494528
 31
0.000000000
  0
ARC
  5
CB3
330
A02
100
AcDbEntity
  8
Shape2DView012
100
AcDbCircle
 10
1443.191262600
 20
7238.108408091
 30
0.000000000
 40
22.500000000
100
AcDbArc
 50
-66.457806791
 51
-65.199492476
  0
LINE
  5
CB4
330
A02
100
AcDbEntity
  8
Shape2DView012
100
AcDbLine
 10
1424.357933414
 20
7205.360156939
 30
0.000000000
 11
1452.178309200
 21
7217.481168978
 31
0.000000000
  0
ARC
  5
CB5
330
A02
100
AcDbEntity
  8
Shape2DView012
100
AcDbCircle
 10
1415.370886814
 20
7225.987396052
 30
0.000000000
 40
22.500000000
100
AcDbArc
 50
-66.850588501
 51
-66.457806791
  0
LINE
  5
CB6
330
A02
100
AcDbEntity
  8
Shape2DView012
100
AcDbLine
 10
1418.981055459
 20
7203.060666520
 30
0.000000000
 11
1424.216316732
 21
7205.299032908
 31
0.000000000
  0
LINE
  5
CB7
330
A02
100
AcDbEntity
  8
Shape2DView012
100
AcDbLine
 10
1406.409610521
 20
7197.255961824
 30
0.000000000
 11
1418.981055459
 21
7203.060666520
 31
0.000000000
  0
ARC
  5
CB8
330
A02
100
AcDbEntity
  8
Shape2DView012
100
AcDbCircle
 10
1396.977453627
 20
7217.683502458
 30
0.000000000
 40
22.500000000
100
AcDbArc
 50
-66.120684963
 51
-65.215469494
  0
LINE
  5
CB9
330
A02
100
AcDbEntity
  8
Shape2DView012
100
AcDbLine
 10
1377.929942677
 20
7184.644738124
 30
0.000000000
 11
1406.085712282
 21
7197.109498854
 31
0.000000000
  0
ARC
  5
CBA
330
A02
100
AcDbEntity
  8
Shape2DView012
100
AcDbCircle
 10
1368.821684022
 20
7205.218741727
 30
0.000000000
 40
22.500000000
100
AcDbArc
 50
-67.337693620
 51
-66.120684963
  0
LINE
  5
CBB
330
A02
100
AcDbEntity
  8
Shape2DView012
100
AcDbLine
 10
1352.346625196
 20
7173.957274785
 30
0.000000000
 11
1377.490912457
 21
7184.455926929
 31
0.000000000
  0
LINE
  5
CBC
330
A02
100
AcDbEntity
  8
Shape2DView012
100
AcDbLine
 10
1352.346625196
 20
7173.957274785
 30
0.000000000
 11
1352.346625196
 21
7127.182635213
 31
0.000000000
  0
LWPOLYLINE
  5
CBD
330
A02
100
AcDbEntity
100
AcDbPolyline
  8
Shape2DView012
 90
4.000000000
 70
0
 43
0
 10
1340.346614796
 20
7127.182635213
 10
1345.346614796
 20
7127.182635213
 10
1350.346614796
 20
7127.182635213
 10
1352.346635596
 20
7127.182635213
  0
LINE
  5
CBE
330
A02
100
AcDbEntity
  8
Shape2DView012
100
AcDbLine
 10
1340.346625196
 20
7127.182635213
 30
0.000000000
 11
1340.346625196
 21
7168.783052314
 31
0.000000000
  0
LINE
  5
CBF
330
A02
100
AcDbEntity
  8
Shape2DView012
100
AcDbLine
 10
1335.692300509
 20
7166.748341353
 30
0.000000000
 11
1340.346625196
 21
7168.783052314
 31
0.000000000
  0
ARC
  5
CC0
330
A02
100
AcDbEntity
  8
Shape2DView012
100
AcDbCircle
 10
1326.679662373
 20
7187.364411634
 30
0.000000000
 40
22.500000000
100
AcDbArc
 50
-66.775401055
 51
-66.386702564
  0
LINE
  5
CC1
330
A02
100
AcDbEntity
  8
Shape2DView012
100
AcDbLine
 10
1305.760261725
 20
7153.903675453
 30
0.000000000
 11
1335.552233353
 21
7166.687673879
 31
0.000000000
  0
ARC
  5
CC2
330
A02
100
AcDbEntity
  8
Shape2DView012
100
AcDbCircle
 10
1296.887690745
 20
7174.580413208
 30
0.000000000
 40
22.500000000
100
AcDbArc
 50
-67.930028634
 51
-66.775401055
  0
LINE
  5
CC3
330
A02
100
AcDbEntity
  8
Shape2DView012
100
AcDbLine
 10
1275.190062596
 20
7141.504134619
 30
0.000000000
 11
1305.341809677
 21
7153.729085359
 31
0.000000000
  0
LINE
  5
CC4
330
A02
100
AcDbEntity
  8
Shape2DView012
100
AcDbLine
 10
1263.424558901
 20
7136.183442130
 30
0.000000000
 11
1275.190062596
 21
7141.504134619
 31
0.000000000
  0
LINE
  5
CC5
330
A02
100
AcDbEntity
  8
Shape2DView012
100
AcDbLine
 10
1239.344306176
 20
7125.171279360
 30
0.000000000
 11
1263.424558901
 21
7136.183442130
 31
0.000000000
  0
ARC
  5
CC6
330
A02
100
AcDbEntity
  8
Shape2DView012
100
AcDbCircle
 10
1229.986867041
 20
7145.633154465
 30
0.000000000
 40
22.500000000
100
AcDbArc
 50
-66.379577376
 51
-65.424863898
  0
LINE
  5
CC7
330
A02
100
AcDbEntity
  8
Shape2DView012
100
AcDbLine
 10
1203.239086420
 20
7109.378559358
 30
0.000000000
 11
1239.002068880
 21
7125.018205138
 31
0.000000000
  0
LINE
  5
CC8
330
A02
100
AcDbEntity
  8
Shape2DView012
100
AcDbLine
 10
1197.506020409
 20
7106.757525316
 30
0.000000000
 11
1203.239086420
 21
7109.378559358
 31
0.000000000
  0
LINE
  5
CC9
330
A02
100
AcDbEntity
  8
Shape2DView012
100
AcDbLine
 10
1162.167492565
 20
7089.176050853
 30
0.000000000
 11
1197.506020409
 21
7106.757525316
 31
0.000000000
  0
ARC
  5
CCA
330
A02
100
AcDbEntity
  8
Shape2DView012
100
AcDbCircle
 10
1152.145241808
 20
7109.320640444
 30
0.000000000
 40
22.500000000
100
AcDbArc
 50
-64.673228685
 51
-63.548931208
  0
LINE
  5
CCB
330
A02
100
AcDbEntity
  8
Shape2DView012
100
AcDbLine
 10
1127.989477089
 20
7072.995842444
 30
0.000000000
 11
1161.770297368
 21
7088.983278140
 31
0.000000000
  0
LINE
  5
CCC
330
A02
100
AcDbEntity
  8
Shape2DView012
100
AcDbLine
 10
1108.924030793
 20
7062.495843328
 30
0.000000000
 11
1127.989477089
 21
7072.995842444
 31
0.000000000
  0
ARC
  5
CCD
330
A02
100
AcDbEntity
  8
Shape2DView012
100
AcDbCircle
 10
1098.069746514
 20
7082.204585368
 30
0.000000000
 40
22.500000000
100
AcDbArc
 50
-61.983033099
 51
-61.156906107
  0
LINE
  5
CCE
330
A02
100
AcDbEntity
  8
Shape2DView012
100
AcDbLine
 10
1080.943387286
 20
7047.604991928
 30
0.000000000
 11
1108.638739193
 21
7062.341393436
 31
0.000000000
  0
ARC
  5
CCF
330
A02
100
AcDbEntity
  8
Shape2DView012
100
AcDbCircle
 10
1070.374394607
 20
7067.468183860
 30
0.000000000
 40
22.500000000
100
AcDbArc
 50
-63.376945561
 51
-61.983033099
  0
LINE
  5
CD0
330
A02
100
AcDbEntity
  8
Shape2DView012
100
AcDbLine
 10
1055.442220268
 20
7034.814674131
 30
0.000000000
 11
1080.457068455
 21
7047.353768928
 31
0.000000000
  0
LINE
  5
CD1
330
A02
100
AcDbEntity
  8
Shape2DView012
100
AcDbLine
 10
1050.887471230
 20
7032.198679957
 30
0.000000000
 11
1055.442220268
 21
7034.814674131
 31
0.000000000
  0
LINE
  5
CD2
330
A02
100
AcDbEntity
  8
Shape2DView012
100
AcDbLine
 10
1042.936943685
 20
7027.415667577
 30
0.000000000
 11
1050.887471230
 21
7032.198679957
 31
0.000000000
  0
ARC
  5
CD3
330
A02
100
AcDbEntity
  8
Shape2DView012
100
AcDbCircle
 10
1031.338159371
 20
7046.695662453
 30
0.000000000
 40
22.500000000
100
AcDbArc
 50
-59.989185439
 51
-58.969016486
  0
LINE
  5
CD4
330
A02
100
AcDbEntity
  8
Shape2DView012
100
AcDbLine
 10
1021.528887979
 20
7015.046213912
 30
0.000000000
 11
1042.591837066
 21
7027.212214649
 31
0.000000000
  0
ARC
  5
CD5
330
A02
100
AcDbEntity
  8
Shape2DView012
100
AcDbCircle
 10
1010.275210284
 20
7034.529661716
 30
0.000000000
 40
22.500000000
100
AcDbArc
 50
-61.734071583
 51
-59.989185439
  0
LINE
  5
CD6
330
A02
100
AcDbEntity
  8
Shape2DView012
100
AcDbLine
 10
1002.469209427
 20
7004.786404322
 30
0.000000000
 11
1020.930412421
 21
7014.712581523
 31
0.000000000
  0
ARC
  5
CD7
330
A02
100
AcDbEntity
  8
Shape2DView012
100
AcDbCircle
 10
991.814007290
 20
7024.603484516
 30
0.000000000
 40
22.500000000
100
AcDbArc
 50
-63.387375114
 51
-61.734071583
  0
LINE
  5
CD8
330
A02
100
AcDbEntity
  8
Shape2DView012
100
AcDbLine
 10
1000.160701494
 20
7003.619276827
 30
0.000000000
 11
1001.893019543
 21
7004.487234567
 31
0.000000000
  0
LINE
  5
CD9
330
A02
100
AcDbEntity
  8
Shape2DView012
100
AcDbLine
 10
1000.160701494
 20
7003.619276827
 30
0.000000000
 11
1028.120007883
 21
7003.619276827
 31
0.000000000
  0
LINE
  5
CDA
330
A02
100
AcDbEntity
  8
Shape2DView012
100
AcDbLine
 10
1028.120007883
 20
7003.619276827
 30
0.000000000
 11
1028.120007883
 21
6991.619276827
 31
0.000000000
  0
LINE
  5
CDB
330
A02
100
AcDbEntity
  8
Shape2DView012
100
AcDbLine
 10
1000.000000000
 20
6991.619276827
 30
0.000000000
 11
1028.120007883
 21
6991.619276827
 31
0.000000000
  0
LINE
  5
CDC
330
A02
100
AcDbEntity
  8
Shape2DView012
100
AcDbLine
 10
1008.021776243
 20
6987.546784986
 30
0.000000000
 11
1000.000000000
 21
6991.619276827
 31
0.000000000
  0
ARC
  5
CDD
330
A02
100
AcDbEntity
  8
Shape2DView012
100
AcDbCircle
 10
997.836401474
 20
6967.484179452
 30
0.000000000
 40
22.500000000
100
AcDbArc
 50
61.061303560
 51
63.084026051
  0
LINE
  5
CDE
330
A02
100
AcDbEntity
  8
Shape2DView012
100
AcDbLine
 10
1029.089751801
 20
6975.914085601
 30
0.000000000
 11
1008.723556224
 21
6987.174782831
 31
0.000000000
  0
ARC
  5
CDF
330
A02
100
AcDbEntity
  8
Shape2DView012
100
AcDbCircle
 10
1018.202597051
 20
6956.223482222
 30
0.000000000
 40
22.500000000
100
AcDbArc
 50
59.363305881
 51
61.061303560
  0
LINE
  5
CE0
330
A02
100
AcDbEntity
  8
Shape2DView012
100
AcDbLine
 10
1054.428285503
 20
6960.918489581
 30
0.000000000
 11
1029.668429630
 21
6975.582838700
 31
0.000000000
  0
LINE
  5
CE1
330
A02
100
AcDbEntity
  8
Shape2DView012
100
AcDbLine
 10
1070.017874371
 20
6953.214985936
 30
0.000000000
 11
1054.428285503
 21
6960.918489581
 31
0.000000000
  0
ARC
  5
CE2
330
A02
100
AcDbEntity
  8
Shape2DView012
100
AcDbCircle
 10
1060.050177592
 20
6933.043346912
 30
0.000000000
 40
22.500000000
100
AcDbArc
 50
62.524382560
 51
63.703990889
  0
LINE
  5
CE3
330
A02
100
AcDbEntity
  8
Shape2DView012
100
AcDbLine
 10
1096.947783226
 20
6939.216099820
 30
0.000000000
 11
1070.431027312
 21
6953.005510098
 31
0.000000000
  0
ARC
  5
CE4
330
A02
100
AcDbEntity
  8
Shape2DView012
100
AcDbCircle
 10
1086.566933505
 20
6919.253936634
 30
0.000000000
 40
22.500000000
100
AcDbArc
 50
61.220852321
 51
62.524382560
  0
LINE
  5
CE5
330
A02
100
AcDbEntity
  8
Shape2DView012
100
AcDbLine
 10
1125.806849772
 20
6923.371011697
 30
0.000000000
 11
1097.399214653
 21
6938.974780559
 31
0.000000000
  0
LINE
  5
CE6
330
A02
100
AcDbEntity
  8
Shape2DView012
100
AcDbLine
 10
1131.279815180
 20
6920.728261916
 30
0.000000000
 11
1125.806849772
 21
6923.371011697
 31
0.000000000
  0
LINE
  5
CE7
330
A02
100
AcDbEntity
  8
Shape2DView012
100
AcDbLine
 10
1163.712665935
 20
6905.311254441
 30
0.000000000
 11
1131.279815180
 21
6920.728261916
 31
0.000000000
  0
ARC
  5
CE8
330
A02
100
AcDbEntity
  8
Shape2DView012
100
AcDbCircle
 10
1154.053058456
 20
6884.990280464
 30
0.000000000
 40
22.500000000
100
AcDbArc
 50
63.512407690
 51
64.575847493
  0
LINE
  5
CE9
330
A02
100
AcDbEntity
  8
Shape2DView012
100
AcDbLine
 10
1197.883959798
 20
6888.287644223
 30
0.000000000
 11
1164.088148458
 21
6905.128477222
 31
0.000000000
  0
LINE
  5
CEA
330
A02
100
AcDbEntity
  8
Shape2DView012
100
AcDbLine
 10
1206.349457519
 20
6884.534859374
 30
0.000000000
 11
1197.883959798
 21
6888.287644223
 31
0.000000000
  0
LINE
  5
CEB
330
A02
100
AcDbEntity
  8
Shape2DView012
100
AcDbLine
 10
1239.105089291
 20
6870.174277919
 30
0.000000000
 11
1206.349457519
 21
6884.534859374
 31
0.000000000
  0
ARC
  5
CEC
330
A02
100
AcDbEntity
  8
Shape2DView012
100
AcDbCircle
 10
1230.070831145
 20
6849.567672673
 30
0.000000000
 40
22.500000000
100
AcDbArc
 50
65.282288998
 51
66.326602866
  0
LINE
  5
CED
330
A02
100
AcDbEntity
  8
Shape2DView012
100
AcDbLine
 10
1272.001706818
 20
6855.035316799
 30
0.000000000
 11
1239.479158616
 21
6870.006199386
 31
0.000000000
  0
LINE
  5
CEE
330
A02
100
AcDbEntity
  8
Shape2DView012
100
AcDbLine
 10
1277.659017192
 20
6852.764107372
 30
0.000000000
 11
1272.001706818
 21
6855.035316799
 31
0.000000000
  0
LINE
  5
CEF
330
A02
100
AcDbEntity
  8
Shape2DView012
100
AcDbLine
 10
1288.896175112
 20
6848.265531929
 30
0.000000000
 11
1277.659017192
 21
6852.764107372
 31
0.000000000
  0
ARC
  5
CF0
330
A02
100
AcDbEntity
  8
Shape2DView012
100
AcDbCircle
 10
1280.533936428
 20
6827.377186753
 30
0.000000000
 40
22.500000000
100
AcDbArc
 50
67.345791242
 51
68.182275073
  0
LINE
  5
CF1
330
A02
100
AcDbEntity
  8
Shape2DView012
100
AcDbLine
 10
1322.160556652
 20
6834.384564646
 30
0.000000000
 11
1289.200230365
 21
6848.141226568
 31
0.000000000
  0
ARC
  5
CF2
330
A02
100
AcDbEntity
  8
Shape2DView012
100
AcDbCircle
 10
1313.494262716
 20
6813.620524832
 30
0.000000000
 40
22.500000000
100
AcDbArc
 50
66.276806105
 51
67.345791242
  0
LINE
  5
CF3
330
A02
100
AcDbEntity
  8
Shape2DView012
100
AcDbLine
 10
1340.346625196
 20
6826.396934032
 30
0.000000000
 11
1322.546427007
 21
6834.219270465
 31
0.000000000
  0
LINE
  5
CF4
330
A02
100
AcDbEntity
  8
Shape2DView012
100
AcDbLine
 10
1340.346625196
 20
6826.396934032
 30
0.000000000
 11
1340.346625196
 21
6868.055918442
 31
0.000000000
  0
LWPOLYLINE
  5
CF5
330
A02
100
AcDbEntity
100
AcDbPolyline
  8
Shape2DView012
 90
4.000000000
 70
0
 43
0
 10
1340.346614796
 20
6868.055918442
 10
1345.346614796
 20
6868.055918442
 10
1350.346614796
 20
6868.055918442
 10
1352.346635596
 20
6868.055918442
  0
LINE
  5
CF6
330
A02
100
AcDbEntity
  8
Shape2DView012
100
AcDbLine
 10
1352.346625196
 20
6868.055918442
 30
0.000000000
 11
1352.346625196
 21
6821.330017040
 31
0.000000000
  0
LINE
  5
CF7
330
A02
100
AcDbEntity
  8
Shape2DView012
100
AcDbLine
 10
1354.001554541
 20
6820.645256704
 30
0.000000000
 11
1352.346625196
 21
6821.330017040
 31
0.000000000
  0
ARC
  5
CF8
330
A02
100
AcDbEntity
  8
Shape2DView012
100
AcDbCircle
 10
1345.399046955
 20
6799.854709255
 30
0.000000000
 40
22.500000000
100
AcDbArc
 50
67.054995204
 51
67.521689309
  0
LINE
  5
CF9
330
A02
100
AcDbEntity
  8
Shape2DView012
100
AcDbLine
 10
1385.519978353
 20
6807.302979351
 30
0.000000000
 11
1354.170613555
 21
6820.574497367
 31
0.000000000
  0
ARC
  5
CFA
330
A02
100
AcDbEntity
  8
Shape2DView012
100
AcDbCircle
 10
1376.748411753
 20
6786.583191240
 30
0.000000000
 40
22.500000000
100
AcDbArc
 50
65.721052989
 51
67.054995204
  0
LINE
  5
CFB
330
A02
100
AcDbEntity
  8
Shape2DView012
100
AcDbLine
 10
1416.344319609
 20
6793.405577894
 30
0.000000000
 11
1385.999949180
 21
6807.093165770
 31
0.000000000
  0
LINE
  5
CFC
330
A02
100
AcDbEntity
  8
Shape2DView012
100
AcDbLine
 10
1430.057629675
 20
6787.453624341
 30
0.000000000
 11
1416.344319609
 21
6793.405577894
 31
0.000000000
  0
ARC
  5
CFD
330
A02
100
AcDbEntity
  8
Shape2DView012
100
AcDbCircle
 10
1421.099401630
 20
6766.813853260
 30
0.000000000
 40
22.500000000
100
AcDbArc
 50
66.147322378
 51
66.537831068
  0
LINE
  5
CFE
330
A02
100
AcDbEntity
  8
Shape2DView012
100
AcDbLine
 10
1460.300855996
 20
6774.082115612
 30
0.000000000
 11
1430.198094229
 21
6787.392089166
 31
0.000000000
  0
ARC
  5
CFF
330
A02
100
AcDbEntity
  8
Shape2DView012
100
AcDbCircle
 10
1451.202163397
 20
6753.503879706
 30
0.000000000
 40
22.500000000
100
AcDbArc
 50
64.767228233
 51
66.147322378
  0
LINE
  5
D00
330
A02
100
AcDbEntity
  8
Shape2DView012
100
AcDbLine
 10
1490.065959399
 20
6760.062136096
 30
0.000000000
 11
1460.793840510
 21
6773.857005515
 31
0.000000000
  0
ARC
  5
D01
330
A02
100
AcDbEntity
  8
Shape2DView012
100
AcDbCircle
 10
1480.474282286
 20
6739.709010288
 30
0.000000000
 40
22.500000000
100
AcDbArc
 50
64.642565435
 51
64.767228233
  0
LINE
  5
D02
330
A02
100
AcDbEntity
  8
Shape2DView012
100
AcDbLine
 10
1494.773830783
 20
6757.831017919
 30
0.000000000
 11
1490.110220509
 21
6760.041218593
 31
0.000000000
  0
LINE
  5
D03
330
A02
100
AcDbEntity
  8
Shape2DView012
100
AcDbLine
 10
1505.687433386
 20
6753.022768770
 30
0.000000000
 11
1494.773830783
 21
6757.831017919
 31
0.000000000
  0
ARC
  5
D04
330
A02
100
AcDbEntity
  8
Shape2DView012
100
AcDbCircle
 10
1496.615914447
 20
6732.432539433
 30
0.000000000
 40
22.500000000
100
AcDbArc
 50
65.268803225
 51
66.222959679
  0
LINE
  5
D05
330
A02
100
AcDbEntity
  8
Shape2DView012
100
AcDbLine
 10
1535.247463346
 20
6739.410604114
 30
0.000000000
 11
1506.029052297
 21
6752.868851131
 31
0.000000000
  0
ARC
  5
D06
330
A02
100
AcDbEntity
  8
Shape2DView012
100
AcDbCircle
 10
1525.834325497
 20
6718.974292415
 30
0.000000000
 40
22.500000000
100
AcDbArc
 50
63.856124860
 51
65.268803225
  0
LINE
  5
D07
330
A02
100
AcDbEntity
  8
Shape2DView012
100
AcDbLine
 10
1564.165306611
 20
6725.224047787
 30
0.000000000
 11
1535.748426685
 21
6739.172326915
 31
0.000000000
  0
ARC
  5
D08
330
A02
100
AcDbEntity
  8
Shape2DView012
100
AcDbCircle
 10
1554.251205423
 20
6705.026013287
 30
0.000000000
 40
22.500000000
100
AcDbArc
 50
63.770221475
 51
63.856124860
  0
LINE
  5
D09
330
A02
100
AcDbEntity
  8
Shape2DView012
100
AcDbLine
 10
1568.363597109
 20
6723.155549950
 30
0.000000000
 11
1564.195578307
 21
6725.209160909
 31
0.000000000
  0
LINE
  5
D0A
330
A02
100
AcDbEntity
  8
Shape2DView012
100
AcDbLine
 10
1578.227597217
 20
6718.677851228
 30
0.000000000
 11
1568.363597109
 21
6723.155549950
 31
0.000000000
  0
ARC
  5
D0B
330
A02
100
AcDbEntity
  8
Shape2DView012
100
AcDbCircle
 10
1568.927253150
 20
6698.189962117
 30
0.000000000
 40
22.500000000
100
AcDbArc
 50
64.637680851
 51
65.584635482
  0
LINE
  5
D0C
330
A02
100
AcDbEntity
  8
Shape2DView012
100
AcDbLine
 10
1607.287278689
 20
6704.906113597
 30
0.000000000
 11
1578.564924700
 21
6718.521348865
 31
0.000000000
  0
ARC
  5
D0D
330
A02
100
AcDbEntity
  8
Shape2DView012
100
AcDbCircle
 10
1597.649607138
 20
6684.574726849
 30
0.000000000
 40
22.500000000
100
AcDbArc
 50
63.542571332
 51
64.637680851
  0
LINE
  5
D0E
330
A02
100
AcDbEntity
  8
Shape2DView012
100
AcDbLine
 10
1622.688400701
 20
6697.246270376
 30
0.000000000
 11
1607.674093899
 21
6704.718203838
 31
0.000000000
  0
ARC
  5
D0F
330
A02
100
AcDbEntity
  8
Shape2DView012
100
AcDbCircle
 10
1612.663913941
 20
6677.102793387
 30
0.000000000
 40
22.500000000
100
AcDbArc
 50
62.930207668
 51
63.542571332
  0
LINE
  5
D10
330
A02
100
AcDbEntity
  8
Shape2DView012
100
AcDbLine
 10
1642.441280104
 20
6687.152792178
 30
0.000000000
 11
1622.903112759
 21
6697.137982619
 31
0.000000000
  0
LINE
  5
D11
330
A02
100
AcDbEntity
  8
Shape2DView012
100
AcDbLine
 10
1710.746781687
 20
6655.766073014
 30
0.000000000
 11
1642.441280104
 21
6687.152792178
 31
0.000000000
  0
LINE
  5
D12
330
A02
100
AcDbEntity
  8
Shape2DView012
100
AcDbLine
 10
1713.766120845
 20
6654.393683785
 30
0.000000000
 11
1710.746781687
 21
6655.766073014
 31
0.000000000
  0
LINE
  5
D13
330
A02
100
AcDbEntity
  8
Shape2DView012
100
AcDbLine
 10
1721.918550464
 20
6651.074640383
 30
0.000000000
 11
1713.766120845
 21
6654.393683785
 31
0.000000000
  0
ARC
  5
D14
330
A02
100
AcDbEntity
  8
Shape2DView012
100
AcDbCircle
 10
1713.434449919
 20
6630.235493617
 30
0.000000000
 40
22.500000000
100
AcDbArc
 50
67.764520975
 51
67.847620380
  0
LINE
  5
D15
330
A02
100
AcDbEntity
  8
Shape2DView012
100
AcDbLine
 10
1742.035859216
 20
6642.850408879
 30
0.000000000
 11
1721.948765758
 21
6651.062313485
 31
0.000000000
  0
ARC
  5
D16
330
A02
100
AcDbEntity
  8
Shape2DView012
100
AcDbCircle
 10
1733.521543377
 20
6622.023589011
 30
0.000000000
 40
22.500000000
100
AcDbArc
 50
67.700442815
 51
67.764520975
  0
LINE
  5
D17
330
A02
100
AcDbEntity
  8
Shape2DView012
100
AcDbLine
 10
1784.020607935
 20
6625.631602798
 30
0.000000000
 11
1742.059146078
 21
6642.840873659
 31
0.000000000
  0
LINE
  5
D18
330
A02
100
AcDbEntity
  8
Shape2DView012
100
AcDbLine
 10
1789.316211058
 20
6623.606190071
 30
0.000000000
 11
1784.020607935
 21
6625.631602798
 31
0.000000000
  0
LINE
  5
D19
330
A02
100
AcDbEntity
  8
Shape2DView012
100
AcDbLine
 10
1790.346625196
 20
6623.229412065
 30
0.000000000
 11
1789.316211058
 21
6623.606190071
 31
0.000000000
  0
LINE
  5
D1A
330
A02
100
AcDbEntity
  8
Shape2DView012
100
AcDbLine
 10
1790.346625196
 20
6623.229412065
 30
0.000000000
 11
1790.346625196
 21
6671.903788083
 31
0.000000000
  0
LWPOLYLINE
  5
D1B
330
A02
100
AcDbEntity
100
AcDbPolyline
  8
Shape2DView012
 90
4.000000000
 70
0
 43
0
 10
1790.346614796
 20
6671.903788083
 10
1795.346614796
 20
6671.903788083
 10
1800.346614796
 20
6671.903788083
 10
1802.346625196
 20
6671.903788083
  0
LINE
  5
D1C
330
A02
100
AcDbEntity
  8
Shape2DView012
100
AcDbLine
 10
1790.346625196
 20
7323.334765572
 30
0.000000000
 11
1790.346625196
 21
7372.013218567
 31
0.000000000
  0
LINE
  5
D1D
330
A02
100
AcDbEntity
  8
Shape2DView012
100
AcDbLine
 10
1787.354575762
 20
7370.917471959
 30
0.000000000
 11
1790.346625196
 21
7372.013218567
 31
0.000000000
  0
LINE
  5
D1E
330
A02
100
AcDbEntity
  8
Shape2DView012
100
AcDbLine
 10
1715.146672818
 20
7341.406565384
 30
0.000000000
 11
1787.354575762
 21
7370.917471959
 31
0.000000000
  0
LINE
  5
D1F
330
A02
100
AcDbEntity
  8
Shape2DView012
100
AcDbLine
 10
1710.524804073
 20
7339.370407958
 30
0.000000000
 11
1715.146672818
 21
7341.406565384
 31
0.000000000
  0
ENDSEC
  0
SECTION
  2
OBJECTS
  0
DICTIONARY
  5
F000
330
0
100
AcDbDictionary
  3
ACAD_GROUP
350
F001
  0
DICTIONARY
  5
F001
330
F000
100
AcDbDictionary
  0
ENDSEC
  0
EOF